<ttFont>
          <CharString index="0">
            321 28 rmoveto
            -9 2 -9 2 -8 2 85 133 -49 327 44 141 rrcurveto
            58 7 43 10 35 vvcurveto
            18 -14 10 -12 -39 -27 -20 -34 -19 vhcurveto
            -132 -22 -233 -31 -212 vvcurveto
            -57 39 -65 74 65 34 59 20 12 vhcurveto
            -5 3 rlineto
            -17 -14 -24 -36 -56 hhcurveto
            -63 -31 56 55 197 190 9 131 13 hvcurveto
            -56 -153 48 -324 -74 -119 rrcurveto
            1 -9 -10 1 -10 hhcurveto
            -56 -33 -21 -18 -13 12 -11 28 44 32 19 32 22 hvcurveto
            10 -2 9 -2 10 -2 rrcurveto
            -80 -16 rmoveto
            -8 -13 -12 -2 -11 hhcurveto
            -14 -6 5 7 10 13 13 49 7 6 0 -1 6 hvcurveto
            -7 -10 -9 -8 -9 -6 rrcurveto
            208 694 rmoveto
            2 7 0 -5 -15 -28 -7 -41 -7 hvcurveto
            24 14 20 10 26 hhcurveto
            return
          </CharString>
          <CharString index="1">
            -32 -15 -34 -37 -32 hhcurveto
            -46 -8 47 41 25 0 24 1 25 hvcurveto
            26 25 0 1 27 hvcurveto
            17 7 11 8 6 -13 0 -15 hvcurveto
            -21 hlineto
            -16 -17 0 -1 -18 hvcurveto
            9 148 28 138 153 vvcurveto
            37 -2 35 -25 -60 -99 -317 -204 -138 vhcurveto
            -3 -60 -48 -2 -18 hhcurveto
            -17 -10 -15 -8 -4 1 -2 4 hvcurveto
            2 12 3 8 hhcurveto
            37 2 36 2 36 1 rrcurveto
            -84 -61 -69 -59 -75 hhcurveto
            -76 -25 68 55 -6 hvcurveto
            351 47 rmoveto
            204 132 102 281 27 hhcurveto
            4 1 -27 -10 -135 -19 -160 -8 -144 hvcurveto
            -75 -2 -89 -4 -75 -3 rrcurveto
            return
          </CharString>
          <CharString index="2">
            294 -2 rmoveto
            -166 -61 211 137 156 71 215 197 80 66 -64 -69 -27 -5 -30 -24 -24 hvcurveto
            6 -8 rlineto
            34 33 15 36 39 vvcurveto
            66 -50 80 -104 -211 -104 -232 -191 -175 73 -186 172 199 69 240 151 56 -14 122 -17 -10 -17 -16 -7 vhcurveto
            -5 7 -1 -1 vvcurveto
            16 -58 10 -66 -67 vvcurveto
            -133 -70 -182 -162 vhcurveto
            return
          </CharString>
          <CharString index="3">
            621 144 rmoveto
            -11 -14 -14 -22 -19 -23 rrcurveto
            -10 58 -7 67 54 vvcurveto
            218 0 161 105 25 13 -11 -13 13 vhcurveto
            6 4 rlineto
            21 -10 -14 31 -32 hhcurveto
            -71 -69 -101 -306 -72 8 -85 11 -60 hvcurveto
            -35 -39 -54 -29 -74 hhcurveto
            -85 -43 62 74 hvcurveto
            149 85 168 140 vvcurveto
            return
          </CharString>
          <CharString index="4">
            rmoveto
            -27 -19 -30 -32 -6 -14 -32 62 -5 hhcurveto
            -15 -7 -6 -7 -2 1 -3 2 -2 hvcurveto
            17 -21 15 -22 9 -16 rrcurveto
            -11 6 7 -3 8 hhcurveto
            19 36 53 31 23 hvcurveto
            1 -49 callgsubr
            1 vvcurveto
            return
          </CharString>
          <CharString index="5">
            56 69 26 64 33 -22 15 -28 -52 -48 -48 -57 -13 hvcurveto
            -106 21 -79 94 108 vvcurveto
            206 209 168 217 53 83 -23 -72 -38 -11 -33 -31 -32 vhcurveto
            4 -4 rlineto
            45 38 21 46 34 vvcurveto
            90 -97 27 -62 return
          </CharString>
          <CharString index="6">
            hstemhm
            hintmask 11101000
            582 44 rmoveto
            -23 -18 -25 -47 -70 hhcurveto
            -104 -80 42 12 -103 hvcurveto
            141 128 143 354 139 142 rrcurveto
            53 5 81 20 34 vvcurveto
            10 -9 9 -12 -32 -33 -18 -28 -35 vhcurveto
            -28 hlineto
            hintmask 11011000
            -70 -88 18 -72 hhcurveto
            -191 -169 -78 -181 -58 40 -43 19 -14 hvcurveto
            4 5 rlineto
            -34 29 -20 32 55 vvcurveto
            147 142 70 166 vhcurveto
            hintmask 11101000
            106 83 -15 74 hhcurveto
            -161 -159 -157 -344 -102 -118 rrcurveto
            -10 -10 1 -10 hhcurveto
            -46 -19 -19 -15 -15 12 -5 14 22 27 16 20 25 hvcurveto
            -17 93 87 -59 103 hhcurveto
            73 37 54 49 30 hvcurveto
            -486 -38 rmoveto
            -7 -6 1 5 5 9 5 18 10 11 -1 -1 10 hvcurveto
            -13 -15 -19 -1 -11 hhcurveto
            596 707 rmoveto
            3 7 0 -2 -9 -29 -7 -36 -4 hvcurveto
            15 19 15 7 21 hhcurveto
            return
          </CharString>
          <CharString index="7">
            -22 -5 117 20 -3 hvcurveto
            18 -3 -5 11 -15 hhcurveto
            -22 -17 -43 -26 -13 hvcurveto
            -20 -10 -18 -39 -6 hhcurveto
            -5 -1 14 -65 callsubr
            -8 -5 -5 -3 5 -5 -24 -8 -2 -43 -21 vvcurveto
            -18 1 -60 16 5 6 4 5 3 vhcurveto
            11 17 8 16 14 30 rrcurveto
            19 9 21 52 12 25 -19 -158 44 hhcurveto
            return
          </CharString>
          <CharString index="8">
            -50 callgsubr
            hintmask 1111001010000000
            549 -78 callgsubr
            hintmask 1111000110000000
            -102 callsubr
            vhcurveto
            hintmask 1111001010000000
            -51 callsubr
            hintmask 1111000110000000
            -93 callgsubr
            return
          </CharString>
          <CharString index="9">
            rmoveto
            14 4 10 15 17 21 22 -41 31 hhcurveto
            17 27 14 47 13 hvcurveto
            3 -2 1 -3 -5 -5 -3 -3 0 0 -1 0 vhcurveto
            -13 -5 -9 -21 -22 -21 -27 44 -26 hhcurveto
            -14 -32 -19 -45 -9 hvcurveto
            return
          </CharString>
          <CharString index="10">
            101 400 rmoveto
            -33 8 -47 19 58 vvcurveto
            55 43 27 47 139 18 -174 -110 -87 -23 -162 -8 -61 vhcurveto
            -5 4 -3 4 8 22 8 14 1 vhcurveto
            9 55 7 116 2 93 rrcurveto
            203 45 103 263 209 hhcurveto
            59 26 -42 -38 -73 -48 -31 -22 -16 hvcurveto
            4 -5 rlineto
            24 15 71 47 79 vvcurveto
            62 -54 31 -54 -204 -110 -248 -189 -48 vhcurveto
            124 -2 -32 161 -141 hhcurveto
            -58 -62 -35 -69 -75 65 -16 34 -4 hvcurveto
            return
          </CharString>
          <CharString index="11">
            84 -56 36 -57 -87 -135 -113 -92 -18 7 -22 25 23 12 21 16 7 vhcurveto
            -5 3 rlineto
            -11 -7 -12 -6 -12 hhcurveto
            -16 -6 15 12 78 110 85 84 62 29 -42 -60 hvcurveto
            return
          </CharString>
          <CharString index="12">
            -20 -30 callgsubr
            hintmask 11000101
            172 hmoveto
            38 34 49 51 22 hvcurveto
            -2 6 6 -1 8 hhcurveto
            47 31 43 25 17 hvcurveto
            -6 3 rlineto
            -36 -24 -18 -16 -35 hhcurveto
            -9 -8 1 3 -7 hvcurveto
            11 29 6 27 17 vvcurveto
            19 -6 18 -15 -16 -20 -27 -40 -23 6 -22 16 -12 vhcurveto
            -46 -19 -31 -39 -18 hhcurveto
            hintmask 10100101
            -100 callsubr
            hintmask 11000010
            -66 callgsubr
            hintmask 00011000
            return
          </CharString>
          <CharString index="13">
            14 1 -30 -31 2 hvcurveto
            -67 3 11 -26 42 hhcurveto
            25 8 9 2 1 hvcurveto
            3 1 0 2 -2 -4 -5 -2 -9 hhcurveto
            -23 -15 16 36 -3 hvcurveto
            -4 37 -2 35 -2 15 rrcurveto
            12 -2 -7 18 -15 hhcurveto
            -22 -19 -45 -27 -13 hvcurveto
            -21 -10 -16 -38 -6 hhcurveto
            -5 -1 11 -68 callsubr
            vhcurveto
            return
          </CharString>
          <CharString index="14">
            -15 -12 -11 -21 -15 9 -10 14 -3 hvcurveto
            12 -3 -18 -46 -19 -12 -4 -3 1 -9 8 6 rrcurveto
            46 34 3 38 20 vvcurveto
            19 -8 16 -17 vhcurveto
            return
          </CharString>
          <CharString index="15">
            187 108 rmoveto
            -1 -1 -31 -73 -58 hhcurveto
            -35 -14 26 86 -5 hvcurveto
            30 74 17 67 6 55 63 2 61 1 7 1 rrcurveto
            17 1 4 9 9 vvcurveto
            3 -2 2 -6 vhcurveto
            -2 -11 -1 -3 hhcurveto
            -9 -1 -55 -2 -62 -1 rrcurveto
            11 1 11 10 vvcurveto
            54 -9 26 -14 -7 -12 -9 -11 -5 vhcurveto
            -4 -8 -13 -27 -10 -58 rrcurveto
            -61 hlineto
            -78 -18 20 2 -1 hvcurveto
            -2 -4 rlineto
            -33 19 37 -9 38 hhcurveto
            9 24 0 1 30 hvcurveto
            -5 -38 -4 -49 -61 vvcurveto
            -127 19 -53 56 -3 vhcurveto
            63 -3 30 73 9 26 rrcurveto
            -113 236 rmoveto
            -4 -54 -12 -56 -19 -59 rrcurveto
            55 vlineto
            35 1 41 2 37 vhcurveto
            11 10 1 11 hhcurveto
            -30 22 rmoveto
            52 4 6 41 10 hhcurveto
            4 8 -10 -65 hvcurveto
            -17 vlineto
            -11 -11 -1 -10 hhcurveto
            return
          </CharString>
          <CharString index="16">
            181 169 rmoveto
            8 12 3 9 9 -16 26 -51 -69 -63 -74 -66 -39 21 -33 34 30 27 18 24 20 hvcurveto
            -28 12 22 -9 16 hhcurveto
            43 38 47 50 16 -44 callsubr
            return
          </CharString>
          <CharString index="17">
            -4 callgsubr
            hintmask 1001001011000000
            -24 -386 rmoveto
            -57 41 -47 44 64 61 99 196 vhcurveto
            123 -7 4 148 81 5 47 2 vvcurveto
            1 0 4 -4 -11 -19 -6 -16 vhcurveto
            -4 vlineto
            -1 vlineto
            -46 -5 -46 -120 -34 hhcurveto
            -14 -9 9 25 hvcurveto
            16 8 70 18 vvcurveto
            21 2 14 -17 -18 -10 -7 -2 -23 callgsubr
            2 vhcurveto
            0 2 1 2 5 3 -7 -14 vhcurveto
            hintmask 1010001101000000
            -19 -10 -70 6 callsubr
            38 37 69 55 18 vhcurveto
            -42 vlineto
            -130 7 -44 -121 vvcurveto
            -124 -15 -134 -61 -47 -25 57 44 vhcurveto
            hintmask 0110001011000000
            19 9 5 7 vhcurveto
            5 3 -2 2 hhcurveto
            2 1 1 2 7 -7 6 -11 -24 -17 -19 -38 hvcurveto
            hintmask 0000110000000000
            return
          </CharString>
          <CharString index="18">
            194 108 rmoveto
            -19 -11 -28 -54 -40 hhcurveto
            -31 -21 36 50 -14 hvcurveto
            19 36 29 62 25 87 rrcurveto
            19 69 7 69 53 vvcurveto
            91 -16 43 -36 -73 -29 -198 -141 -171 45 -109 69 53 33 85 9 3 vhcurveto
            -173 220 rmoveto
            100 18 187 41 29 14 -61 -89 -141 -55 -126 -27 -58 vhcurveto
            -14 60 -6 73 55 vvcurveto
            return
          </CharString>
          <CharString index="19">
            -12 callsubr
            119 -18 115 -25 25 489 26 hstemhm
            0 25 186 22 74 29 320 32 hintmask 1001011111100000
            306 171 rmoveto
            -26 vlineto
            -33 -35 -1 -22 hhcurveto
            hintmask 0100101111100000
            -22 callgsubr
            29 33 2 2 35 hvcurveto
            1 -32 3 -28 -22 -51 callgsubr
            hintmask 0011011111100000
            -14 30 34 -17 41 hhcurveto
            187 64 275 152 228 -133 127 -203 -172 -180 -117 -191 -123 76 -109 155 28 26 4 7 22 hvcurveto
            -1 -21 0 -19 -17 vvcurveto
            132 -38 rmoveto
            4 6 3 6 5 -78 -1 -8 hvcurveto
            -26 27 hlineto
            20 0 22 1 24 vhcurveto
            29 13 21 15 12 11 -3 5 rcurveline
            -15 -10 -17 -10 -27 -8 3 55 5 59 11 47 rrcurveto
            -78 callsubr
            vvcurveto
            26 -3 21 -1 30 vhcurveto
            2 34 35 1 32 hhcurveto
            hintmask 1001011111100000
            -170 -149 rmoveto
            hintmask 0011011111100000
            -31 callgsubr
            hintmask 1001011111100000
            -18 -4 -10 -15 -27 hhcurveto
            endchar
          </CharString>
          <CharString index="20">
            -74 1 41 -38 66 hhcurveto
            128 98 149 32 21 hvcurveto
            -241 40 rmoveto
            17 20 -8 -19 -39 -59 -17 -45 -9 -9 0 1 -9 hvcurveto
            47 8 32 35 54 hhcurveto
            return
          </CharString>
          <CharString index="21">
            -49 0 -128 -92 -63 5 -66 5 -58 hvcurveto
            -21 -20 -28 -12 -48 hhcurveto
            -97 -39 78 68 249 258 290 238 48 54 -41 -67 -38 -11 -33 -31 -32 hvcurveto
            4 -4 rlineto
            45 38 21 46 34 vvcurveto
            101 -73 25 -57 -204 -322 -303 -262 -123 62 -55 90 48 36 18 28 27 vhcurveto
            return
          </CharString>
          <CharString index="22">
            rmoveto
            -127 -234 -88 -188 -117 -211 rrcurveto
            -9 -5 10 -6 9 hhcurveto
            4 -1 4 2 2 7 112 210 90 176 132 245 rrcurveto
            0 1 2 -1 1 vhcurveto
            2 5 -4 3 -5 -1 rrcurveto
            -6 2 -13 -1 -2 vvcurveto
            return
          </CharString>
          <CharString index="23">
            596 20 rmoveto
            -20 -12 -43 -23 -39 hhcurveto
            -72 -43 75 51 -51 hvcurveto
            156 40 128 188 155 vvcurveto
            169 -115 70 -134 -37 -40 -6 -11 -41 vhcurveto
            1 18 1 19 1 19 rrcurveto
            -19 callsubr
            2 1 vvcurveto
            4 -7 2 -7 -8 -11 -3 -6 vhcurveto
            -1 -23 -1 -22 -1 -22 rrcurveto
            -116 -41 -106 -84 -115 vvcurveto
            -40 19 -26 7 -7 vhcurveto
            6 4 rlineto
            -7 8 -17 23 32 vvcurveto
            return
          </CharString>
          <CharString index="24">
            218 rmoveto
            -37 callsubr
            hvcurveto
            -37 callgsubr
            -8 -2 -43 -21 vvcurveto
            -18 1 -60 16 5 4 4 5 3 vhcurveto
            11 18 8 17 14 31 rrcurveto
            20 9 21 54 12 hhcurveto
            return
          </CharString>
          <CharString index="25">
            vvcurveto
            181 155 149 175 94 80 -53 -85 -56 -34 -48 -39 -26 vhcurveto
            -420 -473 rmoveto
            -15 -7 7 9 8 7 10 15 11 12 -5 -6 12 hvcurveto
            -13 -7 -11 -10 -17 hhcurveto
            return
          </CharString>
          <CharString index="26">
            10 31 6 31 1 26 rrcurveto
            22 1 -10 16 -14 hhcurveto
            -21 -20 -31 -48 -25 12 -23 16 -22 hvcurveto
            -12 -35 -18 -38 -22 -35 rrcurveto
            37 203 rmoveto
            21 11 8 6 10 5 -11 -23 -17 -2 -19 -5 -20 vhcurveto
            -15 18 -10 19 24 vvcurveto
            return
          </CharString>
          <CharString index="27">
            535 798 rmoveto
            -18 -32 -20 -35 -22 -38 rrcurveto
            32 -25 -41 24 -56 hhcurveto
            -211 -104 -232 -191 -101 24 -105 54 -70 hvcurveto
            -26 -46 -23 -41 -20 -35 -5 -9 9 -6 8 -1 5 -1 5 2 1 7 18 33 21 37 23 41 rrcurveto
            -40 38 49 -26 64 hhcurveto
            199 69 240 151 56 -14 122 -17 -10 -17 -16 -7 hvcurveto
            -5 7 -1 -1 vvcurveto
            16 -58 10 -66 -67 vvcurveto
            -133 -70 -182 -162 -61 -46 28 42 -35 vhcurveto
            95 167 123 214 101 180 rrcurveto
            6 -15 4 -15 -15 vvcurveto
            2 callgsubr
            20 -5 22 -10 21 vhcurveto
            25 44 23 42 21 38 rrcurveto
            0 2 2 1 vvcurveto
            4 -4 3 -5 vhcurveto
            -5 1 -12 -1 -2 -2 rrcurveto
            -468 -452 rmoveto
            156 71 215 197 49 45 -25 -35 26 vhcurveto
            -98 -176 -123 -221 -97 -172 rrcurveto
            -50 73 -20 105 80 vvcurveto
            return
          </CharString>
          <CharString index="28">
            -2 59 rmoveto
            6 -4 20 29 18 36 15 37 rlinecurve
            25 -34 29 -31 -28 vvcurveto
            -30 -26 -13 -14 -17 -7 8 11 vhcurveto
            4 1 7 3 vvcurveto
            2 -1 3 -3 -4 -15 -23 -19 return
          </CharString>
          <CharString index="29">
            8 -15 18 -7 -6 2 -9 -6 -1 -2 -12 -1 -8 vhcurveto
            -12 -59 -5 -53 -3 -46 rrcurveto
            -4 -20 -25 -2 -31 hhcurveto
            -105 -101 89 114 183 123 103 193 204 111 -159 -208 -154 -44 -205 -175 -35 -31 13 11 -32 hvcurveto
            1 7 1 8 9 return
          </CharString>
          <CharString index="30">
            -19 34 39 -31 48 hhcurveto
            43 29 22 60 20 hvcurveto
            -10 2 rlineto
            -33 -11 -17 -24 -40 hhcurveto
            -39 -42 32 17 -45 hvcurveto
            3 9 1 10 10 vvcurveto
            return
          </CharString>
          <CharString index="31">
            -7 -229 -7 -222 -14 -222 rrcurveto
            -4 -3 -1 -2 -2 vvcurveto
            -4 7 -3 7 9 9 4 9 vhcurveto
            4 38 3 37 3 37 rrcurveto
            -6 11 16 -2 19 hhcurveto
            10 11 0 2 10 hvcurveto
            -57 48 58 -94 73 hhcurveto
            57 48 55 16 8 hvcurveto
            return
          </CharString>
          <CharString index="32">
            rmoveto
            -13 11 -11 13 13 11 11 13 13 -11 11 -13 -13 -11 -11 -13 vhcurveto
            endchar
          </CharString>
          <CharString index="33">
            173 262 rmoveto
            -10 -17 -9 -17 -9 -17 rrcurveto
            3 -7 -8 1 -8 hhcurveto
            -51 -61 -53 -73 -32 10 -24 18 -13 hvcurveto
            -10 -18 -10 -17 -10 -18 rrcurveto
            -8 -4 7 -4 6 hhcurveto
            4 -2 3 2 1 6 9 17 10 17 9 16 rrcurveto
            -3 9 10 -2 11 hhcurveto
            51 56 53 73 34 -11 24 -19 13 hvcurveto
            10 17 10 18 11 18 rrcurveto
            0 1 2 1 vvcurveto
            1 3 -4 1 -4 1 rrcurveto
            -4 -7 0 -2 -1 hvcurveto
            -73 -231 rmoveto
            -12 -10 3 6 -9 hvcurveto
            24 43 24 43 25 45 rrcurveto
            14 -15 6 -22 -24 vvcurveto
            -52 -30 -27 -32 vhcurveto
            -63 84 rmoveto
            52 32 22 30 11 10 -3 -4 8 vhcurveto
            -23 -43 -24 -42 -25 -45 rrcurveto
            -13 16 -6 24 23 vvcurveto
            return
          </CharString>
          <CharString index="34">
            -50 -23 54 48 70 37 20 35 49 23 -46 -50 -60 -24 -36 -47 hvcurveto
            -10 -24 rmoveto
            59 52 51 84 63 -39 43 -47 -59 -57 -51 -84 -63 42 -43 49 hvcurveto
            return
          </CharString>
          <CharString index="35">
            3 37 35 2 34 hhcurveto
            -1 -107 -27 -138 -92 -68 8 -6 rcurveline
            100 72 37 123 7 125 rrcurveto
            19 hlineto
            64 63 -3 73 hhcurveto
            -1 -23 0 -23 -22 vvcurveto
            -30 4 -73 9 -29 vhcurveto
            -11 2 4 -2 8 hhcurveto
            11 13 7 6 2 -1 1 -2 2 hvcurveto
            -10 31 -7 28 83 vvcurveto
            53 11 vlineto
            return
          </CharString>
          <CharString index="36">
            4 -4 3 -4 -3 -3 -1 -3 -2 vhcurveto
            endchar
          </CharString>
          <CharString index="37">
            5 60 4 60 64 vvcurveto
            37 -2 35 -25 -60 -99 -316 -205 -137 vhcurveto
            -3 -58 -47 -2 -22 hhcurveto
            -17 -10 -15 -8 -4 1 -2 4 hvcurveto
            2 12 3 8 hhcurveto
            44 2 34 2 31 1 rrcurveto
            -84 -61 -69 -59 -75 hhcurveto
            -76 -25 68 55 -6 hvcurveto
            -6 -1 rlineto
            -55 7 12 -106 89 hhcurveto
            81 79 79 105 72 hvcurveto
            78 4 58 1 117 2 rrcurveto
            2 hlineto
            -1 -34 -1 -32 -30 vvcurveto
            -77 20 -24 48 20 22 12 28 20 vhcurveto
            -134 182 rmoveto
            -21 hlineto
            -69 -76 -4 -3 -66 hvcurveto
            205 132 102 280 27 hhcurveto
            4 1 -27 -10 hvcurveto
            return
          </CharString>
          <CharString index="38">
            71 425 rmoveto
            44 -11 150 21 16 7 -56 -89 -61 -1 -59 -16 -47 vhcurveto
            -3 -9 -3 -8 -3 -8 rrcurveto
            -4 48 -3 51 44 vvcurveto
            return
          </CharString>
          <CharString index="39">
            17 hvcurveto
            18 4 40 34 vvcurveto
            13 0 23 -7 return
          </CharString>
          <CharString index="40">
            -67 3 11 -26 42 hhcurveto
            25 8 9 2 1 hvcurveto
            3 1 0 2 -2 -4 -5 -2 -9 hhcurveto
            -23 -15 16 36 -3 hvcurveto
            -4 41 -2 51 -2 16 rrcurveto
            14 -2 -7 20 -15 hhcurveto
            -21 -23 -52 -44 -14 hvcurveto
            -35 -11 -7 -23 -6 hhcurveto
            -5 0 14 6 return
          </CharString>
          <CharString index="41">
            206 rmoveto
            -14 -14 -3 -17 hhcurveto
            -6 -4 1 1 -4 hvcurveto
            28 -1 -6 18 -14 hhcurveto
            -10 -5 -10 -12 return
          </CharString>
          <CharString index="42">
            -68 callsubr
            -31 callsubr
            return
          </CharString>
          <CharString index="43">
            -75 callgsubr
            22 -13 15 -22 -11 -7 -3 -2 -4 hvcurveto
            return
          </CharString>
          <CharString index="44">
            -67 callsubr
            hvcurveto
            24 25 215 163 -59 callsubr
            -194 -10 -120 -34 vvcurveto
            return
          </CharString>
          <CharString index="45">
            rmoveto
            -15 12 28 -34 51 hhcurveto
            40 26 25 31 22 -14 20 -19 13 hvcurveto
            60 39 53 83 66 vvcurveto
            59 -30 47 -78 -57 -109 -49 -82 -23 16 -23 13 -10 vhcurveto
            6 3 rlineto
            -9 10 -13 15 25 vvcurveto
            66 74 41 74 56 27 -41 -40 -79 -44 -71 -49 -29 vhcurveto
            7 -14 -15 4 -15 hhcurveto
            -17 -23 -7 -13 -12 17 -7 15 15 17 4 8 16 hvcurveto
            12 -10 8 -15 -18 vvcurveto
            -25 -19 -13 -30 -46 -20 21 13 -10 vhcurveto
            return
          </CharString>
          <CharString index="46">
            339 -44 31 468 23 165 32 -7 32 return
          </CharString>
          <CharString index="47">
            -77 20 -38 48 55 28 70 33 16 vhcurveto
            -6 3 rlineto
            return
          </CharString>
          <CharString index="48">
            vvcurveto
            119 -1 23 -8 6 vhcurveto
            2 -2 -3 1 -3 hhcurveto
            -6 -6 -5 -2 -4 hvcurveto
            -5 -3 -1 -4 -5 -4 2 -87 -95 return
          </CharString>
          <CharString index="49">
            rmoveto
            -24 -20 -61 -63 -26 vvcurveto
            -33 39 -34 24 -22 vhcurveto
            -4 3 3 0 2 hhcurveto
            12 8 11 8 1 0 2 -1 1 hvcurveto
            -20 18 -42 39 -3 20 8 28 40 47 20 19 rrcurveto
            return
          </CharString>
          <CharString index="50">
            -26 -7 30 73 hvcurveto
            29 1 31 16 vvcurveto
            return
          </CharString>
          <CharString index="51">
            199 -35 33 76 29 83 26 492 33 return
          </CharString>
          <CharString index="52">
            rmoveto
            -93 callsubr
            -80 hmoveto
            -27 callsubr
          </CharString>
          <CharString index="53">
            3 -5 2 -5 -17 -47 -54 -41 -36 vhcurveto
            7 -7 rlineto
            29 27 36 35 13 hhcurveto
            3 1 -3 -4 hvcurveto
            -28 -9 -55 -125 vvcurveto
            -35 0 -79 4 -28 vhcurveto
            return
          </CharString>
          <CharString index="54">
            15 12 11 21 15 -9 10 -14 3 hvcurveto
            -12 3 18 46 19 12 4 3 -1 9 -8 -6 rrcurveto
            -46 -34 -3 -38 -20 vvcurveto
            -19 8 -16 17 vhcurveto
            return
          </CharString>
          <CharString index="55">
            -22 0 -20 2 -19 vhcurveto
            58 377 rmoveto
            16 7 -56 -89 -109 -23 -95 -20 -63 hvcurveto
            -7 44 -3 48 38 vvcurveto
            100 9 182 21 vhcurveto
            -119 -544 rmoveto
            -29 -21 26 34 40 29 48 68 6 5 -1 -2 5 hvcurveto
            3 -28 4 -25 6 -23 rrcurveto
            -30 -14 -22 -39 -40 hhcurveto
            return
          </CharString>
          <CharString index="56">
            -222 -227 -200 -213 hvcurveto
            return
          </CharString>
          <CharString index="57">
            107 -24 63 235 29 412 -20 return
          </CharString>
          <CharString index="58">
            -21 -12 -30 -68 -97 hhcurveto
            -99 26 rmoveto
            -18 -9 -20 -5 -21 hhcurveto
            -27 -30 18 33 41 30 20 49 16 12 -8 -3 11 hvcurveto
            -10 0 -46 -11 -22 vhcurveto
            37 97 rmoveto
            14 -7 15 -2 0 vvcurveto
            -6 -3 -12 -4 -12 -10 rrcurveto
            1 9 0 8 9 vvcurveto
            return
          </CharString>
          <CharString index="59">
            rmoveto
            -2 4 -23 14 2 vhcurveto
            48 -32 143 -70 14 -15 5 -5 22 22 -10 8 rrcurveto
            -40 35 -155 64 13 vvcurveto
            10 152 60 45 25 vhcurveto
            1 1 6 5 9 vvcurveto
            7 -17 8 -4 -4 vhcurveto
            -19 -17 -209 -81 -20 vvcurveto
            endchar
          </CharString>
          <CharString index="60">
            27 42 115 189 160 vvcurveto
            61 -25 30 -24 -91 -33 -199 -148 vhcurveto
            return
          </CharString>
          <CharString index="61">
            101 66 29 -9 -21 hstemhm
            hintmask 01000000
            78 65 rmoveto
            hintmask 10000000
            67 21 1 71 hhcurveto
            hintmask 01000000
            36 28 -15 callgsubr
            hvcurveto
            hintmask 10000000
            5 -83 -2 -15 vhcurveto
            -72 -25 -1 -73 hhcurveto
            -6 -4 -17 -8 hvcurveto
            hintmask 01000000
            -3 -36 callsubr
            vhcurveto
            return
          </CharString>
          <CharString index="62">
            -89 120 36 -14 -21 hstemhm
            hintmask 01000000
            129 121 rmoveto
            hintmask 10000000
            -3 callgsubr
            26 6 5 -48 -1 -8 hvcurveto
            -37 -32 -2 -37 hhcurveto
            -3 -6 -22 14 callsubr
            hintmask 01000000
            35 31 1 37 hhcurveto
            endchar
          </CharString>
          <CharString index="63">
            hvcurveto
            -3 2 rlineto
            return
          </CharString>
          <CharString index="64">
            1 -19 callsubr
            return
          </CharString>
          <CharString index="65">
            -22 8 -16 15 -9 vhcurveto
            -3 -64 -28 -40 -1 -8 rrcurveto
            -4 2 -2 4 vhcurveto
            return
          </CharString>
          <CharString index="66">
            hstemhm
            -48 callgsubr
            return
          </CharString>
          <CharString index="67">
            14 -10 -18 10 -27 hhcurveto
            -30 -26 -27 -17 -12 hvcurveto
            3 -3 rlineto
            18 20 19 6 23 hhcurveto
            34 14 -21 -43 2 hvcurveto
            7 -13 -15 1 -7 hhcurveto
            -66 -42 -52 -46 -32 22 -28 49 28 25 17 24 19 hvcurveto
            return
          </CharString>
          <CharString index="68">
            -99 6 25 158 26 return
          </CharString>
          <CharString index="69">
            36 hhcurveto
            53 33 85 9 3 -44 callsubr
            -19 -11 -28 -54 -40 hhcurveto
            -91 291 rmoveto
            100 18 187 41 29 14 -61 -89 -140 -54 -125 -27 -58 vhcurveto
            -15 59 -6 73 54 vvcurveto
            return
          </CharString>
          <CharString index="70">
            -4 -9 -7 -2 -3 return
          </CharString>
          <CharString index="71">
            1 -1 1 return
          </CharString>
          <CharString index="72">
            4 -46 4 -39 -24 vvcurveto
            -77 -25 -32 -35 -1 vhcurveto
            return
          </CharString>
          <CharString index="73">
            36 36 -1 -2 36 hvcurveto
            7 12 21 6 5 -93 0 -15 hvcurveto
            return
          </CharString>
          <CharString index="74">
            36 51 -15 hvcurveto
            19 36 30 62 24 86 rrcurveto
            19 69 7 69 53 vvcurveto
            91 -16 43 -36 -73 -29 -198 -141 -76 9 -64 16 -47 vhcurveto
            -36 -21 -38 -38 -47 hhcurveto
            return
          </CharString>
          <CharString index="75">
            117 -206 33 173 29 417 23 245 29 return
          </CharString>
          <CharString index="76">
            -37 callsubr
            vhcurveto
            -3 -2 return
          </CharString>
          <CharString index="77">
            -78 10 185 11 -20 return
          </CharString>
          <CharString index="78">
            hhcurveto
            -6 -7 -8 callsubr
            return
          </CharString>
          <CharString index="79">
            19 rmoveto
            -43 -25 22 29 35 41 25 34 11 hvcurveto
            6 2 5 0 5 vvcurveto
            2 -2 3 -7 -20 -59 9 30 21 24 12 31 vhcurveto
            44 8 -11 7 hhcurveto
            return
          </CharString>
          <CharString index="80">
            -93 callsubr
            endchar
          </CharString>
          <CharString index="81">
            hstemhm
            -24 30 6 30 -20 20 112 32 return
          </CharString>
          <CharString index="82">
            rmoveto
            -16 -12 -11 -21 -19 13 -8 11 hvcurveto
            return
          </CharString>
          <CharString index="83">
            -68 4 30 -30 212 return
          </CharString>
          <CharString index="84">
            -132 -19 -164 -8 -145 vhcurveto
            340 -11 rmoveto
            17 20 -8 -19 -39 -59 -17 -45 -9 -9 0 1 -9 hvcurveto
            47 8 32 35 54 hhcurveto
            return
          </CharString>
          <CharString index="85">
            -35 33 719 32 return
          </CharString>
          <CharString index="86">
            352 -58 -21 530 27 -27 39 return
          </CharString>
          <CharString index="87">
            hhcurveto
            25 3 -20 -8 -46 -104 -86 0 hvcurveto
            5 -6 rlineto
            0 132 89 72 vvcurveto
            25 -14 9 -18 -45 -47 -48 -71 -43 vhcurveto
            return
          </CharString>
          <CharString index="88">
            1 1 1 return
          </CharString>
          <CharString index="89">
            37 7 10 4 vvcurveto
            8 -25 17 -7 -6 -5 -38 -22 vhcurveto
            return
          </CharString>
          <CharString index="90">
            -72 -65 -67 -66 -39 28 -25 34 45 37 40 42 18 hvcurveto
            return
          </CharString>
          <CharString index="91">
            11 0 21 76 133 -72 29 return
          </CharString>
          <CharString index="92">
            -6 -21 24 24 192 25 118 24 192 25 hstemhm
            40 28 144 30 -2 28 144 30 return
          </CharString>
          <CharString index="93">
            rrcurveto
            3 -4 2 -3 -6 -6 -5 -2 -4 vhcurveto
            -5 -3 -1 -4 -5 vvcurveto
            -78 -667 rmoveto
            -13 -9 return
          </CharString>
          <CharString index="94">
            rmoveto
            -14 -5 3 5 5 10 2 9 11 10 -3 -6 10 hvcurveto
            -4 -11 -10 -2 -10 hhcurveto
            endchar
          </CharString>
          <CharString index="95">
            386 -39 23 -23 81 -67 30 21 return
          </CharString>
          <CharString index="96">
            vlineto
            -1 -43 -43 -1 -46 -29 callsubr
            49 46 1 1 48 hvcurveto
            1 return
          </CharString>
          <CharString index="97">
            3 callgsubr
            335 33 return
          </CharString>
          <CharString index="98">
            -24 -25 21 37 -5 hvcurveto
            return
          </CharString>
          <CharString index="99">
            -17 -8 -3 -36 callsubr
            return
          </CharString>
          <CharString index="100">
            -9 4 -12 -6 vvcurveto
            -12 -25 -261 -6 -231 vhcurveto
            -70 -80 2 1 -68 hvcurveto
            17 vlineto
            return
          </CharString>
          <CharString index="101">
            2 40 hhcurveto
            20 22 0 -2 20 hvcurveto
            -2 7 13 25 -8 hhcurveto
            1 -19 -20 1 -19 -40 return
          </CharString>
          <CharString index="102">
            -21 276 29 280 33 72 35 48 -20 return
          </CharString>
          <CharString index="103">
            78 -65 -21 775 29 11 callsubr
            return
          </CharString>
          <CharString index="104">
            16 12 11 21 19 -13 8 -11 -15 -12 -11 -19 -16 7 -13 16 hvcurveto
            endchar
          </CharString>
          <CharString index="105">
            -48 -48 -27 -12 -24 -14 -15 hvcurveto
            6 -4 rlineto
            14 15 30 36 37 vvcurveto
            56 return
          </CharString>
          <CharString index="106">
            -124 vvcurveto
            -84 29 -48 29 vhcurveto
            hintmask 11110110
            49 56 116 229 hvcurveto
            return
          </CharString>
          <CharString index="107">
            2 2 -1 2 hhcurveto
            -3 0 -3 1 -3 vhcurveto
            -10 -9 -8 -4 -8 hhcurveto
            return
          </CharString>
          <CharString index="108">
            vvcurveto
            8 -7 13 -8 -5 -22 -3 -4 vhcurveto
            return
          </CharString>
          <CharString index="109">
            59 32 86 20 7 -44 callsubr
            -40 -20 -31 -43 -33 hhcurveto
            return
          </CharString>
          <CharString index="110">
            98 97 79 116 37 vhcurveto
            return
          </CharString>
          <CharString index="111">
            143 -36 33 667 37 return
          </CharString>
          <CharString index="112">
            -21 callgsubr
            hstemhm
            return
          </CharString>
          <CharString index="113">
            -20 vvcurveto
            -33 12 -17 30 return
          </CharString>
          <CharString index="114">
            19 -24 10 -20 vhcurveto
            return
          </CharString>
          <CharString index="115">
            190 -174 -21 171 24 377 25 hstemhm
            21 31 return
          </CharString>
          <CharString index="116">
            vvcurveto
            61 -25 30 -24 -91 -33 -199 -148 vhcurveto
            -92 return
          </CharString>
          <CharString index="117">
            14 21 -21 197 -181 -21 return
          </CharString>
          <CharString index="118">
            hstemhm
            1 34 -34 106 return
          </CharString>
          <CharString index="119">
            21 69 39 249 27 hstem
            197 27 50 30 return
          </CharString>
          <CharString index="120">
            -10 -4 10 -5 8 hhcurveto
            5 4 3 7 1 hvcurveto
            return
          </CharString>
          <CharString index="121">
            -8 -3 3 -1 0 hvcurveto
            return
          </CharString>
          <CharString index="122">
            -1 vvcurveto
            -1 3 -1 3 14 6 12 11 vhcurveto
            return
          </CharString>
          <CharString index="123">
            -186 25 -136 2 -168 vhcurveto
            -18 hlineto
            return
          </CharString>
          <CharString index="124">
            173 -141 -21 320 return
          </CharString>
          <CharString index="125">
            hhcurveto
            -9 callsubr
            return
          </CharString>
          <CharString index="126">
            228 -44 31 715 33 return
          </CharString>
          <CharString index="127">
            vvcurveto
            -5 3 -2 5 8 12 7 9 vhcurveto
            return
          </CharString>
          <CharString index="128">
            -10 -5 -10 -12 -22 8 -16 14 -9 hvcurveto
            return
          </CharString>
        <CharString name=".notdef">
          -69 endchar
        </CharString>
        <CharString name="A">
          -57 callgsubr
          -20 callgsubr
          hintmask 10111100
          -83 callgsubr
          hintmask 01111100
          -60 callsubr
          hintmask 10111100
          -106 callsubr
          endchar
        </CharString>
        <CharString name="AE">
          0 callgsubr
          hstemhm
          596 29 -29 44 -44 244 -217 36 163 166 214 28 hintmask 1011010100011000
          -42 callgsubr
          hintmask 1011010001001000
          -48 -44 30 47 -3 hvcurveto
          -1 7 8 0 8 hhcurveto
          hintmask 1010101010011000
          -102 callsubr
          -176 -178 -126 -157 -67 vhcurveto
          hintmask 0111010000111000
          -70 callsubr
          hintmask 1010110100011000
          -23 callsubr
          endchar
        </CharString>
        <CharString name="AEacute">
          0 callgsubr
          23 -21 100 -20 hstemhm
          596 29 -29 44 -44 244 -217 36 163 166 214 28 hintmask 1011010001000110
          -42 callgsubr
          hintmask 1011010000010010
          -48 -44 30 47 -3 hvcurveto
          -1 7 8 0 8 hhcurveto
          hintmask 1010101000100110
          -102 callsubr
          -176 -178 -126 -157 -67 vhcurveto
          hintmask 0111010000001110
          -70 callsubr
          hintmask 1010110001000110
          -23 callsubr
          hintmask 0000000110000000
          -157 556 -77 callgsubr
          endchar
        </CharString>
        <CharString name="Aacute">
          -57 callgsubr
          55 -21 100 -20 -20 callgsubr
          hintmask 10110011
          -83 callgsubr
          hintmask 01110011
          -60 callsubr
          hintmask 10110011
          -106 callsubr
          hintmask 00001100
          270 557 -77 callgsubr
          endchar
        </CharString>
        <CharString name="Abreve">
          -57 callgsubr
          44 24 -20 callgsubr
          hintmask 10110110
          -83 callgsubr
          hintmask 01110110
          -60 callsubr
          hintmask 10110110
          -106 callsubr
          hintmask 00001000
          204 629 -98 callgsubr
        </CharString>
        <CharString name="Acircumflex">
          -57 callgsubr
          55 -21 95 -20 -20 callgsubr
          hintmask 10110011
          -83 callgsubr
          hintmask 01110011
          -60 callsubr
          hintmask 10110011
          -106 callsubr
          hintmask 00001100
          211 556 -106 callgsubr
        </CharString>
        <CharString name="Adieresis">
          -57 callgsubr
          48 44 -20 callgsubr
          hintmask 10110110
          -83 callgsubr
          hintmask 01110110
          -60 callsubr
          hintmask 10110110
          -106 callsubr
          hintmask 00001000
          211 590 -99 callgsubr
        </CharString>
        <CharString name="Agrave">
          -57 callgsubr
          55 -21 106 -20 -20 callgsubr
          hintmask 10110011
          -83 callgsubr
          hintmask 01110011
          -60 callsubr
          hintmask 10110011
          -106 callsubr
          hintmask 00001100
          211 631 rmoveto
          22 -20 33 -25 26 -30 rrcurveto
          -2 1 2 0 2 hhcurveto
          5 6 8 6 2 0 2 -1 1 hvcurveto
          -28 26 -21 28 -29 32 rrcurveto
          1 -1 -1 0 -1 hhcurveto
          -8 -12 -17 -8 -23 callgsubr
          4 hvcurveto
          endchar
        </CharString>
        <CharString name="Amacron">
          -57 callgsubr
          59 25 -7 -21 -20 callgsubr
          hintmask 10110011
          -83 callgsubr
          hintmask 01110011
          -60 callsubr
          hintmask 10110011
          -106 callsubr
          hintmask 00000100
          216 576 rmoveto
          hintmask 00001000
          -84 callgsubr
          hintmask 00000100
          -36 callgsubr
        </CharString>
        <CharString name="Aogonek">
          451 -119 23 77 31 161 27 475 35 -20 callgsubr
          -10 22 hintmask 11111010
          -83 callgsubr
          -77 20 -38 48 5 9 1 2 5 vhcurveto
          -16 -19 -15 -21 -19 -70 callgsubr
          -23 -8 -21 hhcurveto
          -17 -9 12 11 20 21 30 17 19 hvcurveto
          33 35 13 34 5 13 -6 3 rcurveline
          -32 -15 -34 -37 -32 hhcurveto
          -46 -8 47 41 25 0 24 1 25 hvcurveto
          26 25 0 1 27 hvcurveto
          17 7 11 8 6 -13 0 -15 hvcurveto
          -21 hlineto
          -16 -17 0 -1 -18 hvcurveto
          hintmask 11111100
          9 148 28 138 153 vvcurveto
          37 -2 35 -25 -60 -99 -317 -204 -138 vhcurveto
          -3 -60 -48 -2 -18 hhcurveto
          -17 -10 -15 -8 -4 1 -2 4 hvcurveto
          2 12 3 8 hhcurveto
          37 2 36 2 36 1 rrcurveto
          -84 -61 -69 -59 -75 hhcurveto
          -76 -25 68 55 -6 hvcurveto
          351 47 rmoveto
          204 132 102 281 27 hhcurveto
          4 1 -27 -10 -135 -19 -160 -8 -144 hvcurveto
          -75 -2 -89 -4 -75 -3 rrcurveto
          endchar
        </CharString>
        <CharString name="Aring">
          -57 callgsubr
          34 145 hstemhm
          561 147 -112 26 1 36 29 20 hintmask 1011001100000000
          -83 callgsubr
          hintmask 0111001100000000
          -60 callsubr
          hintmask 1011001100000000
          -106 callsubr
          hintmask 0000110000000000
          204 620 -63 callgsubr
          hintmask 0000100010000000
          -45 callgsubr
        </CharString>
        <CharString name="Atilde">
          -57 callgsubr
          44 24 -5 -21 43 27 -20 callgsubr
          hintmask 1011000110000000
          -83 callgsubr
          hintmask 0111000110000000
          -60 callsubr
          hintmask 1011000110000000
          -106 callsubr
          hintmask 0000101000000000
          203 576 -98 callsubr
          hintmask 0000011000000000
          -64 callgsubr
        </CharString>
        <CharString name="B">
          415 -32 -21 52 171 -46 46 537 35 12 -20 hstemhm
          196 73 -29 29 104 28 281 36 hintmask 1101010110000000
          211 46 rmoveto
          8 -7 12 -10 15 -9 1 -16 2 -16 2 -17 rrcurveto
          -17 2 7 -7 10 hhcurveto
          3 7 5 6 hvcurveto
          2 -1 8 3 vvcurveto
          -1 11 -1 12 -1 12 rrcurveto
          -4 13 15 -3 16 hhcurveto
          55 26 42 37 22 -8 20 -16 15 hvcurveto
          173 42 168 142 206 vvcurveto
          155 -114 62 -135 -49 -63 -13 -23 -64 vhcurveto
          hintmask 1100101110000000
          1 9 2 9 1 10 rrcurveto
          8 -13 12 -7 -6 2 -9 -6 -1 -2 -12 -1 -8 vhcurveto
          -1 -8 -2 -8 -1 -7 rrcurveto
          -135 -57 -131 -104 -132 vvcurveto
          -35 20 -48 40 -28 vhcurveto
          6 7 rlineto
          -36 25 -19 47 28 vvcurveto
          127 118 93 134 49 vhcurveto
          -19 -153 -4 -132 -156 vvcurveto
          -58 vlineto
          hintmask 1011010110000000
          -27 -2 -17 -7 -14 vvcurveto
          -13 19 -6 26 -2 vhcurveto
          1 -30 1 -30 2 -31 -10 6 -9 6 -10 7 rrcurveto
          53 255 rmoveto
          85 0 91 21 194 vhcurveto
          20 62 64 10 56 hhcurveto
          126 84 -77 -116 -211 -150 -124 -168 -32 hvcurveto
          14 -21 -30 9 -35 hhcurveto
          -9 hlineto
          -1 51 1 49 37 vvcurveto
          1 -184 rmoveto
          5 hlineto
          26 28 2 6 27 hvcurveto
          11 -12 6 -17 -19 vvcurveto
          -37 -21 -29 -48 -11 -9 1 3 -9 vhcurveto
          -2 32 -2 35 -1 35 rrcurveto
          33 vmoveto
          10 hlineto
          25 20 -5 -8 15 hvcurveto
          -4 -22 -23 -1 -23 hhcurveto
          -2 hlineto
          -29 1 rmoveto
          -10 1 -8 1 4 vvcurveto
          hintmask 1101001110000000
          4 6 3 11 2 vhcurveto
          -5 1 -5 -5 vvcurveto
          endchar
        </CharString>
        <CharString name="C">
          19 callsubr
          hstem
          11 callgsubr
          vstem
          -87 callgsubr
          endchar
        </CharString>
        <CharString name="Cacute">
          19 callsubr
          56 -21 100 -20 hstemhm
          11 callgsubr
          hintmask 11001100
          -87 callgsubr
          hintmask 00110000
          -182 592 -77 callgsubr
          endchar
        </CharString>
        <CharString name="Ccaron">
          19 callsubr
          56 20 callgsubr
          hstemhm
          11 callgsubr
          hintmask 11000110
          -87 callgsubr
          hintmask 00110000
          -114 679 -103 callsubr
          hintmask 00101000
          -71 callsubr
        </CharString>
        <CharString name="Ccedilla">
          228 -170 25 46 20 35 31 715 33 hstem
          11 callgsubr
          vstem
          518 183 rmoveto
          -88 -19 -57 -108 -138 hhcurveto
          -157 -79 181 157 201 94 176 188 83 50 -58 -69 -37 -14 -36 -15 -21 hvcurveto
          6 -5 rlineto
          16 21 34 50 50 vvcurveto
          77 -58 61 -95 -190 -126 -207 -229 -214 120 -127 129 -2 vhcurveto
          -6 -19 -9 -28 -65 callgsubr
          12 3 13 5 16 vhcurveto
          167 4 51 166 10 54 rrcurveto
          endchar
        </CharString>
        <CharString name="Ccircumflex">
          19 callsubr
          56 -21 95 -20 hstemhm
          11 callgsubr
          hintmask 11001100
          -87 callgsubr
          hintmask 00110000
          -241 591 -106 callgsubr
        </CharString>
        <CharString name="Cdotaccent">
          19 callsubr
          45 48 hstemhm
          11 callgsubr
          hintmask 11011000
          -87 callgsubr
          hintmask 00100000
          -201 623 -75 callsubr
        </CharString>
        <CharString name="D">
          -12 callsubr
          216 -25 25 489 26 hstemhm
          0 25 186 22 73 30 320 32 hintmask 0100111111000000
          306 171 rmoveto
          -53 5 -41 -32 -51 callgsubr
          hintmask 0010111111000000
          -74 callgsubr
          hintmask 1001011111000000
          -88 -432 rmoveto
          hintmask 0011011111000000
          -31 callgsubr
          hintmask 1001011111000000
          -18 -4 -10 -15 -27 hhcurveto
          endchar
        </CharString>
        <CharString name="Dcaron">
          -12 callsubr
          216 -25 25 489 26 55 20 callgsubr
          hstemhm
          0 25 186 22 73 30 320 32 hintmask 0100110001111000
          306 171 rmoveto
          -53 5 -41 -32 -51 callgsubr
          hintmask 0010110001111000
          -74 callgsubr
          hintmask 1001010001111000
          -88 -432 rmoveto
          hintmask 0011010001111000
          -31 callgsubr
          hintmask 1001010001111000
          -18 -4 -10 -15 -27 hhcurveto
          hintmask 0000001100000000
          147 897 -103 callsubr
          hintmask 0000001010000000
          -71 callsubr
        </CharString>
        <CharString name="Dcroat">
          -88 callsubr
        </CharString>
        <CharString name="E">
          -56 callsubr
          -50 callgsubr
          hintmask 11111010
          549 -78 callgsubr
          hintmask 11110110
          -102 callsubr
          vhcurveto
          hintmask 11111010
          -51 callsubr
          hintmask 11110110
          -93 callgsubr
          endchar
        </CharString>
        <CharString name="Eacute">
          -56 callsubr
          56 -21 100 -20 -99 callsubr
          hintmask 0000110000000000
          105 589 -77 callgsubr
          endchar
        </CharString>
        <CharString name="Ebreve">
          -56 callsubr
          45 24 -50 callgsubr
          hintmask 11110101
          549 -78 callgsubr
          hintmask 11110011
          -102 callsubr
          vhcurveto
          hintmask 11110101
          -51 callsubr
          hintmask 11110011
          -93 callgsubr
          hintmask 00001000
          39 661 -98 callgsubr
        </CharString>
        <CharString name="Ecaron">
          -56 callsubr
          56 20 callgsubr
          -50 callgsubr
          hintmask 1111000101000000
          549 -78 callgsubr
          hintmask 1111000011000000
          -102 callsubr
          vhcurveto
          hintmask 1111000101000000
          -51 callsubr
          hintmask 1111000011000000
          -93 callgsubr
          hintmask 0000110000000000
          173 676 -103 callsubr
          hintmask 0000101000000000
          -71 callsubr
        </CharString>
        <CharString name="Ecircumflex">
          -56 callsubr
          56 -21 95 -20 -99 callsubr
          hintmask 0000110000000000
          46 588 -106 callgsubr
        </CharString>
        <CharString name="Edieresis">
          -56 callsubr
          49 44 -50 callgsubr
          hintmask 11110101
          549 -78 callgsubr
          hintmask 11110011
          -102 callsubr
          vhcurveto
          hintmask 11110101
          -51 callsubr
          hintmask 11110011
          -93 callgsubr
          hintmask 00001000
          46 622 -99 callgsubr
        </CharString>
        <CharString name="Edotaccent">
          -56 callsubr
          45 48 -50 callgsubr
          hintmask 11110101
          549 -78 callgsubr
          hintmask 11110011
          -102 callsubr
          vhcurveto
          hintmask 11110101
          -51 callsubr
          hintmask 11110011
          -93 callgsubr
          hintmask 00001000
          86 620 -75 callsubr
        </CharString>
        <CharString name="Egrave">
          -56 callsubr
          56 -21 106 -20 -99 callsubr
          hintmask 0000110000000000
          46 663 rmoveto
          22 -20 33 -25 26 -30 rrcurveto
          -2 1 2 0 2 hhcurveto
          5 6 8 6 2 0 2 -1 1 hvcurveto
          -28 26 -21 28 -29 32 rrcurveto
          1 -1 -1 0 -1 hhcurveto
          -8 -12 -17 -8 -23 callgsubr
          4 hvcurveto
          endchar
        </CharString>
        <CharString name="Emacron">
          -56 callsubr
          60 25 -7 -21 -99 callsubr
          hintmask 0000010000000000
          51 608 rmoveto
          hintmask 0000100000000000
          -84 callgsubr
          hintmask 0000010000000000
          -36 callgsubr
        </CharString>
        <CharString name="Eng">
          253 -206 24 72 34 600 28 218 36 hstem
          466 -28 rmoveto
          -79 -44 -75 -71 -51 -28 40 36 -12 vhcurveto
          2 vlineto
          3 2 4 3 vvcurveto
          2 -1 3 -3 vhcurveto
          -14 -3 -14 -10 -13 vvcurveto
          -59 65 -32 48 98 40 88 113 11 vhcurveto
          203 20 31 572 274 hhcurveto
          77 29 -42 -39 25 hvcurveto
          4 2 rlineto
          31 -10 -35 84 -92 hhcurveto
          -255 -59 -532 -220 -22 hvcurveto
          -8 107 -28 226 -93 106 6 22 4 17 2 11 rrcurveto
          -2 -14 1 -19 -6 hvcurveto
          -1 -4 -3 -7 -1 -6 rrcurveto
          27 -29 -34 17 -41 hhcurveto
          -58 -61 -37 -79 -59 55 -38 13 -7 hvcurveto
          4 5 rlineto
          -19 12 -35 29 52 vvcurveto
          49 37 45 65 35 31 -19 -31 27 vhcurveto
          -157 -43 -111 -393 -144 hhcurveto
          -55 -21 22 13 -12 hvcurveto
          -4 -3 rlineto
          -10 5 24 -56 62 hhcurveto
          134 128 381 185 52 hvcurveto
          87 -122 39 -253 -109 vvcurveto
          endchar
        </CharString>
        <CharString name="Eogonek">
          199 -122 22 65 33 76 29 83 26 492 33 -34 callgsubr
          -21 21 214 28 hintmask 1111110110000000
          549 -78 callgsubr
          hintmask 1111101010000000
          -102 callsubr
          vhcurveto
          hintmask 1111110110000000
          -51 callsubr
          hintmask 1111101010000000
          -131 73 -99 127 -17 vhcurveto
          -74 1 41 -38 66 hhcurveto
          24 24 6 9 22 hvcurveto
          hintmask 1111110110000000
          -20 -22 -13 -21 -21 -70 callgsubr
          -22 -9 -21 hhcurveto
          -17 -10 13 11 26 21 33 22 13 hvcurveto
          75 46 55 81 15 23 rrcurveto
          -241 40 rmoveto
          17 20 -8 -19 -39 -59 -17 -45 -9 -9 0 1 -9 hvcurveto
          47 8 32 35 54 hhcurveto
          endchar
        </CharString>
        <CharString name="Eth">
          -88 callsubr
        </CharString>
        <CharString name="Euro">
          118 76 27 146 27 45 26 155 29 hstem
          393 24 vstem
          136 250 rmoveto
          24 24 1 -2 23 hvcurveto
          5 8 17 6 5 -62 -1 -10 -22 -20 0 -1 -20 hvcurveto
          13 vlineto
          11 0 10 1 11 vhcurveto
          22 21 1 24 hhcurveto
          26 27 1 -2 26 hvcurveto
          5 9 17 6 5 -69 -1 -11 hvcurveto
          -27 -24 -1 -25 hhcurveto
          86 17 58 70 114 hhcurveto
          61 52 -2 callsubr
          -59 51 -72 -106 -81 -84 -102 -27 vhcurveto
          -57 hlineto
          -4 -9 -13 -8 -3 4 -1 0 hvcurveto
          60 hlineto
          -2 -15 -2 -15 -16 vvcurveto
          -50 hlineto
          -4 -8 -13 -8 -3 4 -1 0 hvcurveto
          59 hlineto
          -109 10 88 -64 91 hhcurveto
          121 36 108 34 7 hvcurveto
          -8 2 rlineto
          -53 -14 -38 -64 -94 hhcurveto
          -101 -57 72 75 -14 hvcurveto
          endchar
        </CharString>
        <CharString name="F">
          222 -29 24 173 21 399 31 70 27 hstem
          633 28 vstem
          409 190 rmoveto
          -5 hlineto
          24 128 21 159 41 103 rrcurveto
          100 6 71 49 44 vvcurveto
          19 -13 18 -37 -52 -42 -43 -65 -34 vhcurveto
          -12 hlineto
          -36 -68 11 -67 hhcurveto
          -167 -133 -116 -167 -76 24 -46 17 -19 hvcurveto
          6 6 rlineto
          -16 19 -19 38 71 vvcurveto
          175 133 84 158 vhcurveto
          59 69 -8 38 hhcurveto
          -34 -75 -24 -97 -17 -99 -8 -46 -7 -39 -7 -35 rrcurveto
          -1 -64 -53 -4 -21 hhcurveto
          -17 -10 -13 -8 -4 1 -2 4 hvcurveto
          2 12 3 8 hhcurveto
          5 49 42 3 43 hhcurveto
          -130 -26 -23 -43 -70 hhcurveto
          -32 -33 18 56 -23 hvcurveto
          -6 -3 rlineto
          -38 13 33 -57 65 hhcurveto
          88 26 97 95 19 hvcurveto
          2 0 1 1 2 vhcurveto
          23 23 0 -1 26 hvcurveto
          8 3 5 8 11 -67 -1 -7 hvcurveto
          188 499 rmoveto
          21 15 -7 -13 -20 -21 -35 -110 -6 hvcurveto
          49 24 30 32 41 hhcurveto
          endchar
        </CharString>
        <CharString name="G">
          -32 callsubr
          -26 callgsubr
          hintmask 1111101110000000
          -81 callgsubr
          hintmask 1111110110000000
          -86 callsubr
          hintmask 1111101110000000
          -35 callsubr
          hintmask 1111110110000000
          -69 callsubr
          endchar
        </CharString>
        <CharString name="Gbreve">
          -32 callsubr
          -14 24 -26 callgsubr
          hintmask 1111010111000000
          -81 callgsubr
          hintmask 1111011011000000
          -86 callsubr
          hintmask 1111010111000000
          -35 callsubr
          hintmask 1111011011000000
          -69 callsubr
          hintmask 0000100000000000
          -69 542 -98 callgsubr
        </CharString>
        <CharString name="Gcircumflex">
          -32 callsubr
          -3 -21 95 -20 -26 callgsubr
          hintmask 1111001011100000
          -81 callgsubr
          hintmask 1111001101100000
          -86 callsubr
          hintmask 1111001011100000
          -35 callsubr
          hintmask 1111001101100000
          -69 callsubr
          hintmask 0000110000000000
          -62 469 -106 callgsubr
        </CharString>
        <CharString name="Gcommaaccent">
          117 -206 33 132 -20 61 29 417 23 245 29 hstemhm
          30 30 68 45 109 30 -11 29 15 22 291 28 hintmask 1011110011100000
          -81 callgsubr
          hintmask 1011110101100000
          -86 callsubr
          hintmask 1011110011100000
          -35 callsubr
          hintmask 1011110101100000
          -69 callsubr
          hintmask 0100001000000000
          -161 -293 -95 callgsubr
        </CharString>
        <CharString name="Gdotaccent">
          -32 callsubr
          -14 48 -26 callgsubr
          hintmask 1111010111000000
          -81 callgsubr
          hintmask 1111011011000000
          -86 callsubr
          hintmask 1111010111000000
          -35 callsubr
          hintmask 1111011011000000
          -69 callsubr
          hintmask 0000100000000000
          -22 501 -75 callsubr
        </CharString>
        <CharString name="H">
          17 callsubr
          22 553 -20 hstemhm
          -12 166 -60 36 -9 33 218 31 -31 105 -78 42 hintmask 1111001000000000
          449 180 rmoveto
          -46 hlineto
          hintmask 1111000010000000
          6 236 32 207 74 1 callsubr
          hintmask 1111001000000000
          -7 callsubr
          hintmask 1110101000000000
          220 -24 52 185 -18 callsubr
          hintmask 1110011000000000
          16 callsubr
          hintmask 1111001000000000
          -17 callgsubr
          hintmask 1110010100000000
          -72 callsubr
          29 35 -4 23 6 -13 0 -15 hvcurveto
          endchar
        </CharString>
        <CharString name="Hbar">
          17 callsubr
          25 165 26 359 -20 hstemhm
          -12 165 -59 36 -20 43 227 22 -22 31 -31 61 -61 97 hintmask 1111010100000000
          403 684 rmoveto
          -8 -13 -138 -10 -162 vhcurveto
          -58 -93 -1 -1 -81 hvcurveto
          -7 95 -11 64 124 -18 callsubr
          hintmask 1111001100000000
          -112 9 -94 7 -93 vhcurveto
          -80 hlineto
          -3 -6 -15 -8 -3 3 -1 0 28 29 0 1 31 hvcurveto
          4 -54 4 -54 1 -57 rrcurveto
          -18 hlineto
          hintmask 1111100100000000
          -17 callgsubr
          -72 callsubr
          hintmask 1111100000100000
          29 35 -4 23 6 -13 0 -15 hvcurveto
          -46 hlineto
          hintmask 1111100010000000
          1 59 3 58 4 54 rrcurveto
          53 hlineto
          4 8 6 15 5 -47 -1 -15 hvcurveto
          -1 hlineto
          hintmask 1111100001000000
          12 149 16 119 53 1 callsubr
          -9 4 -12 -6 vvcurveto
          -24 -333 rmoveto
          -3 -57 -2 -58 -2 -56 rrcurveto
          -70 -80 2 1 -68 hvcurveto
          17 vlineto
          60 -2 47 -2 41 vhcurveto
          75 1 79 1 75 1 rrcurveto
          endchar
        </CharString>
        <CharString name="Hcircumflex">
          17 callsubr
          22 553 -20 59 -21 95 -20 hstemhm
          -12 166 -60 36 -9 33 218 31 -31 105 -78 42 hintmask 1110010010000000
          449 180 rmoveto
          -46 hlineto
          hintmask 1110010000100000
          6 236 32 207 74 1 callsubr
          hintmask 1110010010000000
          -7 callsubr
          hintmask 1110001010000000
          220 -24 52 185 -18 callsubr
          hintmask 1110000110000000
          16 callsubr
          hintmask 1110010010000000
          -17 callgsubr
          hintmask 1110000101000000
          -72 callsubr
          29 35 -4 23 6 -13 0 -15 hvcurveto
          hintmask 0001100000000000
          -237 573 -106 callgsubr
        </CharString>
        <CharString name="I">
          -50 callsubr
          hstem
          0 31 vstem
          -107 callsubr
          endchar
        </CharString>
        <CharString name="IJ">
          501 -157 23 110 63 86 26 123 29 379 23 10 -20 hstemhm
          0 31 395 31 hintmask 01010110
          -107 callsubr
          hintmask 10101001
          19 -744 -89 callgsubr
          endchar
        </CharString>
        <CharString name="Iacute">
          -50 callsubr
          37 -21 100 -20 hstemhm
          0 31 hintmask 11100100
          -107 callsubr
          hintmask 00011000
          -179 15 -77 callgsubr
          endchar
        </CharString>
        <CharString name="Ibreve">
          -50 callsubr
          26 24 hstemhm
          0 31 hintmask 11101000
          -107 callsubr
          hintmask 00010000
          -245 87 -98 callgsubr
        </CharString>
        <CharString name="Icircumflex">
          -50 callsubr
          37 -21 95 -20 hstemhm
          0 31 hintmask 11100100
          -107 callsubr
          hintmask 00011000
          -238 14 -106 callgsubr
        </CharString>
        <CharString name="Idieresis">
          -50 callsubr
          30 44 hstemhm
          0 31 hintmask 11101000
          -107 callsubr
          hintmask 00010000
          -238 48 -99 callgsubr
        </CharString>
        <CharString name="Idotaccent">
          -50 callsubr
          26 48 hstemhm
          0 31 hintmask 11101000
          -107 callsubr
          hintmask 00010000
          -198 46 -75 callsubr
        </CharString>
        <CharString name="Igrave">
          -50 callsubr
          37 -21 106 -20 hstemhm
          0 31 hintmask 11100100
          -107 callsubr
          hintmask 00011000
          -238 89 rmoveto
          22 -20 33 -25 26 -30 rrcurveto
          -2 1 2 0 2 hhcurveto
          5 6 8 6 2 0 2 -1 1 hvcurveto
          -28 26 -21 28 -29 32 rrcurveto
          1 -1 -1 0 -1 hhcurveto
          -8 -12 -17 -8 -23 callgsubr
          4 hvcurveto
          endchar
        </CharString>
        <CharString name="Imacron">
          -50 callsubr
          41 25 -7 -21 hstemhm
          0 31 hintmask 11100100
          -107 callsubr
          hintmask 00001000
          -233 34 rmoveto
          hintmask 00010000
          -84 callgsubr
          hintmask 00001000
          -36 callgsubr
        </CharString>
        <CharString name="Iogonek">
          107 -127 23 80 63 235 29 412 -20 hstem
          0 31 155 22 vstem
          321 28 rmoveto
          -9 2 -9 2 -8 2 85 133 -49 327 44 141 rrcurveto
          58 7 43 10 35 vvcurveto
          18 -14 10 -12 -39 -27 -20 -34 -19 vhcurveto
          -132 -22 -233 -31 -212 vvcurveto
          -57 39 -65 74 65 34 59 20 12 vhcurveto
          -5 3 rlineto
          -17 -14 -24 -36 -56 hhcurveto
          -63 -31 56 55 197 190 9 131 13 hvcurveto
          -56 -153 48 -324 -74 -119 rrcurveto
          1 -9 -10 1 -10 hhcurveto
          -56 -33 -21 -18 -13 12 -11 28 11 10 1 3 10 hvcurveto
          -21 -22 -16 -24 -23 -70 callgsubr
          -22 -8 -21 hhcurveto
          -17 -10 10 13 24 21 31 21 15 hvcurveto
          15 10 14 12 11 16 10 -2 9 -2 10 -2 rrcurveto
          -80 -16 rmoveto
          -8 -13 -12 -2 -11 hhcurveto
          -14 -6 5 7 10 13 13 49 7 6 0 -1 6 hvcurveto
          -7 -10 -9 -8 -9 -6 rrcurveto
          208 694 rmoveto
          2 7 0 -5 -15 -28 -7 -41 -7 hvcurveto
          24 14 20 10 26 hhcurveto
          endchar
        </CharString>
        <CharString name="Itilde">
          -50 callsubr
          26 5 callsubr
          0 31 hintmask 11100010
          -107 callsubr
          hintmask 00010100
          -246 34 -98 callsubr
          hintmask 00001100
          -64 callgsubr
        </CharString>
        <CharString name="J">
          21 callgsubr
          hstem
          0 31 vstem
          40 -45 -89 callgsubr
          endchar
        </CharString>
        <CharString name="Jcircumflex">
          21 callgsubr
          5 -21 95 -20 hstemhm
          0 31 hintmask 11100100
          40 -45 -89 callgsubr
          hintmask 00011000
          -210 9 -106 callgsubr
        </CharString>
        <CharString name="K">
          95 -50 29 743 34 hstemhm
          0 82 -27 27 642 30 hintmask 11011000
          -69 callgsubr
          hintmask 11101000
          -38 callgsubr
          hintmask 11011000
          0 callsubr
          endchar
        </CharString>
        <CharString name="Kcommaaccent">
          95 -56 -20 26 29 743 34 hstemhm
          0 82 -27 27 35 45 562 30 hintmask 01101010
          -69 callgsubr
          hintmask 01110010
          -38 callgsubr
          hintmask 01101010
          0 callsubr
          hintmask 10000100
          109 -123 -95 callgsubr
        </CharString>
        <CharString name="L">
          47 -33 -4 callsubr
          432 27 hintmask 10101100
          -82 callgsubr
          hintmask 01101100
          -77 callsubr
          hintmask 10110100
          120 -72 96 124 -82 callsubr
          endchar
        </CharString>
        <CharString name="Lacute">
          47 -33 78 -65 -21 775 29 55 -21 100 -20 11 callsubr
          432 27 hintmask 10100011
          -82 callgsubr
          hintmask 01100011
          -77 callsubr
          hintmask 10100101
          120 -72 96 124 -82 callsubr
          hintmask 00011000
          297 807 -77 callgsubr
          endchar
        </CharString>
        <CharString name="Lcaron">
          47 -33 78 -65 -21 678 -20 117 29 11 callsubr
          432 27 44 52 hintmask 10010110
          -82 callgsubr
          hintmask 01010110
          -77 callsubr
          hintmask 10011010
          120 -72 96 124 -82 callsubr
          hintmask 00100001
          591 644 rmoveto
          -27 callsubr
        </CharString>
        <CharString name="Lcommaaccent">
          47 -74 -20 61 -4 callsubr
          -2 45 389 27 hintmask 01010101
          -82 callgsubr
          hintmask 00110101
          -77 callsubr
          hintmask 01011001
          120 -72 96 124 -82 callsubr
          hintmask 10000010
          82 -67 -95 callgsubr
        </CharString>
        <CharString name="Ldot">
          47 -33 78 -65 -21 273 -21 59 -20 484 29 11 callsubr
          149 51 232 27 hintmask 1000101010000000
          -82 callgsubr
          hintmask 0100101010000000
          -77 callsubr
          hintmask 1000110010000000
          120 -72 96 124 -82 callsubr
          hintmask 0011000100000000
          238 277 rmoveto
          -76 callgsubr
          endchar
        </CharString>
        <CharString name="Lslash">
          47 -33 -4 callsubr
          432 27 hintmask 10101100
          471 460 rmoveto
          54 38 41 47 66 vvcurveto
          86 -63 66 -123 -196 -183 -182 -193 -87 43 -78 26 -75 vhcurveto
          -25 -13 -26 -13 -17 -8 -2 -1 -2 -5 1 -5 rrcurveto
          -6 4 -7 2 2 vhcurveto
          22 11 24 14 25 14 rrcurveto
          9 -27 6 -27 -27 -3 -1 -4 -4 vvcurveto
          4 -12 -11 2 -11 hhcurveto
          -27 -29 -20 -28 -14 13 -16 23 26 20 19 23 12 hvcurveto
          hintmask 01101100
          -77 callsubr
          27 -4 27 -6 26 vhcurveto
          37 21 37 21 34 17 rrcurveto
          2 1 4 3 5 vvcurveto
          1 -1 2 -2 vhcurveto
          -10 -1 -60 -30 -7 -4 -10 -5 -14 -7 -14 -8 rrcurveto
          hintmask 10110100
          -21 80 -37 74 90 -82 callsubr
          endchar
        </CharString>
        <CharString name="M">
          499 -59 39 -7 38 713 -20 hstemhm
          651 33 hintmask 10110000
          815 79 rmoveto
          -27 -13 -48 -72 -25 hhcurveto
          -29 -16 77 50 204 66 224 48 176 hvcurveto
          6 -7 4 -5 3 vhcurveto
          -84 -228 -537 -18 hhcurveto
          116 -11 8 257 -55 hhcurveto
          -15 -7 -14 -6 -2 hvcurveto
          1 -10 2 -13 -9 vvcurveto
          hintmask 01110000
          -159 3 -110 -338 -172 hhcurveto
          -37 -40 10 38 -16 hvcurveto
          -5 -2 rlineto
          -25 7 18 -59 67 hhcurveto
          196 105 399 130 18 -1 13 0 hvcurveto
          21 -27 4 -218 10 -116 rrcurveto
          -11 1 3 -7 10 hhcurveto
          18 16 26 12 6 hvcurveto
          172 94 147 318 41 hhcurveto
          -55 -189 -57 -192 -202 vvcurveto
          hintmask 10110000
          -65 16 -93 46 46 55 115 21 6 vhcurveto
          endchar
        </CharString>
        <CharString name="N">
          -1 callgsubr
          218 36 hstem
          -102 callgsubr
          endchar
        </CharString>
        <CharString name="Nacute">
          -1 callgsubr
          69 -21 100 -20 90 36 hstemhm
          hintmask 11001000
          -102 callgsubr
          hintmask 00110000
          -486 -86 -77 callgsubr
          endchar
        </CharString>
        <CharString name="Ncaron">
          -1 callgsubr
          69 20 callgsubr
          96 36 hstemhm
          hintmask 11000100
          -102 callgsubr
          hintmask 00110000
          -418 1 -103 callsubr
          hintmask 00101000
          -71 callsubr
        </CharString>
        <CharString name="Ncommaaccent">
          318 -110 34 48 -20 572 28 218 36 hstemhm
          364 45 hintmask 10110000
          -102 callgsubr
          hintmask 01001000
          -626 -717 -95 callgsubr
        </CharString>
        <CharString name="Ntilde">
          -1 callgsubr
          58 -21 callgsubr
          92 36 hstemhm
          hintmask 11000100
          -102 callgsubr
          hintmask 00101000
          -553 -67 -98 callsubr
          hintmask 00011000
          -64 callgsubr
        </CharString>
        <CharString name="O">
          -22 callsubr
          hstem
          -48 callgsubr
          vstem
          -105 callsubr
          endchar
        </CharString>
        <CharString name="OE">
          732 -35 33 76 29 83 26 492 33 -20 32 -41 callsubr
          -25 225 -18 166 214 28 hintmask 1111011010100000
          1082 -78 callgsubr
          hintmask 1111011101100000
          -102 callsubr
          -189 -192 -145 -174 -54 vhcurveto
          56 -5 -10 60 -12 hhcurveto
          -10 -17 -16 -7 hvcurveto
          -5 7 -1 -1 vvcurveto
          16 -58 10 -66 -67 vvcurveto
          -133 -70 -182 -162 -166 -61 211 137 vhcurveto
          hintmask 1110111101100000
          156 71 215 197 80 66 -64 -69 2 callgsubr
          66 -50 80 -104 -211 -104 -232 -191 -175 73 -186 172 157 76 149 137 25 vhcurveto
          22 -93 68 -67 102 -14 rrcurveto
          -87 callsubr
          endchar
        </CharString>
        <CharString name="Oacute">
          -22 callsubr
          55 -21 100 -20 -41 callsubr
          hintmask 11001110
          -105 callsubr
          hintmask 00110000
          48 788 -77 callgsubr
          endchar
        </CharString>
        <CharString name="Obreve">
          -22 callsubr
          44 24 -41 callsubr
          hintmask 11011100
          -105 callsubr
          hintmask 00100000
          -18 860 -98 callgsubr
        </CharString>
        <CharString name="Ocircumflex">
          -22 callsubr
          55 -21 95 -20 -41 callsubr
          hintmask 11001110
          -105 callsubr
          hintmask 00110000
          -11 787 -106 callgsubr
        </CharString>
        <CharString name="Odieresis">
          -22 callsubr
          48 44 -41 callsubr
          hintmask 11011100
          -105 callsubr
          hintmask 00100000
          -11 821 -99 callgsubr
        </CharString>
        <CharString name="Ograve">
          -22 callsubr
          55 -21 106 -20 -41 callsubr
          hintmask 11001110
          -105 callsubr
          hintmask 00110000
          -11 862 rmoveto
          22 -20 33 -25 26 -30 rrcurveto
          -2 1 2 0 2 hhcurveto
          5 6 8 6 2 0 2 -1 1 hvcurveto
          -28 26 -21 28 -29 32 rrcurveto
          1 -1 -1 0 -1 hhcurveto
          -8 -12 -17 -8 -23 callgsubr
          4 hvcurveto
          endchar
        </CharString>
        <CharString name="Ohungarumlaut">
          -22 callsubr
          55 -21 100 -20 -41 callsubr
          hintmask 11001110
          -105 callsubr
          hintmask 00110000
          -7 788 -77 callgsubr
          90 hmoveto
          -107 callgsubr
          endchar
        </CharString>
        <CharString name="Omacron">
          -22 callsubr
          59 25 -7 -21 -41 callsubr
          hintmask 11001110
          -105 callsubr
          hintmask 00010000
          -6 807 rmoveto
          hintmask 00100000
          -84 callgsubr
          hintmask 00010000
          -36 callgsubr
        </CharString>
        <CharString name="Oslash">
          -22 callsubr
          51 -20 hstem
          -48 callgsubr
          vstem
          -80 callsubr
          endchar
        </CharString>
        <CharString name="Oslashacute">
          -22 callsubr
          51 -20 24 -21 100 -20 -41 callsubr
          hintmask 11100111
          -80 callsubr
          hintmask 00011000
          267 440 -77 callgsubr
          endchar
        </CharString>
        <CharString name="Otilde">
          -22 callsubr
          44 24 -5 -21 43 27 -41 callsubr
          hintmask 11000111
          -105 callsubr
          hintmask 00101000
          -19 807 -98 callsubr
          hintmask 00011000
          -64 callgsubr
        </CharString>
        <CharString name="P">
          244 -39 42 206 31 464 38 hstem
          36 27 92 33 332 33 vstem
          163 670 rmoveto
          -49 -2 -72 -4 -77 vhcurveto
          -71 -125 -50 -144 -107 vvcurveto
          -44 2 -91 45 68 28 323 217 9 vhcurveto
          118 73 93 85 85 hhcurveto
          62 19 -66 -61 -119 -70 -218 -11 callgsubr
          251 141 107 -41 34 -62 -83 -98 -94 -123 -80 hvcurveto
          3 75 1 60 -1 24 -14 callsubr
          46 47 112 37 127 55 109 hvcurveto
          -205 -12 -25 -236 -33 hhcurveto
          endchar
        </CharString>
        <CharString name="Q">
          160 -49 30 0 63 -23 23 640 34 hstemhm
          0 22 492 35 hintmask 01011100
          479 73 rmoveto
          -28 -16 -25 -64 -87 hhcurveto
          -40 -43 26 19 -42 hvcurveto
          134 100 189 247 168 vvcurveto
          129 -79 48 -92 -171 -207 -150 -140 -56 36 -40 35 -18 vhcurveto
          3 4 rlineto
          -23 15 -29 34 63 vvcurveto
          124 159 130 187 82 64 -58 -96 -173 -180 -237 -123 -88 vhcurveto
          7 -18 -18 5 -17 hhcurveto
          -36 -27 -17 -21 -19 20 -6 17 17 24 9 16 26 hvcurveto
          hintmask 10111100
          -20 46 56 -35 43 hhcurveto
          80 53 101 18 6 hvcurveto
          -350 -73 rmoveto
          -8 -10 2 7 9 13 6 21 9 12 -3 -5 12 hvcurveto
          -10 -19 -17 -6 -13 hhcurveto
          endchar
        </CharString>
        <CharString name="R">
          316 -53 30 711 37 49 -10 callsubr
          hintmask 11110010
          -84 callsubr
          hintmask 11100110
          3 callsubr
          hintmask 11101010
          -76 callsubr
          hintmask 11100110
          -61 callgsubr
          hintmask 11110010
          14 callgsubr
          hintmask 11100110
          -62 callgsubr
          endchar
        </CharString>
        <CharString name="Racute">
          316 -53 30 711 37 49 -20 28 -21 100 -10 callsubr
          hintmask 1110010010000000
          -84 callsubr
          hintmask 1110000110000000
          3 callsubr
          hintmask 1110001010000000
          -76 callsubr
          hintmask 1110000110000000
          -61 callgsubr
          hintmask 1110010010000000
          14 callgsubr
          hintmask 1110000110000000
          -62 callgsubr
          hintmask 0001100000000000
          100 652 -77 callgsubr
          endchar
        </CharString>
        <CharString name="Rcaron">
          316 -53 30 711 37 49 -20 28 -21 93 -20 21 -10 callsubr
          hintmask 1110001001000000
          -84 callsubr
          hintmask 1110000011000000
          3 callsubr
          hintmask 1110000101000000
          -76 callsubr
          hintmask 1110000011000000
          -61 callgsubr
          hintmask 1110001001000000
          14 callgsubr
          hintmask 1110000011000000
          -62 callgsubr
          hintmask 0001100000000000
          168 739 -103 callsubr
          hintmask 0001010000000000
          -71 callsubr
        </CharString>
        <CharString name="Rcommaaccent">
          316 -53 30 -18 -20 749 37 49 3 callgsubr
          43 45 247 33 hintmask 1011100010000000
          -84 callsubr
          hintmask 1011001010000000
          3 callsubr
          hintmask 1011010010000000
          -76 callsubr
          hintmask 1011001010000000
          -61 callgsubr
          hintmask 1011100010000000
          14 callgsubr
          hintmask 1011001010000000
          -62 callgsubr
          hintmask 0100000100000000
          42 -153 -95 callgsubr
        </CharString>
        <CharString name="S">
          4 callsubr
          hstem
          579 23 vstem
          258 -36 rmoveto
          33 119 25 112 hvcurveto
          -91 callgsubr
          endchar
        </CharString>
        <CharString name="Sacute">
          4 callsubr
          55 -21 100 -20 hstemhm
          579 23 hintmask 11001000
          258 -36 rmoveto
          33 119 25 112 hvcurveto
          -91 callgsubr
          hintmask 00110000
          157 774 -77 callgsubr
          endchar
        </CharString>
        <CharString name="Scaron">
          4 callsubr
          55 20 callgsubr
          hstemhm
          579 23 hintmask 11000100
          258 -36 rmoveto
          33 119 25 112 hvcurveto
          -91 callgsubr
          hintmask 00110000
          225 861 -103 callsubr
          hintmask 00101000
          -71 callsubr
        </CharString>
        <CharString name="Scedilla">
          143 -156 25 46 20 29 33 667 37 hstem
          315 95 169 23 vstem
          258 -36 rmoveto
          3 5 1 5 hhcurveto
          -6 -18 -7 -25 -8 -64 callsubr
          11 3 12 4 14 vhcurveto
          47 9 81 32 93 -91 callgsubr
          endchar
        </CharString>
        <CharString name="Scircumflex">
          4 callsubr
          55 -21 95 -20 hstemhm
          579 23 hintmask 11001000
          258 -36 rmoveto
          33 119 25 112 hvcurveto
          -91 callgsubr
          hintmask 00110000
          98 773 -106 callgsubr
        </CharString>
        <CharString name="T">
          313 -24 -5 callsubr
          hstem
          0 24 483 41 vstem
          -85 callgsubr
          endchar
        </CharString>
        <CharString name="Tbar">
          313 -24 -21 276 29 -29 159 -18 201 -33 33 72 35 48 -20 hstemhm
          0 24 486 32 hintmask 1101011110000000
          794 653 rmoveto
          12 -9 14 -11 -21 vvcurveto
          -26 -28 -13 -25 -75 -67 32 29 -76 vhcurveto
          88 vlineto
          4 -4 2 -5 -12 -18 -9 -18 vhcurveto
          -53 vlineto
          18 -52 -57 14 -65 hhcurveto
          -164 -172 -96 -186 -101 61 -66 90 105 47 89 26 13 hvcurveto
          -7 4 rlineto
          -29 -18 -34 -61 -91 hhcurveto
          -105 -37 78 65 177 129 65 184 63 57 -15 -18 52 hvcurveto
          -29 -1 -28 -1 -32 vhcurveto
          hintmask 1010111110000000
          -1 -46 -1 -44 -1 -43 rrcurveto
          -116 hlineto
          -22 callgsubr
          hvcurveto
          hintmask 1101011110000000
          31 45 2 1 45 hvcurveto
          -3 -136 -4 -129 -17 -138 rrcurveto
          -3 vlineto
          -6 3 -5 5 6 8 8 22 8 vhcurveto
          17 124 10 129 6 135 rrcurveto
          30 28 1 25 hhcurveto
          21 hlineto
          4 7 8 6 3 -40 1 -26 hvcurveto
          -1 -21 -1 -26 hhcurveto
          2 67 2 68 1 71 rrcurveto
          hintmask 1100111110000000
          -28 72 66 -29 68 hhcurveto
          55 23 30 34 29 -24 18 -11 7 hvcurveto
          endchar
        </CharString>
        <CharString name="Tcaron">
          313 -24 -5 callsubr
          75 20 callgsubr
          hstemhm
          0 24 483 41 hintmask 1111100011000000
          -85 callgsubr
          hintmask 0000011000000000
          -204 194 -103 callsubr
          hintmask 0000010100000000
          -71 callsubr
        </CharString>
        <CharString name="Tcommaaccent">
          313 -110 -20 106 -5 callsubr
          hstemhm
          0 24 436 45 2 41 hintmask 0111111010000000
          -85 callgsubr
          hintmask 1000000100000000
          -314 -768 -95 callgsubr
        </CharString>
        <CharString name="Thorn">
          234 -39 42 145 31 376 38 96 -20 hstem
          36 27 85 34 338 33 vstem
          163 670 rmoveto
          -72 -5 -118 -8 -116 vhcurveto
          -67 -99 -47 -111 -84 vvcurveto
          -35 2 -74 45 57 29 226 201 13 vhcurveto
          96 73 96 71 88 hhcurveto
          62 19 -53 -50 -96 -70 -177 -11 callgsubr
          210 117 90 -41 28 -62 -85 -101 -79 -104 -81 hvcurveto
          8 126 2 113 -1 35 -14 callsubr
          36 37 85 34 94 51 83 hvcurveto
          -172 -13 -23 -163 -27 hhcurveto
          endchar
        </CharString>
        <CharString name="U">
          -61 callsubr
          hstemhm
          0 250 -37 37 51 34 191 34 hintmask 11101011
          -104 callsubr
          hintmask 11011011
          -96 callsubr
          hintmask 11100111
          -97 callgsubr
          endchar
        </CharString>
        <CharString name="Uacute">
          -61 callsubr
          39 -21 100 -20 -105 callgsubr
          hintmask 0000110000000000
          -159 582 -77 callgsubr
          endchar
        </CharString>
        <CharString name="Ubreve">
          -61 callsubr
          28 24 hstemhm
          0 250 -37 37 51 34 191 34 hintmask 1110010110000000
          -104 callsubr
          hintmask 1101010110000000
          -96 callsubr
          hintmask 1110001110000000
          -97 callgsubr
          hintmask 0000100000000000
          -225 654 -98 callgsubr
        </CharString>
        <CharString name="Ucircumflex">
          -61 callsubr
          39 -21 95 -20 -105 callgsubr
          hintmask 0000110000000000
          -218 581 -106 callgsubr
        </CharString>
        <CharString name="Udieresis">
          -61 callsubr
          32 44 hstemhm
          0 250 -37 37 51 34 191 34 hintmask 1110010110000000
          -104 callsubr
          hintmask 1101010110000000
          -96 callsubr
          hintmask 1110001110000000
          -97 callgsubr
          hintmask 0000100000000000
          -218 615 -99 callgsubr
        </CharString>
        <CharString name="Ugrave">
          -61 callsubr
          39 -21 106 -20 -105 callgsubr
          hintmask 0000110000000000
          -218 656 rmoveto
          22 -20 33 -25 26 -30 rrcurveto
          -2 1 2 0 2 hhcurveto
          5 6 8 6 2 0 2 -1 1 hvcurveto
          -28 26 -21 28 -29 32 rrcurveto
          1 -1 -1 0 -1 hhcurveto
          -8 -12 -17 -8 -23 callgsubr
          4 hvcurveto
          endchar
        </CharString>
        <CharString name="Uhungarumlaut">
          -61 callsubr
          39 -21 100 -20 -105 callgsubr
          hintmask 0000110000000000
          -214 582 -77 callgsubr
          90 hmoveto
          -107 callgsubr
          endchar
        </CharString>
        <CharString name="Umacron">
          -61 callsubr
          43 25 -7 -21 -105 callgsubr
          hintmask 0000010000000000
          -213 601 rmoveto
          hintmask 0000100000000000
          -84 callgsubr
          hintmask 0000010000000000
          -36 callgsubr
        </CharString>
        <CharString name="Uogonek">
          339 -122 23 55 31 468 23 165 32 -7 32 hstemhm
          0 250 -37 37 51 34 191 34 hintmask 1111010110000000
          -104 callsubr
          hintmask 1110110110000000
          -96 callsubr
          hintmask 1111001110000000
          -142 -88 -174 -125 vvcurveto
          -127 82 -42 70 75 62 39 43 45 vhcurveto
          6 -27 6 -19 6 -8 rrcurveto
          -20 -21 -16 -25 -22 -70 callgsubr
          -22 -8 -21 hhcurveto
          -17 -10 12 11 17 13 24 17 17 hvcurveto
          7 7 11 9 6 vvcurveto
          -36 callsubr
          -1 vhcurveto
          -2 hlineto
          -6 18 -5 23 -4 25 23 28 16 25 9 14 rrcurveto
          endchar
        </CharString>
        <CharString name="Uring">
          -61 callsubr
          18 145 hstemhm
          0 250 -37 37 51 34 68 147 -24 34 -30 20 hintmask 1110010101000000
          -104 callsubr
          hintmask 1101010101000000
          -96 callsubr
          hintmask 1110001101000000
          -97 callgsubr
          hintmask 0000100010000000
          -225 645 -63 callgsubr
          hintmask 0000100000100000
          -45 callgsubr
        </CharString>
        <CharString name="Utilde">
          -61 callsubr
          28 5 callsubr
          0 250 -37 37 51 34 191 34 hintmask 1110000101100000
          -104 callsubr
          hintmask 1101000101100000
          -96 callsubr
          hintmask 1110000011100000
          -97 callgsubr
          hintmask 0000101000000000
          -226 601 -98 callsubr
          hintmask 0000011000000000
          -64 callgsubr
        </CharString>
        <CharString name="V">
          87 501 27 215 31 hstem
          661 645 rmoveto
          5 7 20 30 29 vvcurveto
          42 -33 21 -34 -227 -88 -485 -270 -41 vhcurveto
          113 -16 -33 396 -138 hhcurveto
          -44 -32 -32 -39 -22 11 -23 24 -11 hvcurveto
          2 2 rlineto
          -15 13 -7 13 20 vvcurveto
          33 24 19 32 112 40 -375 -173 17 vhcurveto
          1 -7 6 -2 13 7 19 10 -1 20 1 9 rrcurveto
          272 33 85 481 221 hhcurveto
          33 16 -18 -27 -21 -5 -18 -4 -12 hvcurveto
          endchar
        </CharString>
        <CharString name="W">
          -21 callsubr
          234 -41 callgsubr
          hintmask 1101011110000000
          192 33 rmoveto
          hintmask 1101100110000000
          -71 callgsubr
          hintmask 1011011110000000
          -101 callgsubr
          endchar
        </CharString>
        <CharString name="Wacute">
          -21 callsubr
          74 -21 100 -20 101 -41 callgsubr
          hintmask 1100010111100000
          192 33 rmoveto
          hintmask 1100011001100000
          -71 callgsubr
          hintmask 1010010111100000
          -101 callgsubr
          hintmask 0001100000000000
          29 174 -77 callgsubr
          endchar
        </CharString>
        <CharString name="Wcircumflex">
          -21 callsubr
          74 -21 95 -20 106 -41 callgsubr
          hintmask 1100010111100000
          192 33 rmoveto
          hintmask 1100011001100000
          -71 callgsubr
          hintmask 1010010111100000
          -101 callgsubr
          hintmask 0001100000000000
          -30 173 -106 callgsubr
        </CharString>
        <CharString name="Wdieresis">
          -21 callsubr
          67 44 123 -41 callgsubr
          hintmask 1100101111000000
          192 33 rmoveto
          hintmask 1100110011000000
          -71 callgsubr
          hintmask 1010101111000000
          -101 callgsubr
          hintmask 0001000000000000
          -30 207 -99 callgsubr
        </CharString>
        <CharString name="Wgrave">
          -21 callsubr
          74 -21 106 -20 95 -41 callgsubr
          hintmask 1100010111100000
          192 33 rmoveto
          hintmask 1100011001100000
          -71 callgsubr
          hintmask 1010010111100000
          -101 callgsubr
          hintmask 0001100000000000
          -30 248 rmoveto
          22 -20 33 -25 26 -30 rrcurveto
          -2 1 2 0 2 hhcurveto
          5 6 8 6 2 0 2 -1 1 hvcurveto
          -28 26 -21 28 -29 32 rrcurveto
          1 -1 -1 0 -1 hhcurveto
          -8 -12 -17 -8 -23 callgsubr
          4 hvcurveto
          endchar
        </CharString>
        <CharString name="X">
          244 -136 33 49 33 625 30 44 34 hstem
          0 31 vstem
          943 633 rmoveto
          30 -13 -36 49 -69 hhcurveto
          -168 -136 -303 -236 -125 hvcurveto
          193 -22 -18 268 -170 hhcurveto
          -89 -97 -88 -111 -66 44 -44 44 -8 hvcurveto
          3 6 rlineto
          -31 14 -29 39 66 vvcurveto
          75 38 87 105 163 8 -285 -195 24 vhcurveto
          -128 -70 -67 -99 -66 hhcurveto
          -50 -24 25 19 -19 hvcurveto
          -4 -4 rlineto
          -17 11 32 -56 51 hhcurveto
          70 69 100 129 72 hvcurveto
          -86 12 18 -61 42 hhcurveto
          32 53 62 13 7 hvcurveto
          -2 1 rlineto
          -7 -9 -37 -36 -28 hhcurveto
          -37 -15 68 93 -11 hvcurveto
          236 127 136 302 165 hhcurveto
          64 36 -37 -11 13 hvcurveto
          endchar
        </CharString>
        <CharString name="Y">
          66 -14 -21 602 27 123 29 hstem
          -16 callgsubr
          vstem
          -97 callsubr
          endchar
        </CharString>
        <CharString name="Yacute">
          1 callgsubr
          -3 -20 hstemhm
          -16 callgsubr
          hintmask 11010111
          -97 callsubr
          hintmask 00101000
          215 251 -77 callgsubr
          endchar
        </CharString>
        <CharString name="Ycircumflex">
          1 callgsubr
          -8 -20 hstemhm
          -16 callgsubr
          hintmask 11010111
          -97 callsubr
          hintmask 00101000
          156 250 -106 callgsubr
        </CharString>
        <CharString name="Ydieresis">
          66 -14 -21 602 27 63 44 16 29 hstemhm
          -16 callgsubr
          hintmask 11011110
          -97 callsubr
          hintmask 00100000
          156 284 -99 callgsubr
        </CharString>
        <CharString name="Ygrave">
          1 callgsubr
          3 -20 hstemhm
          -16 callgsubr
          hintmask 11010111
          -97 callsubr
          hintmask 00101000
          156 325 rmoveto
          22 -20 33 -25 26 -30 rrcurveto
          -2 1 2 0 2 hhcurveto
          5 6 8 6 2 0 2 -1 1 hvcurveto
          -28 26 -21 28 -29 32 rrcurveto
          1 -1 -1 0 -1 hhcurveto
          -8 -12 -17 -8 -23 callgsubr
          4 hvcurveto
          endchar
        </CharString>
        <CharString name="Z">
          -14 callgsubr
          -101 callsubr
          endchar
        </CharString>
        <CharString name="Zacute">
          -14 callgsubr
          48 -21 100 -20 -101 callsubr
          hintmask 00000110
          -320 31 -77 callgsubr
          endchar
        </CharString>
        <CharString name="Zcaron">
          -14 callgsubr
          48 20 callgsubr
          -101 callsubr
          hintmask 00000110
          -252 118 -103 callsubr
          hintmask 00000101
          -71 callsubr
        </CharString>
        <CharString name="Zdotaccent">
          -14 callgsubr
          37 48 -101 callsubr
          hintmask 00000100
          -339 62 -75 callsubr
        </CharString>
        <CharString name="a">
          -24 callsubr
          7 callgsubr
          hintmask 01110000
          -91 callsubr
          hintmask 10110000
          -103 callgsubr
          endchar
        </CharString>
        <CharString name="aacute">
          -24 callsubr
          60 -21 100 -20 7 callgsubr
          hintmask 01001100
          -91 callsubr
          hintmask 10001100
          -103 callgsubr
          hintmask 00110000
          -21 154 -77 callgsubr
          endchar
        </CharString>
        <CharString name="abreve">
          -24 callsubr
          49 24 7 callgsubr
          hintmask 01011000
          -91 callsubr
          hintmask 10011000
          -103 callgsubr
          hintmask 00100000
          -87 226 -98 callgsubr
        </CharString>
        <CharString name="acircumflex">
          -24 callsubr
          60 -21 95 -20 7 callgsubr
          hintmask 01001100
          -91 callsubr
          hintmask 10001100
          -103 callgsubr
          hintmask 00110000
          -80 153 -106 callgsubr
        </CharString>
        <CharString name="acute">
          -19 276 -21 100 -20 hstem
          108 258 -77 callgsubr
          endchar
        </CharString>
        <CharString name="adieresis">
          -24 callsubr
          53 44 7 callgsubr
          hintmask 01011000
          -91 callsubr
          hintmask 10011000
          -103 callgsubr
          hintmask 00100000
          -80 187 -99 callgsubr
        </CharString>
        <CharString name="ae">
          12 callgsubr
          hstemhm
          2 24 -24 162 hintmask 10101010
          -32 callgsubr
          hintmask 10110100
          4 7 14 5 4 -2 3 -4 1 hvcurveto
          hintmask 10101100
          5 -15 -15 2 -14 hhcurveto
          -37 -33 -14 -25 -14 hvcurveto
          hintmask 10110100
          -40 callsubr
          hintmask 01110100
          -27 10 27 -16 41 hhcurveto
          83 46 48 64 22 -44 callsubr
          hintmask 10110100
          -49 callsubr
          endchar
        </CharString>
        <CharString name="aeacute">
          12 callgsubr
          54 -21 100 -20 hstemhm
          2 24 -24 162 hintmask 1010100010000000
          -32 callgsubr
          hintmask 1011000100000000
          4 7 14 5 4 -2 3 -4 1 hvcurveto
          hintmask 1010100100000000
          5 -15 -15 2 -14 hhcurveto
          -37 -33 -14 -25 -14 hvcurveto
          hintmask 1011000100000000
          -40 callsubr
          hintmask 0111000100000000
          -27 10 27 -16 41 hhcurveto
          83 46 48 64 22 -44 callsubr
          hintmask 1011000100000000
          -49 callsubr
          hintmask 0000011000000000
          -12 142 -77 callgsubr
          endchar
        </CharString>
        <CharString name="agrave">
          -24 callsubr
          60 -21 106 -20 7 callgsubr
          hintmask 01001100
          -91 callsubr
          hintmask 10001100
          -103 callgsubr
          hintmask 00110000
          -80 228 rmoveto
          22 -20 33 -25 26 -30 rrcurveto
          -2 1 2 0 2 hhcurveto
          5 6 8 6 2 0 2 -1 1 hvcurveto
          -28 26 -21 28 -29 32 rrcurveto
          1 -1 -1 0 -1 hhcurveto
          -8 -12 -17 -8 -23 callgsubr
          4 hvcurveto
          endchar
        </CharString>
        <CharString name="amacron">
          -24 callsubr
          64 25 -7 -21 7 callgsubr
          hintmask 01001100
          -91 callsubr
          hintmask 10001100
          -103 callgsubr
          hintmask 00010000
          -75 173 rmoveto
          hintmask 00100000
          -84 callgsubr
          hintmask 00010000
          -36 callgsubr
        </CharString>
        <CharString name="ampersand">
          283 -66 31 32 32 543 28 hstem
          20 31 243 30 67 27 133 29 vstem
          616 hmoveto
          -31 -36 -21 -4 -32 hhcurveto
          -59 -42 53 74 -31 hvcurveto
          102 76 83 106 78 vvcurveto
          36 -14 29 -36 12 vhcurveto
          -3 -5 rlineto
          17 -13 7 -20 -34 vvcurveto
          -87 -69 -97 -92 -65 vhcurveto
          -34 88 -18 113 -8 85 rrcurveto
          50 39 38 48 67 vvcurveto
          25 -13 27 -29 -64 -18 -87 -46 -20 1 -28 3 -33 vhcurveto
          -110 -79 -168 -52 -138 vvcurveto
          -72 44 -48 100 61 72 29 44 67 vhcurveto
          -78 32 44 -58 62 hhcurveto
          44 43 30 28 33 hvcurveto
          -457 37 rmoveto
          -52 -62 20 79 120 141 52 107 72 hvcurveto
          8 -85 18 -110 33 -90 -61 -36 -67 -23 -65 1 rrcurveto
          159 469 rmoveto
          35 6 39 35 21 5 -22 -14 -52 -25 -39 -38 -34 vhcurveto
          -3 37 -1 31 19 vvcurveto
          endchar
        </CharString>
        <CharString name="aogonek">
          -68 -104 23 85 30 -30 212 22 callgsubr
          34 -22 22 hintmask 10110100
          181 169 rmoveto
          8 12 3 9 9 -16 26 -51 -69 -63 -74 -66 -39 21 -33 34 30 27 18 24 20 hvcurveto
          -27 11 21 -10 16 hhcurveto
          -23 -23 -20 -27 -25 -70 callgsubr
          -22 -8 -21 hhcurveto
          -17 -10 12 11 28 19 27 23 13 hvcurveto
          33 18 31 34 14 44 -3 2 rcurveline
          hintmask 11011000
          -103 callgsubr
          endchar
        </CharString>
        <CharString name="approxequal">
          101 161 29 40 29 12 29 40 29 hstem
          88 171 rmoveto
          -60 callgsubr
          110 vmoveto
          -60 callgsubr
          endchar
        </CharString>
        <CharString name="aring">
          -24 callsubr
          39 145 hstemhm
          2 28 23 147 -73 43 10 20 hintmask 01010100
          -91 callsubr
          hintmask 10010100
          -103 callgsubr
          hintmask 00101000
          -87 217 -63 callgsubr
          hintmask 00100010
          -45 callgsubr
        </CharString>
        <CharString name="asciicircum">
          101 530 -21 191 -20 hstem
          129 520 rmoveto
          58 39 51 81 13 hhcurveto
          18 31 -106 -44 38 hvcurveto
          20 11 10 10 -6 hvcurveto
          -36 57 -32 46 -18 57 rrcurveto
          12 -1 -19 -1 -2 hhcurveto
          -22 0 -18 -52 -39 hvcurveto
          -28 -38 -29 -35 -17 -23 -5 -6 27 -14 6 6 rrcurveto
          endchar
        </CharString>
        <CharString name="asciitilde">
          101 217 29 40 29 hstem
          88 227 rmoveto
          -60 callgsubr
          endchar
        </CharString>
        <CharString name="asterisk">
          19 169 24 vstem
          76 600 rmoveto
          34 -15 26 -15 25 -14 -24 -14 -24 -15 -31 -16 -26 -9 30 -22 2 7 32 18 24 17 25 16 rrcurveto
          -31 0 -30 1 -31 vhcurveto
          -6 -7 29 -5 19 vvcurveto
          -1 26 -1 29 30 vvcurveto
          22 -14 23 -14 29 -14 17 -12 22 24 -24 7 -34 15 -27 14 -22 12 24 15 27 15 36 17 33 15 -38 17 1 -7 -36 -21 -27 -16 -26 -17 rrcurveto
          36 1 33 4 24 vhcurveto
          15 -37 -16 9 -12 vhcurveto
          -27 1 -27 -27 vvcurveto
          -28 16 -22 15 -27 16 -14 14 -16 -28 14 -6 rrcurveto
          endchar
        </CharString>
        <CharString name="at">
          327 -22 29 110 28 226 189 -30 30 hstemhm
          35 26 145 32 -32 176 -13 52 -13 203 -28 28 hintmask 1101101010000000
          382 243 rmoveto
          28 10 22 9 4 3 -7 -10 -20 -7 -29 -14 -24 vhcurveto
          -3 11 -2 13 16 vvcurveto
          68 -126 rmoveto
          93 68 120 95 112 -71 116 -169 -182 -154 -151 -172 -144 98 -115 177 69 62 23 24 44 hvcurveto
          -3 10 rlineto
          -19 -51 -47 -9 -55 hhcurveto
          -172 -96 111 132 159 126 121 166 hvcurveto
          hintmask 1110110101000000
          111 119 -77 -135 -75 -38 -98 -82 -32 -29 19 26 -11 hvcurveto
          19 30 11 34 29 vvcurveto
          22 -11 8 -6 -10 -25 -15 -70 -17 2 -15 3 -12 vhcurveto
          -20 -17 -23 -13 -31 hhcurveto
          -39 -26 34 45 58 54 83 72 34 17 -19 -12 10 hvcurveto
          -5 4 4 -5 4 hhcurveto
          9 15 3 10 11 -21 33 -64 -89 -81 -95 -85 -50 26 -42 44 40 36 24 32 26 hvcurveto
          -36 13 28 -18 31 hhcurveto
          endchar
        </CharString>
        <CharString name="atilde">
          -24 callsubr
          49 5 callsubr
          2 28 97 43 hintmask 01000110
          -91 callsubr
          hintmask 10000110
          -103 callgsubr
          hintmask 00101000
          -88 173 -98 callsubr
          hintmask 00011000
          -64 callgsubr
        </CharString>
        <CharString name="b">
          -67 4 212 -31 31 411 -20 hstemhm
          30 37 -13 168 -28 28 hintmask 01101000
          90 4 rmoveto
          69 63 74 66 39 -21 33 -34 -63 -50 -77 -54 -22 19 -4 -4 17 hvcurveto
          hintmask 01110100
          -2 8 0 1 6 vvcurveto
          32 22 62 57 29 19 -25 -34 -44 -40 -63 -55 -28 -29 23 32 vhcurveto
          24 25 215 163 -59 callsubr
          -194 -10 -120 -34 vvcurveto
          hintmask 10110100
          -55 26 -15 44 vhcurveto
          endchar
        </CharString>
        <CharString name="backslash">
          -15 4 -21 684 -20 hstem
          14 662 rmoveto
          3 -1 -12 2 -5 hhcurveto
          -5 -5 -2 -4 -1 1 -2 0 hvcurveto
          103 -259 71 -185 88 -221 rrcurveto
          -7 1 4 -3 5 hhcurveto
          8 10 5 10 -4 hvcurveto
          -92 222 -66 197 -101 245 rrcurveto
          endchar
        </CharString>
        <CharString name="bar">
          9 callgsubr
          728 rmoveto
          -6 -61 -1 -199 -65 -127 8 -394 -127 vvcurveto
          -1 -1 -1 -1 -1 vvcurveto
          -1 3 -1 3 14 10 12 11 vhcurveto
          -6 116 -3 408 108 vvcurveto
          70 1 183 7 88 vhcurveto
          6 -3 2 -2 -8 -18 -17 -7 -1 3 -1 0 vhcurveto
          endchar
        </CharString>
        <CharString name="braceleft">
          61 -88 -21 815 -20 hstem
          103 27 9 32 vstem
          234 706 rmoveto
          -104 -12 -27 -79 -58 -73 36 -42 -62 vvcurveto
          -31 -3 -22 -6 -11 vhcurveto
          -16 2 -11 -17 -9 vvcurveto
          -3 9 0 3 vhcurveto
          22 -14 1 -23 -15 -47 -33 -81 -71 vvcurveto
          -71 41 -67 75 -9 vhcurveto
          2 11 rlineto
          -64 9 -29 53 64 63 41 104 45 vvcurveto
          38 -9 17 -16 14 vhcurveto
          18 27 8 25 29 54 -44 62 70 vvcurveto
          56 23 51 84 13 vhcurveto
          endchar
        </CharString>
        <CharString name="braceright">
          61 -89 -21 815 -20 hstem
          177 29 14 30 vstem
          118 -110 rmoveto
          104 12 28 75 58 82 -44 38 62 vvcurveto
          31 10 21 6 11 vhcurveto
          16 -2 11 17 9 vvcurveto
          3 -15 -2 -3 vhcurveto
          -22 14 -3 24 15 47 45 82 71 vvcurveto
          71 -45 67 -75 9 vhcurveto
          -2 -11 rlineto
          64 -9 27 -53 -64 -63 -43 -85 -67 vvcurveto
          -36 13 -22 16 -8 vhcurveto
          -18 -27 -8 -25 -29 -54 39 -62 -70 vvcurveto
          -56 -18 -51 -84 -13 vhcurveto
          endchar
        </CharString>
        <CharString name="bracketleft">
          71 -128 25 hstem
          100 28 vstem
          254 701 rmoveto
          -136 -2 -20 4 -21 -47 2 -63 -68 -192 -8 -246 -126 vvcurveto
          -33 10 -35 44 32 46 14 9 26 vhcurveto
          -3 11 rlineto
          -8 -24 -29 -1 -27 hhcurveto
          -34 -5 21 36 hvcurveto
          221 8 267 230 vvcurveto
          34 16 84 2 0 vvcurveto
          endchar
        </CharString>
        <CharString name="bracketright">
          71 -102 -21 796 27 hstem
          226 31 vstem
          117 -123 rmoveto
          118 hlineto
          23 -2 9 19 1 hvcurveto
          13 260 -7 247 258 vvcurveto
          11 -4 19 -17 -18 -75 -15 -10 -38 vhcurveto
          1 -10 rlineto
          8 49 31 0 29 hhcurveto
          19 -12 -714 -53 -2 hvcurveto
          -11 -20 -76 6 -23 -3 rrcurveto
          endchar
        </CharString>
        <CharString name="breve">
          -19 265 24 hstem
          74 330 -98 callgsubr
        </CharString>
        <CharString name="brokenbar">
          9 callgsubr
          171 rmoveto
          -43 callgsubr
          557 vmoveto
          -43 callgsubr
          endchar
        </CharString>
        <CharString name="bullet">
          -18 228 186 hstem
          64 186 vstem
          64 321 rmoveto
          -51 42 -42 51 51 42 42 51 51 -42 42 -51 -51 -42 -42 -51 vhcurveto
          endchar
        </CharString>
        <CharString name="c">
          6 callgsubr
          hstemhm
          10 31 101 32 hintmask 10110000
          -79 callgsubr
          hintmask 01110000
          7 callsubr
          endchar
        </CharString>
        <CharString name="c_r">
          114 3 26 -26 216 -199 -21 175 32 45 -20 hstemhm
          10 31 -31 164 43 122 -23 23 hintmask 1001110100000000
          312 -66 callsubr
          -22 8 -16 15 -9 hvcurveto
          -100 -23 -30 -53 -76 hhcurveto
          -50 -20 42 38 44 25 47 49 26 7 -13 -13 -9 -4 -11 -5 -6 hvcurveto
          5 -5 rlineto
          hintmask 0100101100000000
          15 11 15 15 21 vvcurveto
          19 -24 10 -20 -69 -51 -61 -69 -51 39 -35 52 71 58 56 117 22 vhcurveto
          hintmask 0011110010000000
          -1 6 6 -1 6 21 10 3 7 hhcurveto
          6 14 -2 -18 hvcurveto
          -20 -12 -52 -29 vvcurveto
          -23 6 -34 35 42 50 59 48 14 15 callgsubr
          -48 -26 -32 -29 -27 hhcurveto
          -30 -6 20 25 hvcurveto
          11 9 59 16 vvcurveto
          13 -3 31 -33 vhcurveto
          -75 20 rmoveto
          0 1 -5 1 -7 vhcurveto
          3 -2 -5 9 5 hhcurveto
          endchar
        </CharString>
        <CharString name="cacute">
          6 callgsubr
          61 -21 100 -20 hstemhm
          10 31 101 32 hintmask 10001100
          -79 callgsubr
          hintmask 01001100
          7 callsubr
          hintmask 00110000
          -23 43 -77 callgsubr
          endchar
        </CharString>
        <CharString name="caron">
          -19 276 20 callgsubr
          hstemhm
          hintmask 11000000
          206 345 -103 callsubr
          hintmask 10100000
          -71 callsubr
        </CharString>
        <CharString name="ccaron">
          6 callgsubr
          61 20 callgsubr
          hstemhm
          10 31 101 32 hintmask 10000110
          -79 callgsubr
          hintmask 01000110
          7 callsubr
          hintmask 00110000
          45 130 -103 callsubr
          hintmask 00101000
          -71 callsubr
        </CharString>
        <CharString name="ccedilla">
          -106 -114 25 46 20 33 28 -28 209 hstemhm
          10 31 -31 133 -1 32 hintmask 11010100
          130 219 rmoveto
          -69 -51 -62 -69 -51 38 -24 35 -3 hvcurveto
          -6 -19 -8 -26 -65 callgsubr
          11 3 13 4 14 vhcurveto
          65 1 30 54 0 vvcurveto
          -4 3 rlineto
          hintmask 11101010
          0 -25 -30 -48 -49 -21 33 38 44 27 47 41 21 12 -13 -13 -27 -31 -16 0 vhcurveto
          3 -5 rlineto
          0 60 23 41 vvcurveto
          hintmask 11011010
          7 callsubr
          endchar
        </CharString>
        <CharString name="ccircumflex">
          6 callgsubr
          61 -21 95 -20 hstemhm
          10 31 101 32 hintmask 10001100
          -79 callgsubr
          hintmask 01001100
          7 callsubr
          hintmask 00110000
          -82 42 -106 callgsubr
        </CharString>
        <CharString name="cdotaccent">
          6 callgsubr
          50 48 hstemhm
          10 31 101 32 hintmask 10011000
          -79 callgsubr
          hintmask 01011000
          7 callsubr
          hintmask 00100000
          -42 74 -75 callsubr
        </CharString>
        <CharString name="cedilla">
          -19 -124 25 46 20 38 -20 hstem
          151 5 rmoveto
          -6 -19 -10 -31 -65 callgsubr
          12 4 14 5 17 vhcurveto
          endchar
        </CharString>
        <CharString name="cent">
          -106 39 -21 538 -20 hstemhm
          10 28 -28 95 -19 88 hintmask 11101000
          140 311 rmoveto
          16 11 18 17 22 vvcurveto
          7 callsubr
          hintmask 11010000
          -9 -8 -1 -2 -8 hvcurveto
          49 2 49 8 63 vhcurveto
          6 -2 2 -3 -7 -13 -16 -8 -1 3 -1 0 vhcurveto
          hintmask 11101000
          -6 -46 -1 -53 -50 vvcurveto
          -46 -20 -30 -49 -53 vvcurveto
          -53 41 -24 36 -1 vhcurveto
          1 -39 1 -38 -39 -15 -2 -15 -15 vvcurveto
          -1 2 -1 3 7 12 5 15 46 -2 48 -2 50 vhcurveto
          55 8 26 46 0 vvcurveto
          -4 3 rlineto
          0 -25 -34 -48 vhcurveto
          -4 hlineto
          -1 24 0 25 25 vvcurveto
          hintmask 11010000
          34 -1 29 29 vvcurveto
          4 hlineto
          27 10 -12 -13 -11 -6 -13 -6 -7 hvcurveto
          -47 -108 rmoveto
          hintmask 11101000
          -33 8 -16 25 40 vvcurveto
          35 19 37 29 14 vhcurveto
          -54 vlineto
          -35 0 -35 1 -35 vhcurveto
          endchar
        </CharString>
        <CharString name="circumflex">
          -19 276 -21 95 -20 hstem
          81 257 -106 callgsubr
        </CharString>
        <CharString name="colon">
          -168 37 -21 199 -20 hstem
          50 51 vstem
          78 75 rmoveto
          -76 callgsubr
          140 vmoveto
          -76 callgsubr
          endchar
        </CharString>
        <CharString name="comma">
          -188 75 -20 hstem
          40 52 vstem
          67 75 rmoveto
          -27 callsubr
        </CharString>
        <CharString name="commaaccent">
          -19 -41 -20 hstem
          127 45 vstem
          150 -41 -95 callgsubr
        </CharString>
        <CharString name="copyright">
          514 -15 29 115 27 399 29 102 28 hstem
          52 29 117 24 366 24 140 29 vstem
          410 -15 rmoveto
          196 175 176 186 206 -161 161 -196 -222 -150 -168 -204 -203 168 -154 190 hvcurveto
          14 29 rmoveto
          -205 -138 157 189 201 135 125 189 178 169 -147 -197 -192 -156 -136 -172 hvcurveto
          179 259 rmoveto
          -53 -16 -46 -64 -111 hhcurveto
          -139 -69 99 86 110 65 104 166 73 62 -2 callsubr
          -69 51 -84 -151 -110 -128 -131 -123 108 -73 114 141 42 108 34 8 vhcurveto
          endchar
        </CharString>
        <CharString name="currency">
          62 170 26 218 26 hstem
          60 26 218 27 vstem
          332 464 rmoveto
          -21 -18 -17 -16 -16 -16 rrcurveto
          16 -23 -29 10 -32 hhcurveto
          -32 -28 -14 -21 -23 hvcurveto
          -16 17 -18 21 -24 30 -4 5 -3 -1 -1 -1 -6 -6 -1 -22 6 -5 rrcurveto
          2 -1 2 1 0 vvcurveto
          16 -21 16 -17 15 -15 rrcurveto
          -23 -28 -12 -33 -35 vvcurveto
          -36 13 -29 19 -20 vhcurveto
          -8 -10 -9 -9 -10 -11 -10 -11 -11 -10 -11 -11 rrcurveto
          -1 0 -2 2 -2 vhcurveto
          5 -5 13 -4 10 11 17 18 15 17 13 16 rrcurveto
          -17 23 28 -8 28 hhcurveto
          35 35 14 25 27 hvcurveto
          10 -10 11 -10 12 -12 11 -10 9 -12 11 -10 rrcurveto
          1 2 1 1 3 hvcurveto
          4 5 5 13 -11 10 -20 19 -16 16 -16 15 rrcurveto
          19 23 12 30 35 vvcurveto
          33 -15 32 -23 23 vhcurveto
          17 17 21 20 30 26 3 4 1 3 -3 1 -5 5 -20 -2 -5 -6 rrcurveto
          -1 -1 1 -4 0 vvcurveto
          -128 -268 rmoveto
          -56 -62 42 73 53 41 50 60 65 52 -60 -60 -56 -48 -42 -52 hvcurveto
          endchar
        </CharString>
        <CharString name="d">
          -25 10 callsubr
          579 23 hstemhm
          2 31 109 30 53 22 hintmask 10011110
          139 211 rmoveto
          -17 callsubr
          hintmask 00111110
          -18 callgsubr
          hintmask 10011110
          -27 callgsubr
          hintmask 01011110
          -52 callsubr
          endchar
        </CharString>
        <CharString name="dagger">
          56 -35 -21 500 29 hstemhm
          163 31 -31 45 hintmask 11100000
          53 444 rmoveto
          37 1 37 1 36 -1 -4 -180 -2 -158 3 -162 12 -1 rcurveline
          5 188 7 153 10 160 rrcurveto
          -1 32 31 0 31 10 15 29 -7 hhcurveto
          2 -39 -36 0 -36 hhcurveto
          hintmask 11010000
          4 59 4 60 5 64 rrcurveto
          7 -39 -5 -16 vvcurveto
          -2 -60 -2 -55 -1 -55 rrcurveto
          -33 -32 -1 -33 -15 -3 -29 5 hhcurveto
          endchar
        </CharString>
        <CharString name="daggerdbl">
          56 -35 -21 356 28 136 29 hstemhm
          160 25 -25 48 hintmask 11110000
          58 464 rmoveto
          1 36 35 0 35 hhcurveto
          -1 -46 -1 -46 -1 -44 rrcurveto
          -1 -31 -31 0 -35 -9 -13 -28 7 hhcurveto
          37 -1 37 1 37 1 -2 -123 0 -116 2 -117 12 -1 rcurveline
          3 132 4 114 6 111 rrcurveto
          31 30 0 -2 32 hvcurveto
          -1 15 15 30 -13 hhcurveto
          -41 1 -34 1 -33 -1 2 45 3 45 3 46 rrcurveto
          -1 33 33 0 32 10 15 29 -7 hhcurveto
          2 -40 -37 0 -37 hhcurveto
          hintmask 11101000
          3 52 4 54 4 57 rrcurveto
          7 -39 -5 -16 vvcurveto
          -2 -52 -1 -49 -2 -49 rrcurveto
          -31 -31 -1 -31 -15 -3 -29 5 hhcurveto
          endchar
        </CharString>
        <CharString name="dcaron">
          34 10 callsubr
          579 23 0 -20 hstemhm
          2 31 109 30 53 22 44 52 hintmask 1001011100000000
          139 211 rmoveto
          -17 callsubr
          hintmask 0011011100000000
          -18 callgsubr
          hintmask 1001011100000000
          -27 callgsubr
          hintmask 0101011100000000
          -52 callsubr
          hintmask 0000100010000000
          235 567 rmoveto
          -27 callsubr
        </CharString>
        <CharString name="dcroat">
          -25 10 callsubr
          183 184 -20 20 212 23 hstemhm
          2 31 112 28 52 22 hintmask 0100111110000000
          292 363 rmoveto
          4 6 3 6 3 -36 1 -26 hvcurveto
          5 36 2 35 30 vvcurveto
          91 -11 43 -25 -38 -21 -118 -118 -7 vhcurveto
          -1 -28 -28 0 -19 hhcurveto
          -22 callgsubr
          24 28 1 2 28 hvcurveto
          -1 -29 -1 -29 -26 vvcurveto
          -22 0 -20 2 -19 vhcurveto
          -5 hlineto
          -17 callsubr
          hintmask 0011011110000000
          -18 callgsubr
          hintmask 1001011110000000
          -19 -10 -30 -51 -27 hhcurveto
          -33 -22 52 63 -12 hvcurveto
          11 33 13 44 14 59 6 25 5 26 3 25 rrcurveto
          19 18 1 17 hhcurveto
          -209 -319 rmoveto
          -29 -21 26 34 40 29 48 68 6 5 -1 -2 5 hvcurveto
          3 -28 4 -25 6 -23 rrcurveto
          -30 -14 -22 -39 -40 hhcurveto
          119 544 rmoveto
          16 7 -56 -89 -23 -1 -23 -2 -21 hvcurveto
          -6 hlineto
          -12 -15 0 -1 -16 hvcurveto
          98 3 9 115 17 hhcurveto
          18 -227 rmoveto
          -7 -74 -16 -64 -15 -47 rrcurveto
          -7 44 -3 48 38 vvcurveto
          52 vlineto
          endchar
        </CharString>
        <CharString name="degree">
          -64 455 20 120 22 hstem
          55 22 121 22 vstem
          55 529 rmoveto
          -52 39 -22 36 44 46 32 51 54 -36 25 -36 -42 -51 -32 -56 vhcurveto
          22 11 rmoveto
          39 28 16 26 32 35 -25 -41 -36 -25 -18 -27 -31 -38 23 42 vhcurveto
          endchar
        </CharString>
        <CharString name="dieresis">
          -19 269 44 hstem
          86 291 -99 callgsubr
        </CharString>
        <CharString name="divide">
          101 154 -21 120 29 123 -20 hstem
          193 51 vstem
          68 250 rmoveto
          67 51 3 71 hhcurveto
          36 26 -1 -2 36 hvcurveto
          7 12 21 6 5 -83 0 -15 hvcurveto
          -72 -52 -3 -73 -29 callsubr
          hvcurveto
          153 -67 -2 callgsubr
          -3 222 -2 callgsubr
          endchar
        </CharString>
        <CharString name="dollar">
          43 9 -21 540 31 72 -20 hstemhm
          30 157 -23 23 -23 87 55 26 hintmask 11101010
          295 439 rmoveto
          15 12 22 17 32 vvcurveto
          40 -33 19 -43 -22 -24 -6 -11 -23 vhcurveto
          1 25 2 26 3 30 rrcurveto
          6 -3 2 -2 -8 -14 -17 -7 -1 3 -1 0 vhcurveto
          -3 -23 -1 -26 -1 -26 rrcurveto
          hintmask 11110010
          -72 -42 -62 -80 -67 vvcurveto
          -76 75 -17 60 -16 vhcurveto
          1 -39 1 -39 1 -38 -17 -2 -17 3 -12 7 -8 21 -30 -35 17 -12 18 -10 25 -3 25 4 rrcurveto
          -33 1 -33 -30 vvcurveto
          -1 -1 -1 -1 15 callsubr
          -2 26 -1 29 -1 30 rrcurveto
          hintmask 11100110
          33 13 28 30 51 vvcurveto
          37 -29 18 -36 13 vhcurveto
          -1 54 0 51 42 vvcurveto
          38 0 36 1 39 vhcurveto
          6 18 17 4 17 hhcurveto
          43 25 -9 -32 -28 -9 -10 -6 -7 hvcurveto
          -129 -39 rmoveto
          -43 1 -47 1 -48 vhcurveto
          -57 18 -64 13 2 57 1 56 55 66 62 32 rrcurveto
          -1 -35 0 -36 -33 vvcurveto
          hintmask 11110010
          25 -178 rmoveto
          29 -9 22 -12 -23 vvcurveto
          -32 -22 -20 -27 -9 vhcurveto
          -1 35 -1 35 35 vvcurveto
          endchar
        </CharString>
        <CharString name="dotaccent">
          -19 265 48 hstem
          126 289 -75 callsubr
        </CharString>
        <CharString name="dotlessi">
          -28 callgsubr
          hstem
          15 30 vstem
          -90 callgsubr
          endchar
        </CharString>
        <CharString name="dotlessj">
          -191 -470 22 693 -20 hstem
          -99 28 89 39 vstem
          -80 callgsubr
          endchar
        </CharString>
        <CharString name="e">
          -24 callgsubr
          hstem
          -104 callgsubr
          endchar
        </CharString>
        <CharString name="eacute">
          -24 callgsubr
          61 -21 100 -20 hstemhm
          hintmask 11000000
          -104 callgsubr
          hintmask 00110000
          -47 50 -77 callgsubr
          endchar
        </CharString>
        <CharString name="ebreve">
          -24 callgsubr
          50 24 hstemhm
          hintmask 11000000
          -104 callgsubr
          hintmask 00100000
          -113 122 -98 callgsubr
        </CharString>
        <CharString name="ecaron">
          -24 callgsubr
          61 20 callgsubr
          hstemhm
          hintmask 11000000
          -104 callgsubr
          hintmask 00110000
          21 137 -103 callsubr
          hintmask 00101000
          -71 callsubr
        </CharString>
        <CharString name="ecircumflex">
          -24 callgsubr
          61 -21 95 -20 hstemhm
          hintmask 11000000
          -104 callgsubr
          hintmask 00110000
          -106 49 -106 callgsubr
        </CharString>
        <CharString name="edieresis">
          -24 callgsubr
          54 44 hstemhm
          hintmask 11000000
          -104 callgsubr
          hintmask 00100000
          -106 83 -99 callgsubr
        </CharString>
        <CharString name="edotaccent">
          -24 callgsubr
          50 48 hstemhm
          hintmask 11000000
          -104 callgsubr
          hintmask 00100000
          -66 81 -75 callsubr
        </CharString>
        <CharString name="egrave">
          -24 callgsubr
          61 -21 106 -20 hstemhm
          hintmask 11000000
          -104 callgsubr
          hintmask 00110000
          -106 124 rmoveto
          22 -20 33 -25 26 -30 rrcurveto
          -2 1 2 0 2 hhcurveto
          5 6 8 6 2 0 2 -1 1 hvcurveto
          -28 26 -21 28 -29 32 rrcurveto
          1 -1 -1 0 -1 hhcurveto
          -8 -12 -17 -8 -23 callgsubr
          4 hvcurveto
          endchar
        </CharString>
        <CharString name="eight">
          141 -30 26 592 29 hstem
          42 26 45 31 157 24 96 37 vstem
          261 617 rmoveto
          -119 -100 -95 -117 -111 100 -60 76 -60 hvcurveto
          -58 -34 -47 -26 -59 vvcurveto
          -49 44 -36 61 64 43 47 52 45 -26 35 -35 33 vhcurveto
          93 59 101 89 116 vvcurveto
          101 -84 35 -24 7 vhcurveto
          15 -20 -29 13 -40 hhcurveto
          99 -82 rmoveto
          8 -14 14 9 5 9 rrcurveto
          20 -21 14 -31 -42 vvcurveto
          -121 -81 -75 -89 -55 vhcurveto
          -76 66 -107 57 103 vvcurveto
          107 76 61 109 60 35 -38 -15 12 vhcurveto
          -59 -479 rmoveto
          -41 -39 -19 -42 -38 -38 26 42 47 35 21 53 31 vhcurveto
          39 -32 30 -33 -42 vvcurveto
          endchar
        </CharString>
        <CharString name="ellipsis">
          74 16 59 hstem
          40 51 80 51 80 51 cntrmask 01110000
          68 75 rmoveto
          -76 callgsubr
          131 hmoveto
          -76 callgsubr
          131 hmoveto
          -76 callgsubr
          endchar
        </CharString>
        <CharString name="emacron">
          -24 callgsubr
          65 25 -7 -21 hstemhm
          hintmask 11000000
          -104 callgsubr
          hintmask 00010000
          -101 69 rmoveto
          hintmask 00100000
          -84 callgsubr
          hintmask 00010000
          -36 callgsubr
        </CharString>
        <CharString name="emdash">
          431 122 32 hstem
          468 125 rmoveto
          95 68 -1 -2 95 hvcurveto
          7 12 21 6 5 -209 0 -39 hvcurveto
          -182 -102 -3 -186 hhcurveto
          -15 -17 -17 -8 -3 3 -1 2 hvcurveto
          177 104 3 187 hhcurveto
          endchar
        </CharString>
        <CharString name="endash">
          181 122 32 hstem
          296 125 rmoveto
          55 39 -1 -2 55 hvcurveto
          7 12 21 6 5 -123 0 -23 hvcurveto
          -107 -60 -3 -109 hhcurveto
          -9 -10 -17 -8 -3 2 -1 1 hvcurveto
          102 60 3 108 hhcurveto
          endchar
        </CharString>
        <CharString name="eng">
          -80 -470 22 612 29 25 -20 hstem
          12 33 92 32 vstem
          138 103 rmoveto
          -1 -36 1 -75 -1 -85 rrcurveto
          -69 -89 -56 -61 -134 vvcurveto
          -61 29 -32 32 84 11 231 169 1 vhcurveto
          30 41 32 47 29 65 -7 7 rcurveline
          -27 -58 -29 -45 -28 -38 rrcurveto
          48 -1 42 28 vvcurveto
          43 -5 38 -2 15 vhcurveto
          12 -2 -7 18 -15 hhcurveto
          -22 -19 -45 -27 -13 hvcurveto
          -21 -10 -16 -38 -6 hhcurveto
          -5 -1 11 -65 callsubr
          -4 -4 -5 -3 1 -22 -8 -8 -2 -43 -21 vvcurveto
          -18 1 -60 16 5 4 4 5 3 vhcurveto
          11 18 8 17 14 31 rrcurveto
          20 9 21 54 12 hhcurveto
          14 0 -30 -31 2 hvcurveto
          -57 -551 rmoveto
          -33 -8 53 38 114 42 59 54 71 hvcurveto
          -157 -3 -12 -178 -40 hhcurveto
          endchar
        </CharString>
        <CharString name="eogonek">
          -101 -108 23 79 25 206 23 hstemhm
          20 99 -22 22 hintmask 11110000
          155 241 rmoveto
          5 -15 -15 2 -14 hhcurveto
          -49 -42 -25 -41 -44 53 -5 0 hvcurveto
          -12 -5 -51 -19 -49 vvcurveto
          hintmask 11101000
          -41 36 -25 51 12 16 2 2 11 vhcurveto
          -25 -22 -14 -22 -22 vvcurveto
          -31 24 -9 20 22 26 9 20 25 vhcurveto
          10 8 -15 12 -2 -7 rrcurveto
          -11 -18 -22 -8 -21 hhcurveto
          -17 -10 9 16 30 27 29 18 8 hvcurveto
          42 19 25 32 17 48 -3 2 rcurveline
          -21 -12 -30 -68 -97 hhcurveto
          -43 -25 22 29 35 41 25 34 11 hvcurveto
          6 2 5 0 5 vvcurveto
          2 -2 3 -7 -20 -59 9 30 21 24 12 31 vhcurveto
          44 8 -11 7 hhcurveto
          4 7 14 5 4 -2 3 -4 1 hvcurveto
          endchar
        </CharString>
        <CharString name="equal">
          101 201 29 -9 -21 103 29 hstemhm
          hintmask 01100000
          68 300 rmoveto
          67 41 3 71 hhcurveto
          -34 callsubr
          -72 -42 -3 -73 -29 callsubr
          hvcurveto
          -100 vmoveto
          hintmask 10100000
          67 31 1 71 hhcurveto
          hintmask 01100000
          36 38 -15 callgsubr
          hvcurveto
          hintmask 10100000
          5 -93 -2 -15 vhcurveto
          -72 -35 -1 -73 hhcurveto
          -6 -4 -17 -8 hvcurveto
          hintmask 01100000
          -3 -36 callsubr
          vhcurveto
          endchar
        </CharString>
        <CharString name="eth">
          -39 callsubr
          262 -20 hstem
          -29 callgsubr
          vstem
          7 356 rmoveto
          14 12 17 16 18 16 48 -54 35 -66 15 -73 rrcurveto
          5 -9 -11 3 -12 hhcurveto
          -51 -61 -53 -73 -54 30 -29 43 51 56 53 73 106 -44 102 -76 72 hvcurveto
          15 13 16 11 14 9 rrcurveto
          5 2 4 10 7 vvcurveto
          3 -1 2 -2 -8 -28 -23 -7 -8 vhcurveto
          -5 -5 -7 -5 -7 -6 -25 21 -27 18 -29 15 -4 -5 rcurveline
          26 -17 23 -20 22 -23 rrcurveto
          -23 -19 -24 -22 -8 vvcurveto
          -5 2 -4 4 -43 callsubr
          2 vhcurveto
          93 -325 rmoveto
          -43 -20 43 41 52 32 22 30 43 20 -36 -43 -52 -30 -27 -32 hvcurveto
          endchar
        </CharString>
        <CharString name="exclam">
          -149 37 -21 592 -20 hstemhm
          50 54 -40 21 hintmask 11010000
          68 578 rmoveto
          -3 -41 -1 -41 -41 vvcurveto
          -114 0 -115 1 -106 vhcurveto
          -4 3 -2 3 7 8 6 8 1 0 2 -1 2 vhcurveto
          hintmask 11100000
          5 146 14 205 109 vvcurveto
          12 -8 3 -8 -13 -8 -9 -14 -2 0 -3 1 -2 vhcurveto
          10 -503 rmoveto
          -76 callgsubr
          endchar
        </CharString>
        <CharString name="exclamdown">
          -149 -344 -21 592 -20 hstemhm
          39 54 -35 21 hintmask 11010000
          75 -335 rmoveto
          3 41 1 41 41 vvcurveto
          114 0 115 -1 106 vhcurveto
          4 -3 2 -3 -7 -8 -6 -8 -1 0 -23 callgsubr
          vhcurveto
          hintmask 11100000
          -5 -146 -14 -205 -109 vvcurveto
          -12 8 -3 8 13 8 9 14 2 0 3 -1 2 vhcurveto
          -10 503 rmoveto
          -3 callsubr
        </CharString>
        <CharString name="f">
          -154 -7 callgsubr
          561 25 hstem
          12 34 54 20 39 27 vstem
          68 -362 rmoveto
          29 23 47 69 109 -24 71 -32 82 hvcurveto
          -6 11 11 -1 9 hhcurveto
          62 31 76 30 11 -44 callsubr
          -39 -19 -27 -47 -52 hhcurveto
          -25 -25 21 38 -4 hvcurveto
          -1 36 1 5 4 vvcurveto
          -47 callsubr
          -92 -1 -51 -352 vvcurveto
          -108 20 -29 36 vhcurveto
          -22 635 -53 callgsubr
          54 -10 callgsubr
          endchar
        </CharString>
        <CharString name="ff">
          11 -7 callgsubr
          533 23 5 25 hstem
          13 callgsubr
          vstem
          263 31 rmoveto
          -9 callsubr
          29 0 13 4 vvcurveto
          -47 callsubr
          -92 -1 -51 -36 vvcurveto
          -31 -17 -22 -29 -40 -67 callgsubr
          36 28 31 31 18 hvcurveto
          -296 -73 callgsubr
          62 31 76 30 11 -44 callsubr
          -39 -19 -27 -47 -52 hhcurveto
          -52 242 -53 callgsubr
          -104 291 rmoveto
          23 9 -42 -47 -109 -56 -125 -39 -75 hvcurveto
          138 4 -10 260 69 hhcurveto
          158 -793 -46 callgsubr
          -165 hmoveto
          -5 callgsubr
        </CharString>
        <CharString name="ffi">
          138 -7 callgsubr
          533 23 5 25 hstemhm
          13 callgsubr
          -6 30 -30 53 hintmask 1111111110100000
          404 34 rmoveto
          -16 -13 -13 callgsubr
          -24 -25 21 37 -5 hvcurveto
          37 0 5 4 vvcurveto
          hintmask 1111111111000000
          -47 callsubr
          -74 -1 -46 -59 vvcurveto
          -31 -17 -22 -29 -40 -67 callgsubr
          36 28 31 31 18 hvcurveto
          -296 -73 callgsubr
          39 29 36 33 18 hvcurveto
          -56 4 19 -13 24 hhcurveto
          2 callsubr
          -193 239 -53 callgsubr
          -165 -30 -54 callgsubr
          219 -472 -46 callgsubr
          -165 hmoveto
          -72 callgsubr
          hintmask 1111111110100000
          275 553 -25 callsubr
          hintmask 1111111110010000
          15 12 11 19 hvcurveto
          hintmask 1111111110100000
          16 -7 13 -16 vhcurveto
          endchar
        </CharString>
        <CharString name="ffl">
          204 -7 callgsubr
          533 23 7 23 -23 37 hstemhm
          13 31 56 20 19 27 17 33 54 20 19 27 13 30 102 22 hintmask 1110111111111000
          470 35 rmoveto
          -30 -21 -33 callsubr
          -24 -25 21 37 -5 hvcurveto
          44 0 12 23 vvcurveto
          42 72 80 153 133 vvcurveto
          hintmask 1111011111111000
          61 -18 30 -26 -86 -23 -199 -148 vhcurveto
          -92 -1 -51 -26 vvcurveto
          -35 -18 -21 -35 -45 -67 callgsubr
          40 29 38 33 18 hvcurveto
          -305 -73 callgsubr
          46 46 48 34 21 hvcurveto
          -45 15 34 -34 -38 callsubr
          -333 -83 -54 callgsubr
          170 30 -54 callgsubr
          -116 -10 callgsubr
          170 hmoveto
          -5 callgsubr
        </CharString>
        <CharString name="fi">
          -27 -7 callgsubr
          561 25 hstemhm
          13 33 54 20 39 27 -6 30 -30 53 hintmask 11111010
          239 34 rmoveto
          -15 -14 -13 callgsubr
          -26 -26 24 42 -2 hvcurveto
          17 0 10 11 vvcurveto
          hintmask 11111100
          -47 callsubr
          -92 -1 -51 -18 vvcurveto
          -334 -73 callgsubr
          39 29 36 33 18 hvcurveto
          -56 4 19 -13 24 hhcurveto
          2 callsubr
          -193 239 -53 callgsubr
          54 -10 callgsubr
          hintmask 11111010
          110 553 -25 callsubr
          hintmask 11111001
          15 12 11 19 hvcurveto
          hintmask 11111010
          16 -7 13 -16 vhcurveto
          endchar
        </CharString>
        <CharString name="five">
          -26 -36 27 186 29 349 37 hstemhm
          43 218 -23 23 hintmask 11110000
          124 -36 rmoveto
          80 57 52 80 74 -57 36 -60 -20 -18 -3 -6 -14 hvcurveto
          4 34 0 42 36 vvcurveto
          56 2 38 -15 179 vhcurveto
          64 25 -27 56 hhcurveto
          37 18 31 36 5 hvcurveto
          -6 1 rlineto
          -24 -8 -19 -7 -28 hhcurveto
          -53 -108 38 -18 -13 hvcurveto
          -3 -4 -6 1 -5 vvcurveto
          -2 1 -3 3 -3 vhcurveto
          11 -19 20 -145 -139 vvcurveto
          -22 1 -47 -3 -34 vhcurveto
          -23 -13 -11 -19 -13 vvcurveto
          -5 3 -11 12 16 9 17 26 6 vhcurveto
          3 11 15 2 17 hhcurveto
          hintmask 11101000
          54 52 -39 -57 -44 -32 -46 -69 -49 -19 15 8 -6 hvcurveto
          6 -4 3 8 -6 hhcurveto
          -5 -14 -18 -10 -10 26 -26 61 hvcurveto
          -57 186 rmoveto
          -3 -1 2 2 4 4 5 8 4 hvcurveto
          -11 -2 -3 -6 -3 hhcurveto
          endchar
        </CharString>
        <CharString name="fl">
          34 -7 callgsubr
          563 23 -23 37 hstemhm
          13 33 54 20 19 27 13 30 102 22 hintmask 1101111110000000
          300 35 rmoveto
          -29 -22 -33 callsubr
          -25 -25 21 38 -4 hvcurveto
          43 0 12 23 vvcurveto
          42 72 80 153 133 vvcurveto
          hintmask 1110111110000000
          61 -18 30 -26 -86 -23 -199 -148 vhcurveto
          -92 -1 -51 -18 vvcurveto
          -334 -73 callgsubr
          46 46 47 34 21 hvcurveto
          -48 17 32 -30 -38 callsubr
          -163 -53 -54 callgsubr
          54 -10 callgsubr
          endchar
        </CharString>
        <CharString name="florin">
          6 -232 25 481 27 271 25 hstem
          0 20 124 31 119 21 vstem
          183 275 rmoveto
          -3 callgsubr
          17 6 5 -48 -1 -8 hvcurveto
          -17 hlineto
          141 3 18 130 50 hhcurveto
          35 13 -29 -39 -21 -3 -28 -6 -17 hvcurveto
          6 -3 rlineto
          15 22 9 37 23 vvcurveto
          49 -18 31 -31 -86 -27 -155 -142 -9 vhcurveto
          -19 -19 -1 -20 hhcurveto
          -3 -6 -13 14 callsubr
          62 hlineto
          -3 -64 1 -60 -38 vvcurveto
          -159 -11 -160 -63 -35 -11 28 49 21 4 24 4 15 vhcurveto
          -7 3 rlineto
          -14 -33 -7 -29 -23 vvcurveto
          -61 25 -19 24 128 -2 355 130 vhcurveto
          22 vlineto
          endchar
        </CharString>
        <CharString name="four">
          108 -15 -21 164 35 hstem
          23 36 223 37 vstem
          377 133 rmoveto
          11 25 40 -10 -31 hvcurveto
          1 -31 -13 1 -19 hhcurveto
          142 3 146 14 143 vhcurveto
          11 6 -26 38 -12 -24 rrcurveto
          -1 -2 0 -3 -2 vvcurveto
          -45 -86 -240 -347 -28 vvcurveto
          -19 17 -2 12 1 vhcurveto
          2 41 126 7 41 hhcurveto
          22 hlineto
          -1 -51 -1 -53 -1 -53 rrcurveto
          -8 0 -8 7 9 24 10 18 vhcurveto
          144 vlineto
          24 -1 12 -1 22 -1 rrcurveto
          -95 32 rmoveto
          -24 hlineto
          -51 -1 -148 -13 9 vvcurveto
          42 177 254 66 111 vhcurveto
          -15 -128 -3 -133 -2 -141 rrcurveto
          endchar
        </CharString>
        <CharString name="fraction">
          -158 -6 -21 hstem
          243 621 -85 callsubr
          endchar
        </CharString>
        <CharString name="g">
          -25 callgsubr
          hstem
          8 27 95 37 vstem
          -96 callgsubr
          endchar
        </CharString>
        <CharString name="gbreve">
          -25 callgsubr
          50 24 hstemhm
          8 27 95 37 hintmask 11101100
          -96 callgsubr
          hintmask 00010000
          -123 209 -98 callgsubr
        </CharString>
        <CharString name="gcircumflex">
          -25 callgsubr
          61 -21 95 -20 hstemhm
          8 27 95 37 hintmask 11100110
          -96 callgsubr
          hintmask 00011000
          -116 136 -106 callgsubr
        </CharString>
        <CharString name="gcommaaccent">
          -25 callgsubr
          hstemhm
          8 27 95 37 -37 44 hintmask 11111000
          172 215 rmoveto
          -97 -67 -83 -57 -42 31 -20 34 37 34 22 27 27 hvcurveto
          -17 -86 -24 -145 -164 vvcurveto
          -186 11 -36 8 -10 vhcurveto
          -3 2 3 -1 3 hhcurveto
          6 6 6 4 4 hvcurveto
          5 5 1 4 9 5 -12 125 137 vvcurveto
          164 13 132 10 62 vhcurveto
          23 30 14 30 12 vvcurveto
          3 0 6 -7 -12 -23 -33 -45 -9 vhcurveto
          hintmask 11110100
          -1 -3 -1 -3 -3 vvcurveto
          -18 -18 -27 -17 -38 hhcurveto
          -40 -16 30 20 57 43 35 75 hvcurveto
          36 11 -10 5 hhcurveto
          5 9 12 7 9 -10 12 -37 hvcurveto
          27 -94 rmoveto
          10 17 -9 -25 0 vvcurveto
          0 -2 -5 -5 -6 vhcurveto
          2 9 2 7 2 3 rrcurveto
          -48 134 rmoveto
          13 10 8 15 13 -10 7 -9 1 hvcurveto
          hintmask 11111000
          -11 1 8 26 15 15 3 3 -2 8 -6 -6 rrcurveto
          -28 -25 -5 -21 -17 vvcurveto
          -15 7 -13 15 vhcurveto
          endchar
        </CharString>
        <CharString name="gdotaccent">
          -25 callgsubr
          50 48 hstemhm
          8 27 95 37 hintmask 11101100
          -96 callgsubr
          hintmask 00010000
          -76 168 -75 callsubr
        </CharString>
        <CharString name="germandbls">
          -85 -222 -21 235 29 571 25 hstemhm
          12 32 -32 99 -17 92 -92 110 -45 27 hintmask 11110001
          12 193 rmoveto
          -394 12 -30 8 -9 vhcurveto
          -2 2 3 -1 3 hhcurveto
          6 6 5 3 4 hvcurveto
          5 4 1 4 7 -19 -18 174 294 vvcurveto
          106 -2 257 75 35 7 -40 -47 vhcurveto
          hintmask 11110010
          -107 -65 -85 -66 -97 93 -27 -59 vvcurveto
          -30 -26 -13 -14 -17 -7 8 11 vhcurveto
          4 1 7 3 vvcurveto
          2 -1 3 -3 -4 -15 -23 -19 -12 11 -13 20 23 49 42 57 vhcurveto
          hintmask 11101001
          71 -93 41 59 vvcurveto
          hintmask 11110100
          35 75 106 123 vvcurveto
          61 -25 30 -24 -136 11 -326 -98 vhcurveto
          endchar
        </CharString>
        <CharString name="grave">
          -19 276 -21 106 -20 hstem
          104 332 rmoveto
          22 -20 33 -25 26 -30 rrcurveto
          -2 1 2 0 2 hhcurveto
          5 6 8 6 2 0 2 -1 1 hvcurveto
          -28 26 -21 28 -29 32 rrcurveto
          1 -1 -1 0 -1 hhcurveto
          -8 -12 -17 -8 -23 callgsubr
          4 hvcurveto
          endchar
        </CharString>
        <CharString name="greater">
          101 339 249 -47 callgsubr
        </CharString>
        <CharString name="greaterequal">
          -46 callsubr
          261 184 -47 callgsubr
        </CharString>
        <CharString name="guillemotleft">
          -61 47 -21 202 -20 hstem
          106 228 -58 callsubr
          92 8 -58 callsubr
          endchar
        </CharString>
        <CharString name="guillemotright">
          -61 37 -21 202 -20 hstem
          34 16 -58 callgsubr
          108 -8 -58 callgsubr
          endchar
        </CharString>
        <CharString name="guilsinglleft">
          -161 47 -21 202 -20 hstem
          106 228 -58 callsubr
          endchar
        </CharString>
        <CharString name="guilsinglright">
          -161 37 -21 202 -20 hstem
          35 16 -58 callgsubr
          endchar
        </CharString>
        <CharString name="h">
          -107 0 208 -29 29 419 -20 hstemhm
          30 37 0 64 hintmask 01101000
          -40 callgsubr
          hintmask 10110000
          -63 callsubr
          endchar
        </CharString>
        <CharString name="hbar">
          -107 0 208 -29 29 -29 197 251 -20 hstemhm
          30 34 hintmask 01011000
          -40 callgsubr
          hintmask 10011000
          -67 callsubr
          18 15 132 7 133 hvcurveto
          3 45 48 3 42 hhcurveto
          4 6 3 6 hvcurveto
          hintmask 00111000
          5 -78 -1 -8 -16 -21 0 -1 -22 vhcurveto
          2 35 1 34 32 -59 callsubr
          vvcurveto
          -48 -53 vlineto
          -22 callgsubr
          18 20 1 1 20 hvcurveto
          -2 -155 -7 -96 -30 vvcurveto
          endchar
        </CharString>
        <CharString name="hcircumflex">
          -107 0 208 -29 29 419 -20 75 -21 95 -20 hstemhm
          30 37 0 64 hintmask 01100010
          -40 callgsubr
          hintmask 10100100
          -63 callsubr
          hintmask 00011000
          -37 589 -106 callgsubr
        </CharString>
        <CharString name="hungarumlaut">
          -19 276 -21 100 -20 hstem
          84 258 -77 callgsubr
          90 hmoveto
          -107 callgsubr
          endchar
        </CharString>
        <CharString name="hyphen">
          -45 callsubr
        </CharString>
        <CharString name="i">
          -192 9 25 290 -20 hstemhm
          15 30 -30 53 hintmask 11100000
          -90 callgsubr
          12 121 -25 callsubr
          hintmask 11010000
          15 12 11 19 hvcurveto
          hintmask 11100000
          16 -7 13 -16 vhcurveto
          endchar
        </CharString>
        <CharString name="iacute">
          -28 callgsubr
          81 -21 100 -20 hstemhm
          15 30 hintmask 11001000
          -90 callgsubr
          hintmask 00110000
          9 43 -77 callgsubr
          endchar
        </CharString>
        <CharString name="ibreve">
          -28 callgsubr
          70 24 hstemhm
          15 30 hintmask 11010000
          -90 callgsubr
          hintmask 00100000
          -57 115 -98 callgsubr
        </CharString>
        <CharString name="icircumflex">
          -28 callgsubr
          81 -21 95 -20 hstemhm
          15 30 hintmask 11001000
          -90 callgsubr
          hintmask 00110000
          -50 42 -106 callgsubr
        </CharString>
        <CharString name="idieresis">
          -28 callgsubr
          74 44 hstemhm
          15 30 hintmask 11010000
          -90 callgsubr
          hintmask 00100000
          -50 76 -99 callgsubr
        </CharString>
        <CharString name="igrave">
          -28 callgsubr
          81 -21 106 -20 hstemhm
          15 30 hintmask 11001000
          -90 callgsubr
          hintmask 00110000
          -50 117 rmoveto
          22 -20 33 -25 26 -30 rrcurveto
          -2 1 2 0 2 hhcurveto
          5 6 8 6 2 0 2 -1 1 hvcurveto
          -28 26 -21 28 -29 32 rrcurveto
          1 -1 -1 0 -1 hhcurveto
          -8 -12 -17 -8 -23 callgsubr
          4 hvcurveto
          endchar
        </CharString>
        <CharString name="ij">
          -64 -470 22 457 25 318 -20 hstemhm
          15 30 -17 40 77 39 -39 53 hintmask 11101100
          28 -377 rmoveto
          -61 29 -32 32 49 46 99 196 46 -1 29 -1 26 vhcurveto
          31 42 33 48 30 67 -7 7 rcurveline
          -29 -60 -30 -46 -29 -40 rrcurveto
          -2 38 -2 37 81 81 5 57 2 vvcurveto
          1 0 4 -4 -4 -17 -14 -5 -4 vhcurveto
          -2 -2 -3 -5 -6 -4 -3 -78 -26 vvcurveto
          -12 vlineto
          -32 -19 -26 -27 -26 hhcurveto
          hintmask 11110010
          -68 callgsubr
          -19 callgsubr
          21 -17 27 39 27 37 31 16 vhcurveto
          -73 3 -44 2 -56 vhcurveto
          hintmask 11101010
          -67 -87 -55 -62 -132 vvcurveto
          124 187 rmoveto
          -124 -10 -134 -40 -33 -13 53 38 113 42 59 53 70 vhcurveto
          -22 1 -24 -29 vvcurveto
          21 542 rmoveto
          -13 -12 -13 -21 -22 13 -8 10 14 13 10 23 21 -10 10 -15 hvcurveto
          hintmask 11110100
          -128 -28 -25 callsubr
          hintmask 11101100
          15 12 11 19 hvcurveto
          hintmask 11110100
          16 -7 13 -16 vhcurveto
          endchar
        </CharString>
        <CharString name="imacron">
          -28 callgsubr
          85 25 -7 -21 hstemhm
          15 30 hintmask 11001000
          -90 callgsubr
          hintmask 00010000
          -45 62 rmoveto
          hintmask 00100000
          -84 callgsubr
          hintmask 00010000
          -36 callgsubr
        </CharString>
        <CharString name="iogonek">
          -192 -99 23 84 26 290 -20 hstemhm
          15 30 -30 53 hintmask 11110000
          33 203 rmoveto
          -19 callgsubr
          22 -19 32 1 hvcurveto
          -27 -22 -17 -24 -23 -70 callgsubr
          -22 -8 -21 hhcurveto
          -19 -8 12 11 19 21 32 22 13 hvcurveto
          42 26 23 60 6 18 -3 2 rcurveline
          -40 -20 -31 -43 -33 hhcurveto
          -68 callgsubr
          vhcurveto
          12 121 -25 callsubr
          hintmask 11101000
          15 12 11 19 hvcurveto
          hintmask 11110000
          16 -7 13 -16 vhcurveto
          endchar
        </CharString>
        <CharString name="itilde">
          -28 callgsubr
          70 5 callsubr
          15 30 hintmask 11000100
          -90 callgsubr
          hintmask 00101000
          -58 62 -98 callsubr
          hintmask 00011000
          -64 callgsubr
        </CharString>
        <CharString name="j">
          -191 -470 22 800 -20 hstemhm
          -99 28 89 39 -39 53 hintmask 11110000
          -80 callgsubr
          21 542 rmoveto
          -13 -12 -13 -21 -22 13 -8 10 hvcurveto
          hintmask 11101000
          14 13 10 23 21 -10 10 -15 hvcurveto
          endchar
        </CharString>
        <CharString name="jcircumflex">
          -191 -470 22 693 -20 81 -21 95 -20 hstemhm
          -99 28 89 39 hintmask 11001100
          -80 callgsubr
          hintmask 00110000
          -52 477 -106 callgsubr
        </CharString>
        <CharString name="k">
          -88 16 8 callsubr
          115 27 -15 34 hintmask 01111010
          19 11 rmoveto
          18 5 28 10 2 hvcurveto
          3 12 36 55 17 21 rrcurveto
          -44 callgsubr
          hintmask 10011100
          -33 callgsubr
          vvcurveto
          hintmask 01111010
          -6 callgsubr
          hintmask 01111100
          -52 callgsubr
          endchar
        </CharString>
        <CharString name="kcommaaccent">
          -88 -17 -20 53 8 callsubr
          4 45 66 27 -15 34 hintmask 0011110010000000
          19 11 rmoveto
          18 5 28 10 2 hvcurveto
          3 12 36 55 17 21 rrcurveto
          -44 callgsubr
          hintmask 0100110100000000
          -33 callgsubr
          vvcurveto
          hintmask 0011110010000000
          -6 callgsubr
          hintmask 0011110100000000
          -52 callgsubr
          hintmask 1000001000000000
          27 -281 -95 callgsubr
        </CharString>
        <CharString name="kgreenlandic">
          -88 11 195 -24 24 12 -20 hstemhm
          24 30 125 34 hintmask 10011000
          24 48 rmoveto
          -14 -12 -5 -9 vvcurveto
          -5 5 -4 2 18 5 28 10 2 vhcurveto
          3 12 36 55 17 21 rrcurveto
          hintmask 01011000
          -44 callgsubr
          -33 callgsubr
          7 104 37 58 vvcurveto
          15 -7 8 -22 1 vhcurveto
          -54 2 -60 -88 -27 -43 rrcurveto
          9 hlineto
          0 2 35 27 vvcurveto
          hintmask 00111000
          22 0 57 -8 -4 -9 -7 -2 -3 vhcurveto
          -37 callgsubr
          vvcurveto
          -82 1 20 -1 -55 vhcurveto
          endchar
        </CharString>
        <CharString name="l">
          18 callgsubr
          hstem
          -6 30 102 22 vstem
          -89 callsubr
          endchar
        </CharString>
        <CharString name="lacute">
          18 callgsubr
          74 -21 100 -20 hstemhm
          -6 30 102 22 hintmask 11001100
          -89 callsubr
          hintmask 00110000
          58 341 -77 callgsubr
          endchar
        </CharString>
        <CharString name="lcaron">
          -71 12 23 596 -20 24 -20 hstemhm
          -6 30 102 22 38 52 hintmask 11011000
          -89 callsubr
          hintmask 00100100
          189 309 rmoveto
          -27 callsubr
        </CharString>
        <CharString name="lcommaaccent">
          -151 -31 -20 63 23 596 -20 hstemhm
          -6 30 38 45 19 22 hintmask 01110100
          -89 callsubr
          hintmask 10001000
          61 -357 -95 callgsubr
        </CharString>
        <CharString name="ldotaccent">
          -60 12 23 197 -21 59 -20 381 -20 hstemhm
          -6 30 102 22 7 51 hintmask 10011100
          -89 callsubr
          hintmask 01100010
          159 -56 rmoveto
          -76 callgsubr
          endchar
        </CharString>
        <CharString name="less">
          101 81 273 -48 callsubr
        </CharString>
        <CharString name="lessequal">
          -46 callsubr
          3 208 -48 callsubr
        </CharString>
        <CharString name="logicalnot">
          101 134 -21 180 29 hstem
          343 29 vstem
          374 124 rmoveto
          41 -2 29 47 vvcurveto
          28 1 20 2 27 vhcurveto
          -36 callsubr
          -1 vhcurveto
          3 -10 -73 1 -14 -72 -62 -3 -73 -29 callsubr
          hvcurveto
          67 61 3 71 hhcurveto
          32 26 -1 -2 30 hvcurveto
          -2 -19 0 -15 -20 -45 3 -28 -46 vvcurveto
          -3 3 -1 5 8 12 5 6 vhcurveto
          endchar
        </CharString>
        <CharString name="lslash">
          18 callgsubr
          hstem
          -6 30 102 22 vstem
          194 108 rmoveto
          -19 -11 -28 -54 -40 hhcurveto
          -35 -24 49 62 -14 hvcurveto
          22 18 23 18 30 21 2 1 3 4 -1 5 rrcurveto
          1 0 2 -2 vhcurveto
          -10 -3 -56 -39 -6 -5 -3 -2 -3 -2 -2 -2 -3 13 -2 13 -2 13 rrcurveto
          64 88 52 84 123 vvcurveto
          91 -16 43 -36 -73 -29 -198 -141 -58 5 -50 9 -42 vhcurveto
          -13 -9 -13 -10 -16 -11 -2 -1 -1 -5 2 -5 1 -6 4 -6 3 2 15 11 13 10 12 10 rrcurveto
          -70 20 33 -40 42 hhcurveto
          53 33 85 9 3 hvcurveto
          -173 220 rmoveto
          100 18 187 41 29 14 -61 -89 -104 -64 -95 -32 -43 vhcurveto
          -5 37 -1 37 31 vvcurveto
          endchar
        </CharString>
        <CharString name="m">
          20 9 192 -192 204 40 -20 hstemhm
          20 32 93 29 -29 139 hintmask 10111000
          26 250 rmoveto
          -2 -1 -23 -9 -6 -7 19 12 -27 vvcurveto
          -167 vlineto
          -26 10 -5 6 8 5 3 11 8 vhcurveto
          9 14 41 99 9 21 rrcurveto
          17 7 5 5 7 hhcurveto
          5 5 -2 -18 hvcurveto
          -55 vlineto
          -71 -4 -29 19 18 17 59 24 9 vhcurveto
          35 13 15 49 9 hhcurveto
          5 1 -4 -7 1 hvcurveto
          -84 7 -16 -67 50 hhcurveto
          8 10 4 3 hvcurveto
          hintmask 10110100
          4 -21 5 -2 29 vhcurveto
          -2 22 -3 79 15 vvcurveto
          24 -22 2 -6 -20 -10 -32 -61 -23 vhcurveto
          hintmask 01111000
          -32 -12 -9 -28 -3 hhcurveto
          -1 0 2 4 hvcurveto
          6 1 66 31 vvcurveto
          40 -8 16 -19 -27 -11 -39 -53 -23 vhcurveto
          -32 -14 -13 -36 -5 hhcurveto
          -2 -1 4 7 hvcurveto
          12 1 105 30 vvcurveto
          32 -7 10 -12 -2 -3 -1 -2 -2 vhcurveto
          endchar
        </CharString>
        <CharString name="macron">
          -19 280 25 -7 -21 hstemhm
          hintmask 01000000
          91 277 rmoveto
          hintmask 10000000
          -84 callgsubr
          hintmask 01000000
          -36 callgsubr
        </CharString>
        <CharString name="minus">
          101 253 29 -11 -21 hstemhm
          hintmask 01000000
          68 250 rmoveto
          hintmask 10000000
          67 51 3 71 hhcurveto
          hintmask 01000000
          36 26 -1 -2 36 hvcurveto
          7 12 21 6 hvcurveto
          hintmask 10000000
          5 -83 0 -15 vhcurveto
          -72 -52 -3 -73 hhcurveto
          -6 -7 -17 -8 hvcurveto
          hintmask 01000000
          -3 -36 callsubr
          vhcurveto
          endchar
        </CharString>
        <CharString name="mu">
          -78 -156 -21 187 32 -32 195 1 -20 hstemhm
          42 28 101 28 hintmask 11011100
          171 100 rmoveto
          -67 3 9 -23 35 hhcurveto
          26 3 11 3 -36 callsubr
          -1 hvcurveto
          -3 -4 -2 -6 hhcurveto
          -57 callsubr
          2 -23 callgsubr
          -11 -14 -2 -6 -1 vhcurveto
          -5 -23 -5 -43 -11 -28 rrcurveto
          -22 -9 -17 -40 -28 hhcurveto
          -28 3 81 43 hvcurveto
          hintmask 10101100
          21 -7 18 -21 -55 callgsubr
          vhcurveto
          1 3 1 3 hhcurveto
          18 -7 -82 -28 -36 -14 -216 10 -6 hvcurveto
          -1 2 3 -1 3 hhcurveto
          6 2 4 2 4 hvcurveto
          5 3 1 2 5 22 -6 64 142 2 4 3 -5 vvcurveto
          -18 5 -36 27 52 19 111 7 3 vhcurveto
          2 8 2 -3 -4 -4 -1 -18 -10 vvcurveto
          endchar
        </CharString>
        <CharString name="multiply">
          101 360 145 rmoveto
          -33 33 -48 45 -42 41 7 7 7 6 6 7 25 25 56 54 26 24 5 5 -14 15 -4 5 -4 3 -87 -87 -10 -11 -10 -10 -12 -11 -11 -12 -7 7 -6 7 -6 6 rrcurveto
          -30 30 -49 51 -27 29 -1 1 -1 0 -2 -1 -5 -6 -15 -11 4 -4 24 -27 55 -56 25 -25 6 -7 8 -7 7 -7 -121 -121 rcurveline
          -4 -4 15 -12 6 -6 2 -2 -49 callgsubr
          1 35 35 44 46 41 43 42 -40 45 -43 38 -37 3 -4 4 1 3 3 6 6 8 9 -6 6 rrcurveto
          endchar
        </CharString>
        <CharString name="n">
          -97 -9 callgsubr
          hstemhm
          19 26 0 94 hintmask 01110000
          42 -83 callsubr
          hintmask 10101000
          -94 callsubr
          endchar
        </CharString>
        <CharString name="nacute">
          -97 -9 callgsubr
          85 -21 100 -20 hstemhm
          19 26 0 94 hintmask 01100100
          42 -83 callsubr
          hintmask 10100010
          -94 callsubr
          hintmask 00011000
          48 47 -77 callgsubr
          endchar
        </CharString>
        <CharString name="napostrophe">
          -87 -9 callgsubr
          126 -20 hstemhm
          -12 45 -4 26 0 94 hintmask 01100100
          52 -83 callsubr
          hintmask 10100010
          -94 callsubr
          hintmask 00011000
          -41 106 -95 callgsubr
        </CharString>
        <CharString name="nbspace">
          -149 endchar
        </CharString>
        <CharString name="ncaron">
          -97 -9 callgsubr
          85 20 callgsubr
          hstemhm
          19 26 0 94 hintmask 01100010
          42 -83 callsubr
          hintmask 10100001
          -94 callsubr
          hintmask 00011000
          116 134 -103 callsubr
          hintmask 00010100
          -71 callsubr
        </CharString>
        <CharString name="ncommaaccent">
          -97 -41 -20 71 183 -29 29 25 -20 hstemhm
          19 26 0 94 -60 45 hintmask 00111000
          42 -83 callsubr
          hintmask 01010100
          -94 callsubr
          hintmask 10000010
          60 -259 -95 callgsubr
        </CharString>
        <CharString name="nine">
          136 -17 -21 269 35 319 32 hstemhm
          46 25 312 29 -14 27 hintmask 11110100
          306 -24 rmoveto
          -12 -2 4 -2 7 hhcurveto
          12 17 6 7 59 -1 158 11 114 hvcurveto
          9 9 9 8 6 7 rrcurveto
          26 29 21 43 29 vvcurveto
          18 -12 13 -12 -38 -23 -73 -88 -14 vhcurveto
          -21 -32 -43 -14 -55 hhcurveto
          -68 -57 35 77 87 68 120 134 hvcurveto
          hintmask 11111000
          67 43 -27 -74 hvcurveto
          -4 1 2 -1 4 hhcurveto
          8 13 11 27 1 hvcurveto
          56 -11 -33 44 -78 hhcurveto
          -120 -124 -131 -123 -62 29 -70 99 60 51 24 27 38 hvcurveto
          -17 -128 0 -154 -24 vvcurveto
          85 459 rmoveto
          hintmask 11110100
          6 1 -8 -5 -30 -14 -36 -28 -30 hvcurveto
          63 7 10 46 18 hhcurveto
          endchar
        </CharString>
        <CharString name="notequal">
          101 54 -21 167 30 70 32 156 -20 hstem
          68 200 rmoveto
          46 29 0 1 37 hvcurveto
          -63 -153 rlineto
          13 callsubr
          20 53 20 52 21 53 rrcurveto
          35 hlineto
          36 38 -15 callgsubr
          5 -93 -2 -15 hvcurveto
          -42 hlineto
          9 24 10 24 10 25 rrcurveto
          4 hlineto
          -34 callsubr
          -11 hlineto
          19 47 20 49 22 54 1 2 rcurveline
          3 -5 1 -5 -3 -8 -1 -2 -1 vhcurveto
          -22 -53 -21 -51 -20 -49 rrcurveto
          -1 -53 -39 -2 -61 -29 callsubr
          58 39 2 1 56 hvcurveto
          -10 -25 -10 -24 -9 -24 rrcurveto
          -1 -37 -31 0 -48 hhcurveto
          -6 -4 -8 callsubr
          hvcurveto
          endchar
        </CharString>
        <CharString name="ntilde">
          -97 -9 callgsubr
          74 5 callsubr
          19 26 0 94 hintmask 01100010
          42 -83 callsubr
          hintmask 10100001
          -94 callsubr
          hintmask 00010100
          -13 66 -98 callsubr
          hintmask 00001100
          -64 callgsubr
        </CharString>
        <CharString name="numbersign">
          101 220 25 148 27 hstem
          77 393 rmoveto
          86 hlineto
          -16 -49 -15 -49 -14 -50 rrcurveto
          -69 hlineto
          -7 -24 -26 1 15 hvcurveto
          25 1 26 0 27 1 -16 -54 -17 -55 -17 -56 -4 -14 33 12 -1 11 14 55 14 51 14 50 36 1 37 0 38 -1 -15 -59 -16 -57 -17 -49 -8 -23 31 16 5 16 rrcurveto
          14 51 13 52 13 52 rrcurveto
          26 26 -2 -1 25 hvcurveto
          8 15 26 -7 hhcurveto
          -87 3 12 48 12 50 15 49 rlinecurve
          25 26 -2 -1 26 hvcurveto
          7 16 26 -7 hhcurveto
          -29 1 -28 1 -28 1 15 49 17 50 21 50 4 9 -28 -1 -7 -13 -17 -44 -15 -49 -13 -51 rrcurveto
          -99 hlineto
          17 49 19 49 22 51 8 8 -41 1 2 -14 -18 -49 -16 -48 -15 -48 rrcurveto
          -78 hlineto
          -9 -15 -26 8 hhcurveto
          107 1 rmoveto
          33 34 1 -1 34 hvcurveto
          -13 -49 -12 -50 -12 -48 rrcurveto
          -37 -37 -1 -37 hhcurveto
          15 50 15 49 17 49 rrcurveto
          endchar
        </CharString>
        <CharString name="o">
          -39 callsubr
          hstem
          -29 callgsubr
          vstem
          -88 callgsubr
          endchar
        </CharString>
        <CharString name="o_r">
          134 19 callgsubr
          hstemhm
          -29 callgsubr
          47 122 -23 23 hintmask 11111010
          83 6 rmoveto
          44 49 40 59 11 hvcurveto
          9 hlineto
          35 35 24 47 6 hvcurveto
          -1 5 6 -1 7 21 10 3 7 hhcurveto
          6 14 -2 -18 hvcurveto
          -20 -12 -52 -29 vvcurveto
          -23 6 -34 35 42 50 59 48 14 15 callgsubr
          -48 -26 -32 -29 -27 hhcurveto
          -30 -6 20 25 hvcurveto
          11 9 59 16 vvcurveto
          13 -3 31 -33 vhcurveto
          -14 -14 -3 -17 hhcurveto
          -6 -4 0 2 -4 hvcurveto
          28 -1 -6 18 -14 hhcurveto
          hintmask 11111100
          21 callsubr
          -48 -4 -37 -17 -23 hhcurveto
          -6 hlineto
          5 1 5 5 vvcurveto
          54 -27 29 -41 -51 -61 -53 -73 -54 30 -29 43 vhcurveto
          17 25 rmoveto
          -43 -20 43 41 52 32 22 30 43 20 -36 -43 -52 -30 -27 -32 hvcurveto
          155 193 rmoveto
          2 -49 callgsubr
          vhcurveto
          0 1 -5 1 -7 vhcurveto
          -3 3 -1 4 3 vvcurveto
          endchar
        </CharString>
        <CharString name="oacute">
          -39 callsubr
          61 -21 100 -20 hstemhm
          -29 callgsubr
          hintmask 11001100
          -88 callgsubr
          hintmask 00110000
          21 252 -77 callgsubr
          endchar
        </CharString>
        <CharString name="obreve">
          -39 callsubr
          50 24 hstemhm
          -29 callgsubr
          hintmask 11011000
          -88 callgsubr
          hintmask 00100000
          -45 324 -98 callgsubr
        </CharString>
        <CharString name="ocircumflex">
          -39 callsubr
          61 -21 95 -20 hstemhm
          -29 callgsubr
          hintmask 11001100
          -88 callgsubr
          hintmask 00110000
          -38 251 -106 callgsubr
        </CharString>
        <CharString name="odieresis">
          -39 callsubr
          54 44 hstemhm
          -29 callgsubr
          hintmask 11011000
          -88 callgsubr
          hintmask 00100000
          -38 285 -99 callgsubr
        </CharString>
        <CharString name="oe">
          49 -6 25 -13 25 158 26 10 23 hstemhm
          10 27 125 26 hintmask 10111100
          256 -28 callsubr
          4 7 14 5 4 -2 3 -4 1 hvcurveto
          5 -15 -15 2 -14 hhcurveto
          -44 -39 -20 -34 -7 hvcurveto
          14 -12 -17 7 -20 hhcurveto
          -51 -61 -53 -73 hvcurveto
          hintmask 01111100
          -54 30 -29 43 28 29 16 26 21 vhcurveto
          hintmask 10111100
          -34 6 34 -20 46 hhcurveto
          83 46 48 64 22 -44 callsubr
          -21 -12 -30 -68 -97 hhcurveto
          hintmask 01111100
          -156 12 rmoveto
          -43 -20 43 41 52 32 22 30 43 20 -36 -43 -52 -30 -27 -32 hvcurveto
          90 101 rmoveto
          4 0 5 -1 4 vhcurveto
          15 -10 19 -2 0 vvcurveto
          -6 -3 -15 -5 -13 -11 rrcurveto
          6 1 6 6 vvcurveto
          endchar
        </CharString>
        <CharString name="ogonek">
          -19 -119 23 96 -20 hstem
          88 22 vstem
          138 hmoveto
          -26 -24 -24 -30 -27 -70 callgsubr
          -22 -8 -21 hhcurveto
          -20 -7 12 11 22 24 34 20 17 hvcurveto
          endchar
        </CharString>
        <CharString name="ograve">
          -39 callsubr
          61 -21 106 -20 hstemhm
          -29 callgsubr
          hintmask 11001100
          -88 callgsubr
          hintmask 00110000
          -38 326 rmoveto
          22 -20 33 -25 26 -30 rrcurveto
          -2 1 2 0 2 hhcurveto
          5 6 8 6 2 0 2 -1 1 hvcurveto
          -28 26 -21 28 -29 32 rrcurveto
          1 -1 -1 0 -1 hhcurveto
          -8 -12 -17 -8 -23 callgsubr
          4 hvcurveto
          endchar
        </CharString>
        <CharString name="ohungarumlaut">
          -39 callsubr
          61 -21 100 -20 hstemhm
          -29 callgsubr
          hintmask 11001100
          -88 callgsubr
          hintmask 00110000
          -34 252 -77 callgsubr
          90 hmoveto
          -107 callgsubr
          endchar
        </CharString>
        <CharString name="omacron">
          -39 callsubr
          65 25 -7 -21 hstemhm
          -29 callgsubr
          hintmask 11001100
          -88 callgsubr
          hintmask 00010000
          -33 271 rmoveto
          hintmask 00100000
          -84 callgsubr
          hintmask 00010000
          -36 callgsubr
        </CharString>
        <CharString name="one">
          -80 -12 -21 651 -20 hstemhm
          130 32 -19 35 hintmask 11100000
          135 -20 rmoveto
          -9 1 2 -4 6 hhcurveto
          12 17 8 7 hvcurveto
          22 -11 132 56 vvcurveto
          hintmask 11010000
          231 6 32 10 133 vhcurveto
          1 11 0 7 4 vvcurveto
          5 -8 3 -8 -26 -72 -88 -65 -55 vhcurveto
          8 -9 rlineto
          47 42 57 62 20 hhcurveto
          5 1 -6 -6 hvcurveto
          hintmask 11100000
          -45 -13 -97 -202 vvcurveto
          -55 0 -128 5 -46 vhcurveto
          endchar
        </CharString>
        <CharString name="onehalf">
          280 -25 24 -5 -21 209 23 149 26 hstemhm
          108 27 -27 198 238 30 hintmask 10110110
          521 20 rmoveto
          -10 -7 -6 -11 -25 hhcurveto
          -20 -21 8 8 -21 hvcurveto
          64 51 89 109 106 vvcurveto
          64 -40 35 -65 -72 -105 -71 -81 -22 8 -24 24 18 11 24 6 2 15 callgsubr
          -2 -4 -7 -7 -12 hhcurveto
          -16 -7 10 13 75 83 51 78 44 33 -30 -49 -106 -77 -107 -58 -42 hvcurveto
          4 -12 -12 3 -11 hhcurveto
          -15 -19 -6 -15 -10 10 -6 17 8 17 5 11 8 callgsubr
          -119 603 rmoveto
          -127 -234 -88 -188 -117 -211 rrcurveto
          hintmask 01111010
          -9 -5 10 -6 9 hhcurveto
          4 -1 4 2 2 7 112 210 90 176 132 245 rrcurveto
          0 1 2 -1 1 vhcurveto
          2 5 -4 3 -5 -1 rrcurveto
          -6 2 -13 -1 -2 vvcurveto
          -294 -399 -35 callgsubr
          13 vlineto
          -54 callsubr
          255 -217 -12 callgsubr
        </CharString>
        <CharString name="onequarter">
          189 -6 -21 102 29 hstem
          108 27 110 29 139 30 vstem
          475 -56 callgsubr
          -69 543 -85 callsubr
          7 -516 rmoveto
          -15 hlineto
          -33 -91 -8 5 25 104 140 47 73 hvcurveto
          -9 -75 -2 -78 -1 -82 rrcurveto
          -301 117 -35 callgsubr
          13 vlineto
          -54 callsubr
          endchar
        </CharString>
        <CharString name="onesuperior">
          -145 235 -21 403 -20 hstem
          88 27 vstem
          92 222 -35 callgsubr
          6 0 5 2 vvcurveto
          -54 callsubr
          endchar
        </CharString>
        <CharString name="ordfeminine">
          -55 361 23 -5 -21 58 25 -25 201 hstemhm
          39 27 92 40 hintmask 10101100
          261 459 rmoveto
          -12 -12 -13 -6 -16 hhcurveto
          -20 -16 10 21 -8 hvcurveto
          13 22 9 25 21 vvcurveto
          17 -8 6 -5 -8 -19 -10 -54 -12 1 -10 2 -9 vhcurveto
          -13 -12 -16 -10 -22 hhcurveto
          -27 -18 24 32 42 37 60 53 hvcurveto
          37 5 -31 11 hhcurveto
          8 11 3 9 hvcurveto
          hintmask 01011100
          8 -15 25 -49 -65 -60 -70 -63 -37 20 -31 32 29 26 17 23 19 vhcurveto
          -27 10 21 -9 16 hhcurveto
          22 19 17 21 11 hvcurveto
          -217 -100 rmoveto
          hintmask 10101100
          1 32 44 -6 callsubr
          -44 -2 -41 hhcurveto
          hintmask 01101100
          -10 -5 -24 8 hhcurveto
          123 153 rmoveto
          20 7 15 5 3 1 -5 -6 -14 -5 -19 -9 -17 vhcurveto
          -1 8 -1 8 10 vvcurveto
          endchar
        </CharString>
        <CharString name="ordmasculine">
          -93 361 23 -5 -21 61 23 150 25 hstemhm
          45 26 119 26 hintmask 01111100
          131 442 rmoveto
          -41 -19 41 39 50 31 20 28 41 19 -34 -41 -49 -29 -26 -30 hvcurveto
          -16 -23 rmoveto
          48 53 50 69 52 -25 27 -39 -49 -58 -50 -70 -51 29 -27 41 hvcurveto
          -72 -61 rmoveto
          hintmask 10111100
          1 32 14 -6 callsubr
          -14 -2 -41 hhcurveto
          hintmask 01111100
          -10 -5 -24 8 hhcurveto
          endchar
        </CharString>
        <CharString name="oslash">
          -39 callsubr
          49 -20 hstem
          -29 callgsubr
          vstem
          -74 callsubr
          endchar
        </CharString>
        <CharString name="oslashacute">
          -39 callsubr
          49 -20 32 -21 100 -20 hstemhm
          -29 callgsubr
          hintmask 11100110
          -74 callsubr
          hintmask 00011000
          66 143 -77 callgsubr
          endchar
        </CharString>
        <CharString name="otilde">
          -39 callsubr
          50 5 callsubr
          -29 callgsubr
          hintmask 11000110
          -88 callgsubr
          hintmask 00101000
          -46 271 -98 callsubr
          hintmask 00011000
          -64 callgsubr
        </CharString>
        <CharString name="p">
          -80 -567 22 704 29 107 -20 hstemhm
          -96 28 89 32 -32 46 119 33 hintmask 11111010
          55 295 rmoveto
          -5 -29 -80 -154 hvcurveto
          -49 vlineto
          -67 -136 -50 -187 -1 callsubr
          hintmask 11111010
          99 -8 77 -6 94 vhcurveto
          68 37 38 43 30 -20 callsubr
          -2 38 -1 40 46 vvcurveto
          46 13 56 -7 vhcurveto
          -23 -537 16 callgsubr
          133 41 150 49 112 vhcurveto
          3 -85 7 -27 -115 vvcurveto
          endchar
        </CharString>
        <CharString name="paragraph">
          48 49 -21 638 -20 hstemhm
          50 182 -31 31 32 28 -28 73 hintmask 11101000
          264 640 rmoveto
          -11 -191 12 -194 -191 vvcurveto
          -1 -1 2 -32 15 callsubr
          -10 201 -10 193 15 192 rrcurveto
          22 -5 16 -12 -26 vvcurveto
          -11 -3 -13 -5 -12 vhcurveto
          5 -2 rlineto
          hintmask 11100100
          10 20 5 19 12 vvcurveto
          47 -48 12 -52 -91 -96 -64 -93 -117 87 -32 56 vhcurveto
          hintmask 11011000
          8 hlineto
          2 -105 3 -104 -103 vvcurveto
          -1 -1 1 -16 15 callsubr
          -11 204 -1 175 6 211 rrcurveto
          13 13 0 -1 12 hvcurveto
          endchar
        </CharString>
        <CharString name="parenleft">
          31 -90 -21 812 -20 hstem
          56 33 vstem
          237 701 rmoveto
          -96 -108 -85 -174 -145 vvcurveto
          -145 61 -131 101 -104 vhcurveto
          -3 3 4 -2 3 hhcurveto
          11 16 19 8 3 -4 0 -2 1 hvcurveto
          -102 104 -58 130 140 vvcurveto
          148 59 140 97 112 vhcurveto
          endchar
        </CharString>
        <CharString name="parenright">
          31 -84 -21 816 -20 hstem
          244 32 vstem
          93 -105 rmoveto
          100 112 83 166 152 vvcurveto
          142 -62 133 -101 105 vhcurveto
          4 -1 -2 2 -2 hhcurveto
          -9 -19 -19 -9 -2 1 -1 2 -1 hvcurveto
          106 -105 55 -138 -125 vvcurveto
          -149 -64 -144 -94 -116 vhcurveto
          endchar
        </CharString>
        <CharString name="partialdiff">
          -70 6 25 158 26 250 -20 hstem
          59 27 125 28 vstem
          132 6 rmoveto
          51 56 53 73 126 -91 207 -79 -25 -25 -22 -52 -19 hvcurveto
          8 -3 rlineto
          42 13 17 17 19 hhcurveto
          57 72 -157 -83 17 hvcurveto
          5 -9 -11 3 -12 hhcurveto
          -51 -61 -53 -73 -54 30 -29 43 hvcurveto
          17 25 rmoveto
          -43 -20 43 41 52 32 22 30 43 20 -36 -43 -52 -30 -27 -32 hvcurveto
          endchar
        </CharString>
        <CharString name="percent">
          143 -15 callsubr
          hintmask 1111111010000000
          141 380 rmoveto
          -73 callsubr
          265 265 -85 callsubr
          -55 -600 rmoveto
          hintmask 1111110110000000
          -73 callsubr
          endchar
        </CharString>
        <CharString name="period">
          -188 37 -21 59 -20 hstem
          40 51 vstem
          68 75 rmoveto
          -76 callgsubr
          endchar
        </CharString>
        <CharString name="periodcentered">
          -188 232 -21 59 -20 hstem
          47 51 vstem
          75 270 rmoveto
          -76 callgsubr
          endchar
        </CharString>
        <CharString name="perthousand">
          375 -15 callsubr
          30 28 144 30 hintmask 1111111011100000
          141 380 rmoveto
          -73 callsubr
          265 265 -85 callsubr
          -55 -600 rmoveto
          hintmask 1111110111100000
          -73 callsubr
          242 24 rmoveto
          -73 callsubr
          endchar
        </CharString>
        <CharString name="plus">
          101 124 -21 150 29 152 -20 hstem
          204 26 vstem
          232 119 rmoveto
          44 -2 43 47 vvcurveto
          27 hlineto
          -34 callsubr
          -46 27 hlineto
          42 1 41 2 40 vhcurveto
          -36 callsubr
          -2 -8 -18 -10 -6 vhcurveto
          -2 -36 -1 -36 -35 vvcurveto
          -30 -11 callsubr
          -47 2 -45 -50 20 callsubr
          endchar
        </CharString>
        <CharString name="plusminus">
          101 66 29 -9 -21 193 29 137 -20 hstemhm
          204 28 hintmask 01111000
          232 149 rmoveto
          41 -1 31 -1 37 vhcurveto
          27 hlineto
          -34 callsubr
          -46 32 hlineto
          42 1 21 2 40 vhcurveto
          -36 callsubr
          -2 -8 -18 -10 -6 vhcurveto
          -2 -36 -1 -16 -35 vvcurveto
          -35 -11 callsubr
          -37 2 -33 -47 20 callsubr
          -164 -84 rmoveto
          hintmask 10111000
          67 31 1 71 hhcurveto
          hintmask 01111000
          36 38 -15 callgsubr
          hvcurveto
          hintmask 10111000
          5 -93 -2 -15 vhcurveto
          -72 -35 -1 -73 hhcurveto
          -6 -4 -17 -8 hvcurveto
          hintmask 01111000
          -3 -36 callsubr
          vhcurveto
          endchar
        </CharString>
        <CharString name="q">
          -73 -484 -21 505 28 -28 209 72 -20 hstemhm
          2 31 99 35 -23 72 12 28 hintmask 10111101
          142 209 rmoveto
          -69 -71 -62 -69 -54 36 -24 30 36 23 23 16 11 hvcurveto
          -4 -148 -2 -180 -94 vvcurveto
          -74 18 -48 33 60 13 98 48 156 -34 54 -55 114 vhcurveto
          2 82 1 77 1 56 rrcurveto
          10 -7 7 -10 -14 vvcurveto
          -9 -4 -10 -5 -13 vhcurveto
          7 -2 rlineto
          hintmask 10111011
          18 13 12 13 20 vvcurveto
          24 -19 14 -25 6 vhcurveto
          32 1 22 7 vvcurveto
          2 -9 13 -11 -3 -3 -28 -44 -3 vhcurveto
          84 -583 rmoveto
          -51 -4 -69 -33 -15 -13 33 63 vhcurveto
          hintmask 11011101
          85 2 130 2 123 vhcurveto
          41 -88 20 -54 -172 vvcurveto
          -90 425 rmoveto
          -9 -8 -17 -14 -26 hhcurveto
          -38 -16 33 38 44 35 47 59 hvcurveto
          5 6 -1 5 hhcurveto
          -2 -39 -1 -47 -2 -52 rrcurveto
          endchar
        </CharString>
        <CharString name="question">
          76 27 -21 108 22 200 23 219 31 hstemhm
          30 148 -25 25 -6 51 105 37 hintmask 11110101
          146 378 rmoveto
          -10 -10 -11 -9 -27 hhcurveto
          -32 -17 23 29 80 84 87 111 57 27 -40 -45 hvcurveto
          -138 -175 -102 -88 vvcurveto
          -30 19 -21 27 25 21 24 14 8 vhcurveto
          -4 3 rlineto
          -15 -13 -13 -4 -13 hhcurveto
          -19 -13 14 23 hvcurveto
          97 187 91 145 vvcurveto
          56 -31 47 -75 vhcurveto
          hintmask 11111001
          -103 -126 -103 -104 -34 21 -32 37 28 17 17 21 17 hvcurveto
          50 -309 rmoveto
          hintmask 11110011
          -76 callgsubr
          endchar
        </CharString>
        <CharString name="questiondown">
          76 -356 31 219 23 200 22 -22 130 hstemhm
          9 37 105 51 -6 25 -25 148 hintmask 11101010
          228 -125 rmoveto
          10 10 11 9 27 hhcurveto
          32 17 -23 -29 -80 -84 -87 -111 -57 -27 40 45 hvcurveto
          138 175 102 88 vvcurveto
          30 -19 21 -27 -25 -21 -24 -14 -8 vhcurveto
          4 -3 rlineto
          15 13 13 4 13 hhcurveto
          19 13 -14 -23 hvcurveto
          -97 -187 -91 -145 vvcurveto
          -56 31 -47 75 vhcurveto
          hintmask 11101001
          103 126 103 104 34 -21 32 -37 -28 -17 -17 -21 -17 hvcurveto
          -50 309 rmoveto
          hintmask 11011100
          -3 callsubr
        </CharString>
        <CharString name="quotedbl">
          -117 490 -21 185 -20 hstem
          50 29 41 29 vstem
          81 478 rmoveto
          34 -2 33 39 vvcurveto
          23 1 23 2 22 vhcurveto
          -36 callsubr
          -2 -8 -18 -8 -6 vhcurveto
          -2 -19 -1 -21 -19 -38 3 -32 -38 vvcurveto
          -3 3 -1 5 8 12 4 5 vhcurveto
          70 hmoveto
          34 -2 33 39 vvcurveto
          23 1 23 2 22 vhcurveto
          -36 callsubr
          -2 -8 -18 -8 -6 vhcurveto
          -2 -19 -1 -21 -19 -38 3 -32 -38 vvcurveto
          -3 3 -1 5 8 12 4 5 vhcurveto
          endchar
        </CharString>
        <CharString name="quotedblbase">
          -139 75 -20 hstem
          40 52 28 52 vstem
          147 75 -55 callsubr
        </CharString>
        <CharString name="quotedblleft">
          -139 566 -21 hstem
          54 52 28 52 vstem
          79 545 rmoveto
          -53 callsubr
          80 hmoveto
          -53 callsubr
          endchar
        </CharString>
        <CharString name="quotedblright">
          -139 671 -20 hstem
          40 52 28 52 vstem
          147 671 -55 callsubr
        </CharString>
        <CharString name="quoteleft">
          -219 566 -21 hstem
          54 52 vstem
          79 545 rmoveto
          -53 callsubr
          endchar
        </CharString>
        <CharString name="quoteright">
          -219 671 -20 hstem
          40 52 vstem
          67 671 rmoveto
          -27 callsubr
        </CharString>
        <CharString name="quotesinglbase">
          -219 75 -20 hstem
          40 52 vstem
          67 75 rmoveto
          -27 callsubr
        </CharString>
        <CharString name="quotesingle">
          -187 490 -21 185 -20 hstem
          50 29 vstem
          81 478 rmoveto
          34 -2 33 39 vvcurveto
          23 1 23 2 22 vhcurveto
          -36 callsubr
          -2 -8 -18 -8 -6 vhcurveto
          -2 -19 -1 -21 -19 -38 3 -32 -38 vvcurveto
          -3 3 -1 5 8 12 4 5 vhcurveto
          endchar
        </CharString>
        <CharString name="r">
          10 callgsubr
          hstemhm
          14 35 -12 99 -23 23 hintmask 11110100
          109 -66 callsubr
          hvcurveto
          hintmask 11101000
          -42 callsubr
          hintmask 11110100
          11 12 23 49 4 51 rrcurveto
          -1 6 6 -1 6 21 10 3 7 hhcurveto
          6 14 -2 -18 hvcurveto
          -20 -12 -52 -29 vvcurveto
          -23 6 -34 35 42 50 59 48 14 15 callgsubr
          -48 -26 -32 -29 -27 hhcurveto
          -30 -6 20 25 hvcurveto
          11 9 59 16 vvcurveto
          13 -3 31 -33 vhcurveto
          -75 12 rmoveto
          7 -4 2 1 2 hhcurveto
          0 1 -5 1 -7 vhcurveto
          -1 -36 callsubr
          2 vvcurveto
          endchar
        </CharString>
        <CharString name="racute">
          10 callgsubr
          54 -21 100 -20 hstemhm
          14 35 -12 99 -23 23 hintmask 11100101
          109 -66 callsubr
          hvcurveto
          hintmask 11100010
          -42 callsubr
          hintmask 11100101
          11 12 23 49 4 51 rrcurveto
          -1 6 6 -1 6 21 10 3 7 hhcurveto
          6 14 -2 -18 hvcurveto
          -20 -12 -52 -29 vvcurveto
          -23 6 -34 35 42 50 59 48 14 15 callgsubr
          -48 -26 -32 -29 -27 hhcurveto
          -30 -6 20 25 hvcurveto
          11 9 59 16 vvcurveto
          13 -3 31 -33 vhcurveto
          -75 12 rmoveto
          7 -4 2 1 2 hhcurveto
          0 1 -5 1 -7 vhcurveto
          -1 -36 callsubr
          2 vvcurveto
          hintmask 00011000
          49 49 -77 callgsubr
          endchar
        </CharString>
        <CharString name="rcaron">
          10 callgsubr
          54 20 callgsubr
          hstemhm
          14 35 -12 99 -23 23 hintmask 1110001010000000
          109 -66 callsubr
          hvcurveto
          hintmask 1110000100000000
          -42 callsubr
          hintmask 1110001010000000
          11 12 23 49 4 51 rrcurveto
          -1 6 6 -1 6 21 10 3 7 hhcurveto
          6 14 -2 -18 hvcurveto
          -20 -12 -52 -29 vvcurveto
          -23 6 -34 35 42 50 59 48 14 15 callgsubr
          -48 -26 -32 -29 -27 hhcurveto
          -30 -6 20 25 hvcurveto
          11 9 59 16 vvcurveto
          13 -3 31 -33 vhcurveto
          -75 12 rmoveto
          7 -4 2 1 2 hhcurveto
          0 1 -5 1 -7 vhcurveto
          -1 -36 callsubr
          2 vvcurveto
          hintmask 0001100000000000
          117 136 -103 callsubr
          hintmask 0001010000000000
          -71 callsubr
        </CharString>
        <CharString name="rcommaaccent">
          -89 -31 -20 50 32 143 32 45 -20 hstemhm
          14 35 -12 99 -83 45 15 23 hintmask 01111001
          109 -66 callsubr
          hvcurveto
          hintmask 01110100
          -42 callsubr
          hintmask 01111001
          11 12 23 49 4 51 rrcurveto
          -1 6 6 -1 6 21 10 3 7 hhcurveto
          6 14 -2 -18 hvcurveto
          -20 -12 -52 -29 vvcurveto
          -23 6 -34 35 42 50 59 48 14 15 callgsubr
          -48 -26 -32 -29 -27 hhcurveto
          -30 -6 20 25 hvcurveto
          11 9 59 16 vvcurveto
          13 -3 31 -33 vhcurveto
          -75 12 rmoveto
          7 -4 2 1 2 hhcurveto
          0 1 -5 1 -7 vhcurveto
          -1 -36 callsubr
          2 vvcurveto
          hintmask 10000010
          42 -249 -95 callgsubr
        </CharString>
        <CharString name="registered">
          255 231 25 -25 78 305 20 45 23 hstemhm
          50 26 -26 89 -6 104 -12 180 -17 136 -26 26 hintmask 1011101001000000
          274 231 rmoveto
          124 126 100 130 124 -85 117 -142 -138 -109 -115 -128 hvcurveto
          -115 1 77 -113 146 hhcurveto
          19 25 rmoveto
          -122 2 -96 98 1 120 rrcurveto
          111 90 92 107 112 113 -94 -126 -121 -97 -82 -108 vhcurveto
          105 79 rmoveto
          hintmask 0111100101000000
          -14 -11 -17 -12 -17 hhcurveto
          -34 -11 65 37 -26 hvcurveto
          68 11 55 50 68 vvcurveto
          62 -43 32 -62 -17 -19 -3 -5 -19 vhcurveto
          1 9 0 9 8 4 -17 10 -13 vvcurveto
          -1 -12 0 -11 -10 vvcurveto
          hintmask 1011101010000000
          -51 -18 -44 -37 -48 vvcurveto
          -20 11 -11 3 -4 vhcurveto
          4 5 rlineto
          hintmask 1011010101000000
          -4 5 -8 8 15 vvcurveto
          43 39 31 49 15 vhcurveto
          -12 -1 -11 -1 -11 vhcurveto
          -3 -85 -7 -75 -8 -96 -1 -7 22 -15 2 21 rrcurveto
          hintmask 1011101010000000
          2 34 3 32 2 32 rrcurveto
          -2 5 6 0 6 hhcurveto
          10 hlineto
          -38 21 21 -79 40 hhcurveto
          26 22 32 9 6 hvcurveto
          -156 234 rmoveto
          42 vlineto
          3 16 16 2 16 hhcurveto
          72 24 -38 -49 -45 -38 -55 -73 -10 hvcurveto
          11 -9 -10 8 -14 hhcurveto
          -2 -1 0 -1 -2 hvcurveto
          3 44 2 43 45 vvcurveto
          10 -151 rmoveto
          -9 -5 1 2 -2 hvcurveto
          3 1 3 3 vvcurveto
          1 1 2 0 3 hhcurveto
          5 6 -5 -8 5 hvcurveto
          endchar
        </CharString>
        <CharString name="ring">
          -19 255 145 hstemhm
          72 147 -20 20 hintmask 11000000
          72 321 -63 callgsubr
          hintmask 10100000
          -45 callgsubr
        </CharString>
        <CharString name="s">
          5 callgsubr
          hstemhm
          22 64 -64 106 hintmask 11010000
          -79 callsubr
          -12 11 -13 20 23 49 42 57 -8 callgsubr
          hintmask 11100000
          -81 callsubr
          endchar
        </CharString>
        <CharString name="s_s">
          -9 -8 29 295 -20 hstemhm
          22 64 -64 106 -61 113 -69 162 -106 106 hintmask 11100100
          -79 callsubr
          -12 11 -13 20 56 72 120 40 18 vhcurveto
          25 -32 29 -29 -27 vvcurveto
          -30 -26 -13 -14 -15 -7 8 11 vhcurveto
          4 1 7 3 vvcurveto
          2 -1 3 -3 -4 -15 -23 -18 -11 11 -11 20 22 48 40 55 39 -32 26 -27 28 vhcurveto
          11 32 5 29 1 22 rrcurveto
          22 1 -10 15 -14 hhcurveto
          hintmask 11010010
          -21 -20 -30 -45 -24 12 -23 16 -21 hvcurveto
          -14 -38 -29 -46 -38 -40 rrcurveto
          8 14 6 22 18 vvcurveto
          -8 callgsubr
          hintmask 11100100
          10 31 6 31 1 26 rrcurveto
          22 1 -10 16 -14 hhcurveto
          -21 -20 -31 -48 -25 12 -23 16 -22 hvcurveto
          -12 -35 -18 -38 -22 -35 rrcurveto
          37 203 rmoveto
          21 11 8 6 vhcurveto
          hintmask 11001000
          10 5 -11 -23 -17 -2 -19 -5 -20 hvcurveto
          -15 18 -10 19 24 vvcurveto
          145 -10 rmoveto
          19 11 8 6 10 5 -11 -22 -14 -2 -18 -5 -20 vhcurveto
          -14 17 -11 18 23 vvcurveto
          endchar
        </CharString>
        <CharString name="sacute">
          5 callgsubr
          81 -21 100 -20 hstemhm
          22 64 -64 106 hintmask 11000100
          -79 callsubr
          -12 11 -13 20 23 49 42 57 -8 callgsubr
          hintmask 11001000
          -81 callsubr
          hintmask 00110000
          21 97 -77 callgsubr
          endchar
        </CharString>
        <CharString name="scaron">
          5 callgsubr
          81 20 callgsubr
          hstemhm
          22 64 -64 106 hintmask 11000010
          -79 callsubr
          -12 11 -13 20 23 49 42 57 -8 callgsubr
          hintmask 11000100
          -81 callsubr
          hintmask 00110000
          89 184 -103 callsubr
          hintmask 00101000
          -71 callsubr
        </CharString>
        <CharString name="scedilla">
          -154 -126 25 46 20 -20 76 295 -20 hstemhm
          22 64 -64 106 hintmask 10111000
          -79 callsubr
          -11 8 -11 16 -2 vhcurveto
          -6 -19 -6 -22 -8 -75 callgsubr
          hvcurveto
          hintmask 11010100
          22 -13 15 -22 -11 -7 -3 -2 -4 vhcurveto
          10 2 10 3 12 vhcurveto
          24 4 45 40 55 vvcurveto
          -8 callgsubr
          hintmask 11011000
          -81 callsubr
          endchar
        </CharString>
        <CharString name="scircumflex">
          5 callgsubr
          81 -21 95 -20 hstemhm
          22 64 -64 106 hintmask 11000100
          -79 callsubr
          -12 11 -13 20 23 49 42 57 -8 callgsubr
          hintmask 11001000
          -81 callsubr
          hintmask 00110000
          -38 96 -106 callgsubr
        </CharString>
        <CharString name="section">
          48 -54 28 663 29 hstemhm
          67 28 -14 228 hintmask 11010000
          114 89 rmoveto
          -25 -32 -8 -27 -18 vvcurveto
          -47 49 -19 42 68 69 63 71 31 -17 27 -24 25 vhcurveto
          29 15 19 28 31 vvcurveto
          58 -96 62 -54 44 vhcurveto
          -37 30 -60 39 51 vvcurveto
          69 92 47 59 51 32 -27 -37 -11 -4 -11 -5 -12 vhcurveto
          8 -3 rlineto
          10 20 5 19 18 vvcurveto
          41 -28 32 -59 -75 -105 -82 -75 -42 26 -34 36 -32 vhcurveto
          hintmask 11100000
          -27 -15 -18 -27 -30 vvcurveto
          -68 113 -61 53 -50 vhcurveto
          23 -23 34 -29 -33 vvcurveto
          -59 -64 -32 -47 -35 -44 19 40 18 10 19 11 16 vhcurveto
          167 131 rmoveto
          -15 -9 -22 -19 -9 vhcurveto
          -63 60 -102 48 71 vvcurveto
          18 10 17 17 8 vhcurveto
          70 -59 96 -51 -66 vvcurveto
          endchar
        </CharString>
        <CharString name="semicolon">
          -168 215 -20 hstem
          50 52 vstem
          77 75 rmoveto
          -93 callsubr
          1 140 rmoveto
          -76 callgsubr
          endchar
        </CharString>
        <CharString name="seven">
          116 -13 -21 583 27 11 26 17 -20 hstemhm
          hintmask 11100000
          36 517 rmoveto
          -4 7 -1 8 8 vvcurveto
          23 15 24 28 vhcurveto
          87 92 -38 91 hhcurveto
          13 hlineto
          -104 -118 -120 -229 -23 -229 rrcurveto
          -5 4 -2 6 12 20 9 10 vhcurveto
          2 vlineto
          3 165 111 279 104 119 rrcurveto
          hintmask 11010000
          58 5 67 19 36 vvcurveto
          13 -9 7 -11 -25 -32 -20 -34 -36 vhcurveto
          hintmask 11100000
          -112 -72 37 -99 hhcurveto
          -51 -25 -39 -34 -10 3 -10 4 -8 hvcurveto
          430 96 rmoveto
          4 5 -2 -4 -20 -37 -5 -37 -1 hvcurveto
          20 23 22 12 20 hhcurveto
          endchar
        </CharString>
        <CharString name="six">
          151 -34 27 180 31 392 36 hstemhm
          33 33 -33 53 181 31 hintmask 11110100
          500 540 rmoveto
          39 -12 -40 53 -71 hhcurveto
          -216 -128 -289 -182 -113 56 -82 90 63 56 58 75 62 -54 43 -55 -66 -39 -43 -51 -12 hvcurveto
          -4 21 -2 22 20 vvcurveto
          159 73 264 223 76 27 -28 -32 27 vhcurveto
          hintmask 11101100
          -406 -461 rmoveto
          50 23 48 61 54 43 -48 -57 -56 -37 -19 -46 -50 -31 30 41 -17 vhcurveto
          endchar
        </CharString>
        <CharString name="slash">
          -15 4 -21 684 -20 hstem
          306 662 rmoveto
          -101 -245 -66 -197 -92 -222 rrcurveto
          13 callsubr
          88 221 71 185 103 259 rrcurveto
          0 1 2 1 vvcurveto
          4 -5 2 -5 -5 -12 -2 -3 -1 vhcurveto
          endchar
        </CharString>
        <CharString name="space">
          -149 endchar
        </CharString>
        <CharString name="sterling">
          218 -33 78 -65 -21 164 27 430 29 hstemhm
          41 34 -34 106 343 27 hintmask 10111010
          152 124 rmoveto
          -3 callgsubr
          17 6 5 -48 -1 -8 -11 -11 0 -1 -10 hvcurveto
          -22 57 -32 55 65 vvcurveto
          139 126 115 115 94 80 -53 -85 -56 -34 -48 -39 -26 vhcurveto
          5 -6 rlineto
          54 38 41 47 66 vvcurveto
          86 -63 66 -123 -136 -154 -143 -151 -60 33 -54 26 -52 vhcurveto
          -1 -15 -14 0 -16 hhcurveto
          -3 -6 -13 14 callsubr
          63 hlineto
          11 -25 8 -24 -24 -3 -1 -4 -4 vvcurveto
          4 -12 -11 2 -11 hhcurveto
          -27 -29 -20 -28 -14 13 -16 23 26 20 19 23 12 hvcurveto
          hintmask 01110110
          -77 callsubr
          20 -4 20 -6 20 vhcurveto
          -51 -131 rmoveto
          -15 -7 7 9 8 7 10 15 11 12 -5 -6 12 hvcurveto
          -13 -7 -11 -10 -17 hhcurveto
          endchar
        </CharString>
        <CharString name="t">
          -158 10 17 callgsubr
          hstem
          13 30 36 20 vstem
          -92 callsubr
          endchar
        </CharString>
        <CharString name="tbar">
          -158 10 24 137 21 148 25 112 -20 hstem
          14 30 36 20 vstem
          -134 382 rmoveto
          -33 19 37 -9 38 hhcurveto
          9 24 0 1 30 hvcurveto
          -5 -38 -4 -49 -61 vvcurveto
          -1 -44 vlineto
          -22 callgsubr
          19 16 1 1 15 hvcurveto
          2 -113 20 -47 53 -3 63 -3 30 73 9 26 -3 2 rcurveline
          -1 -1 -31 -73 -58 hhcurveto
          -35 -14 26 86 -5 hvcurveto
          5 10 4 11 4 10 rrcurveto
          3 25 26 1 34 hhcurveto
          4 6 3 6 5 -58 -1 -8 hvcurveto
          -24 hlineto
          19 55 11 50 5 43 63 2 61 1 7 1 rrcurveto
          17 1 4 9 9 vvcurveto
          3 -2 2 -6 vhcurveto
          -2 -11 -1 -3 hhcurveto
          -9 -1 -55 -2 -62 -1 rrcurveto
          11 1 11 10 vvcurveto
          54 -9 26 -14 -7 -12 -9 -11 -5 vhcurveto
          -4 -8 -13 -27 -10 -58 rrcurveto
          -61 hlineto
          -78 -18 20 2 -1 hvcurveto
          210 -44 rmoveto
          -3 -48 -10 -49 -15 -52 rrcurveto
          -7 35 hlineto
          35 1 41 2 37 vhcurveto
          11 10 1 11 hhcurveto
          -30 22 rmoveto
          52 4 6 41 10 hhcurveto
          4 8 -10 -65 hvcurveto
          -17 vlineto
          -11 -11 -1 -10 hhcurveto
          -4 -188 rmoveto
          -1 0 -1 -1 -1 vhcurveto
          3 vlineto
          endchar
        </CharString>
        <CharString name="tcaron">
          -138 10 17 callgsubr
          88 -20 hstemhm
          13 30 36 20 26 52 hintmask 11101100
          -92 callsubr
          hintmask 00010010
          105 181 rmoveto
          -27 callsubr
        </CharString>
        <CharString name="tcommaaccent">
          -158 -41 -20 71 17 callgsubr
          hstemhm
          13 30 15 45 -24 20 hintmask 01111010
          -92 callsubr
          hintmask 10000100
          34 -405 -95 callgsubr
        </CharString>
        <CharString name="thorn">
          -80 -567 22 704 29 350 -20 hstemhm
          -96 28 78 34 -12 35 119 33 hintmask 11110110
          67 -222 rmoveto
          111 -8 63 -6 97 vhcurveto
          67 37 39 43 29 -20 callsubr
          hintmask 11111010
          -4 77 -4 99 158 vvcurveto
          106 9 21 -8 5 vhcurveto
          2 -2 -3 1 -3 hhcurveto
          -6 -6 -4 -2 -4 hvcurveto
          -5 -3 -1 -4 -4 -4 -5 -78 -85 vvcurveto
          -174 6 -86 6 -81 vhcurveto
          -67 -136 -51 -188 -1 callsubr
          -35 -20 16 callgsubr
          135 42 152 50 113 vhcurveto
          4 -63 4 -64 -105 vvcurveto
          endchar
        </CharString>
        <CharString name="three">
          147 -36 27 -27 168 -19 56 414 34 hstemhm
          125 190 -33 33 88 39 hintmask 10111010
          77 44 rmoveto
          -25 19 42 -55 79 hhcurveto
          61 37 41 50 36 -21 32 -30 21 hvcurveto
          93 60 85 135 108 vvcurveto
          95 -47 75 -120 -87 -168 -78 -132 -37 25 -38 19 -16 vhcurveto
          5 5 rlineto
          -13 16 -20 24 41 vvcurveto
          106 118 75 114 93 42 -75 -65 -129 -70 -118 -81 -45 vhcurveto
          11 -21 -23 7 -23 hhcurveto
          -27 -33 -7 -21 -20 24 -8 23 24 25 7 13 24 hvcurveto
          hintmask 10110110
          22 -17 15 -27 -30 vvcurveto
          -39 -34 -29 -47 -70 -34 37 21 -15 vhcurveto
          hintmask 01011010
          100 83 rmoveto
          -22 -8 5 8 8 15 4 15 17 18 -5 -10 15 hvcurveto
          -7 -17 -16 -3 -17 hhcurveto
          endchar
        </CharString>
        <CharString name="threequarters">
          272 -6 -21 102 29 108 12 callsubr
          24 29 139 30 vstem
          558 -56 callgsubr
          -491 183 -62 callsubr
          417 354 -85 callsubr
          7 -516 rmoveto
          -15 hlineto
          -33 -91 -8 5 25 104 140 47 73 hvcurveto
          -9 -75 -2 -78 -1 -82 rrcurveto
          -361 211 -13 callsubr
        </CharString>
        <CharString name="threesuperior">
          5 212 12 callsubr
          vstem
          67 261 -62 callsubr
          63 49 -13 callsubr
        </CharString>
        <CharString name="tilde">
          -19 265 5 callsubr
          hintmask 10100000
          78 277 -98 callsubr
          hintmask 01100000
          -64 callgsubr
        </CharString>
        <CharString name="trademark">
          347 304 20 -20 157 -139 -21 244 20 hstemhm
          148 25 110 26 78 24 -24 116 hintmask 10011110
          288 502 rmoveto
          -2 -1 -19 -7 -5 -6 16 10 -23 vvcurveto
          -96 vlineto
          -17 -11 -24 -33 -30 hhcurveto
          -36 -9 35 126 21 1 20 2 19 hvcurveto
          2 64 104 3 8 hhcurveto
          14 1 3 8 7 vvcurveto
          3 -1 1 -5 vhcurveto
          -14 hlineto
          -10 -1 -88 -3 -73 -1 5 42 7 31 3 5 3 5 -35 -3 -4 -10 -4 -8 -3 -10 -1 -52 rrcurveto
          -16 hlineto
          -66 -15 17 2 hvcurveto
          -2 -4 rlineto
          -27 16 31 -8 31 hhcurveto
          20 -89 hlineto
          -106 16 -46 47 36 24 37 23 12 vhcurveto
          -33 vlineto
          -22 8 -4 5 7 4 3 9 7 vhcurveto
          7 12 34 82 8 18 rrcurveto
          14 6 4 4 6 hhcurveto
          4 4 -2 -15 hvcurveto
          -46 vlineto
          hintmask 00111101
          -59 -3 -24 15 15 15 49 20 7 vhcurveto
          29 11 12 41 8 hhcurveto
          4 1 -3 -6 1 hvcurveto
          -70 6 -14 -56 42 hhcurveto
          7 8 4 2 3 -18 5 -1 24 hvcurveto
          -2 18 -2 66 13 vvcurveto
          hintmask 01011110
          20 -19 1 -5 -16 -9 -26 -51 -19 vhcurveto
          -27 -10 -7 -23 -3 hhcurveto
          -1 0 1 4 hvcurveto
          5 1 55 26 vvcurveto
          33 -7 13 -15 -23 -9 -32 -45 -19 vhcurveto
          -26 -12 -11 -30 -4 hhcurveto
          -2 0 3 6 hvcurveto
          123 vlineto
          26 -5 9 -10 -2 -3 -1 -2 -1 vhcurveto
          endchar
        </CharString>
        <CharString name="two">
          171 -35 35 -12 55 272 32 238 32 hstemhm
          429 37 hintmask 10111000
          381 30 rmoveto
          -15 -10 -7 -15 -38 hhcurveto
          -32 -34 15 12 -33 hvcurveto
          99 81 140 178 172 vvcurveto
          104 -61 55 -100 -111 -161 -98 -131 -34 11 -39 38 28 11 32 10 4 vhcurveto
          -3 1 rlineto
          -3 -6 -9 -8 -18 hhcurveto
          -24 -16 15 27 hvcurveto
          120 4 129 76 120 hhcurveto
          73 54 -51 -86 -171 -127 -178 -90 -67 hvcurveto
          hintmask 01111000
          6 -19 -18 5 -17 hhcurveto
          -23 -29 -10 -19 -16 16 -10 25 14 24 8 18 25 hvcurveto
          hintmask 10111000
          -19 35 31 -30 44 hhcurveto
          42 10 39 24 13 hvcurveto
          -237 -19 rmoveto
          -9 -6 3 7 6 7 4 15 1 hvcurveto
          14 14 -3 -6 12 hvcurveto
          -9 -17 -19 -3 -11 hhcurveto
          endchar
        </CharString>
        <CharString name="twosuperior">
          8 212 24 183 23 149 26 hstem
          277 30 vstem
          254 257 rmoveto
          -10 -7 -6 -11 -25 hhcurveto
          -20 -21 8 8 -21 hvcurveto
          64 51 89 109 106 vvcurveto
          64 -40 35 -65 -72 -105 -71 -81 -22 8 -24 24 18 11 24 6 2 15 callgsubr
          -2 -4 -7 -7 -12 hhcurveto
          -16 -7 10 13 75 83 51 78 44 33 -30 -49 -106 -77 -107 -58 -42 hvcurveto
          4 -12 -12 3 -11 hhcurveto
          -15 -19 -6 -15 -10 10 -6 17 8 17 4 12 8 callgsubr
          -158 -13 -12 callgsubr
        </CharString>
        <CharString name="u">
          -30 callsubr
          hstemhm
          22 20 109 28 hintmask 10110000
          -86 callgsubr
          hintmask 01110000
          -92 callgsubr
          hintmask 10110000
          21 -7 18 -21 vhcurveto
          hintmask 01110000
          -55 callgsubr
          hvcurveto
          -59 callgsubr
          -19 -10 -60 6 callsubr
          61 30 111 7 3 vhcurveto
          2 8 2 -3 -4 -4 -1 -18 -10 vvcurveto
          endchar
        </CharString>
        <CharString name="u_r">
          152 -1 30 -16 190 -29 29 48 -20 hstemhm
          22 20 109 28 76 122 -23 23 hintmask 01011110
          350 -66 callsubr
          -22 8 -16 15 -9 hvcurveto
          hintmask 10111110
          -46 -7 -24 -107 -38 hhcurveto
          -26 -4 25 73 hvcurveto
          hintmask 01011110
          29 1 31 16 vvcurveto
          -92 callgsubr
          21 -7 18 -21 -55 callgsubr
          vhcurveto
          -59 callgsubr
          -19 -10 -60 6 callsubr
          61 30 111 7 3 vhcurveto
          2 8 2 -3 -4 -4 -1 -18 -10 vvcurveto
          -67 3 11 -23 33 hhcurveto
          51 22 66 100 19 hvcurveto
          hintmask 10111101
          -1 6 6 -1 6 21 10 3 7 hhcurveto
          6 14 -2 -18 hvcurveto
          -20 -12 -52 -29 vvcurveto
          -23 6 -34 35 42 50 59 48 14 15 callgsubr
          -48 -26 -32 -29 -27 hhcurveto
          -30 -6 20 25 hvcurveto
          11 9 59 16 vvcurveto
          13 -3 31 -33 vhcurveto
          -75 20 rmoveto
          0 1 -5 1 -7 vhcurveto
          3 -3 -4 9 5 hhcurveto
          endchar
        </CharString>
        <CharString name="uacute">
          -30 callsubr
          75 -21 100 -20 -100 callgsubr
          hintmask 00110000
          -59 143 -77 callgsubr
          endchar
        </CharString>
        <CharString name="ubreve">
          -30 callsubr
          64 24 hstemhm
          22 20 109 28 hintmask 10011000
          -86 callgsubr
          hintmask 01011000
          -92 callgsubr
          hintmask 10011000
          21 -7 18 -21 vhcurveto
          hintmask 01011000
          -55 callgsubr
          hvcurveto
          -59 callgsubr
          -19 -10 -60 6 callsubr
          61 30 111 7 3 vhcurveto
          2 8 2 -3 -4 -4 -1 -18 -10 vvcurveto
          hintmask 00100000
          -125 215 -98 callgsubr
        </CharString>
        <CharString name="ucircumflex">
          -30 callsubr
          75 -21 95 -20 -100 callgsubr
          hintmask 00110000
          -118 142 -106 callgsubr
        </CharString>
        <CharString name="udieresis">
          -30 callsubr
          68 44 hstemhm
          22 20 109 28 hintmask 10011000
          -86 callgsubr
          hintmask 01011000
          -92 callgsubr
          hintmask 10011000
          21 -7 18 -21 vhcurveto
          hintmask 01011000
          -55 callgsubr
          hvcurveto
          -59 callgsubr
          -19 -10 -60 6 callsubr
          61 30 111 7 3 vhcurveto
          2 8 2 -3 -4 -4 -1 -18 -10 vvcurveto
          hintmask 00100000
          -118 176 -99 callgsubr
        </CharString>
        <CharString name="ugrave">
          -30 callsubr
          75 -21 106 -20 -100 callgsubr
          hintmask 00110000
          -118 217 rmoveto
          22 -20 33 -25 26 -30 rrcurveto
          -2 1 2 0 2 hhcurveto
          5 6 8 6 2 0 2 -1 1 hvcurveto
          -28 26 -21 28 -29 32 rrcurveto
          1 -1 -1 0 -1 hhcurveto
          -8 -12 -17 -8 -23 callgsubr
          4 hvcurveto
          endchar
        </CharString>
        <CharString name="uhungarumlaut">
          -30 callsubr
          75 -21 100 -20 -100 callgsubr
          hintmask 00110000
          -114 143 -77 callgsubr
          90 hmoveto
          -107 callgsubr
          endchar
        </CharString>
        <CharString name="umacron">
          -30 callsubr
          79 25 -7 -21 -100 callgsubr
          hintmask 00010000
          -113 162 rmoveto
          hintmask 00100000
          -84 callgsubr
          hintmask 00010000
          -36 callgsubr
        </CharString>
        <CharString name="underscore">
          -69 -98 32 hstem
          131 -95 rmoveto
          31 22 -1 -2 30 hvcurveto
          6 10 21 6 5 -67 0 -13 hvcurveto
          -59 -32 -3 -60 hhcurveto
          -9 -10 -17 -8 -3 2 -1 1 hvcurveto
          56 33 3 59 hhcurveto
          endchar
        </CharString>
        <CharString name="uni00AD">
          -45 callsubr
        </CharString>
        <CharString name="uni2215">
          -158 -6 -21 hstem
          243 621 -85 callsubr
          endchar
        </CharString>
        <CharString name="uogonek">
          -78 -105 23 -23 129 -11 182 11 -20 hstemhm
          22 20 -20 140 -11 28 hintmask 10101010
          151 100 rmoveto
          2 -59 9 -27 29 -5 rrcurveto
          -30 -24 -21 -26 -26 -70 callgsubr
          -22 -8 -21 hhcurveto
          hintmask 01010100
          -17 -10 10 13 21 22 32 22 12 hvcurveto
          20 11 1 4 3 vvcurveto
          -36 callsubr
          -1 vhcurveto
          -3 -4 -2 -6 hhcurveto
          hintmask 10011010
          -57 callsubr
          -92 callgsubr
          hintmask 10101010
          21 -7 18 -21 vhcurveto
          hintmask 10011010
          -55 callgsubr
          hvcurveto
          -59 callgsubr
          -19 -10 -60 -20 vvcurveto
          hintmask 10101010
          -33 12 -17 30 61 30 111 7 3 vhcurveto
          2 8 2 -3 -4 -4 -1 -18 -10 vvcurveto
          endchar
        </CharString>
        <CharString name="uring">
          -30 callsubr
          54 145 hstemhm
          22 20 -16 147 -22 28 -26 20 hintmask 10010100
          -86 callgsubr
          hintmask 01010100
          -92 callgsubr
          hintmask 10010100
          21 -7 18 -21 vhcurveto
          hintmask 01010100
          -55 callgsubr
          hvcurveto
          -59 callgsubr
          -19 -10 -60 6 callsubr
          61 30 111 7 3 vhcurveto
          2 8 2 -3 -4 -4 -1 -18 -10 vvcurveto
          hintmask 00101000
          -125 206 -63 callgsubr
          hintmask 00100010
          -45 callgsubr
        </CharString>
        <CharString name="utilde">
          -30 callsubr
          64 5 callsubr
          22 20 109 28 hintmask 10000110
          -86 callgsubr
          hintmask 01000110
          -92 callgsubr
          hintmask 10000110
          21 -7 18 -21 vhcurveto
          hintmask 01000110
          -55 callgsubr
          hvcurveto
          -59 callgsubr
          -19 -10 -60 6 callsubr
          61 30 111 7 3 vhcurveto
          2 8 2 -3 -4 -4 -1 -18 -10 vvcurveto
          hintmask 00101000
          -126 162 -98 callsubr
          hintmask 00011000
          -64 callgsubr
        </CharString>
        <CharString name="v">
          -110 3 212 -13 31 hstemhm
          14 30 69 57 hintmask 10110000
          67 24 rmoveto
          -14 -9 -3 164 21 -5 9 -21 -18 -8 -7 -2 hvcurveto
          hintmask 01110000
          -23 callgsubr
          3 vhcurveto
          -59 callgsubr
          hintmask 10110000
          -172 10 -7 25 43 40 62 57 21 vhcurveto
          -1 4 4 0 4 hhcurveto
          41 25 45 18 8 hvcurveto
          -6 3 rlineto
          -24 -12 -21 -24 -31 hhcurveto
          -10 hlineto
          7 21 4 19 14 vvcurveto
          hintmask 01110000
          29 -11 11 -12 -18 -16 -23 -28 -22 11 -23 20 -11 vhcurveto
          -54 -18 -40 -48 -19 hhcurveto
          58 162 rmoveto
          13 6 10 7 13 2 -17 -14 -12 -2 -11 -3 -12 vhcurveto
          -17 8 -6 17 18 vvcurveto
          endchar
        </CharString>
        <CharString name="w">
          -16 callsubr
          -30 callgsubr
          hintmask 11010100
          172 hmoveto
          38 34 49 51 22 hvcurveto
          -2 6 6 -1 8 hhcurveto
          47 31 43 25 17 hvcurveto
          -6 3 rlineto
          -36 -24 -18 -16 -35 hhcurveto
          -9 -8 1 3 -7 hvcurveto
          11 29 6 27 17 vvcurveto
          19 -6 18 -15 -16 -20 -27 -40 -23 6 -22 16 -12 vhcurveto
          -46 -19 -31 -39 -18 hhcurveto
          hintmask 10110100
          -100 callsubr
          hintmask 11001000
          -66 callgsubr
          endchar
        </CharString>
</ttFont>
